<svg width="40" height="40" viewBox="0 0 40 40" fill="none" xmlns="http://www.w3.org/2000/svg">
<path d="M36.8715 36.0541H35.4128V13.1677C35.4122 12.7641 35.2516 12.3771 34.9661 12.0917C34.6806 11.8064 34.2936 11.6459 33.8899 11.6455H30.7997C30.3962 11.646 30.0093 11.8065 29.7239 12.0919C29.4386 12.3773 29.278 12.7642 29.2775 13.1677V36.0541H27.1804V24.0356C27.18 23.632 27.0195 23.245 26.7341 22.9595C26.4488 22.674 26.0618 22.5133 25.6581 22.5128H22.5673C22.1637 22.5133 21.7767 22.674 21.4913 22.9595C21.2059 23.245 21.0455 23.632 21.0451 24.0356V36.0541H18.9479V19.6423C18.9476 19.2387 18.7871 18.8516 18.5017 18.5662C18.2163 18.2807 17.8294 18.12 17.4257 18.1195H14.3349C13.9312 18.12 13.5443 18.2807 13.2589 18.5662C12.9735 18.8516 12.813 19.2387 12.8127 19.6423V36.0541H10.7155V28.8568C10.7151 28.4531 10.5547 28.0661 10.2693 27.7806C9.98392 27.4951 9.59695 27.3345 9.19329 27.334H6.10308C5.69933 27.3344 5.31224 27.495 5.02674 27.7805C4.74125 28.066 4.58068 28.4531 4.58027 28.8568V36.0541H3.12152C2.9575 36.0567 2.8011 36.1237 2.68605 36.2407C2.571 36.3576 2.50653 36.5151 2.50653 36.6791C2.50654 36.8431 2.57102 37.0006 2.68608 37.1175C2.80113 37.2344 2.95754 37.3014 3.12155 37.3041C7.79008 37.3049 35.5317 37.3064 36.8715 37.3041C37.0351 37.3008 37.1909 37.2335 37.3054 37.1167C37.42 36.9998 37.4841 36.8427 37.4841 36.6791C37.4841 36.5155 37.42 36.3583 37.3054 36.2415C37.1909 36.1246 37.0351 36.0573 36.8715 36.0541ZM5.83026 36.0541V28.8568C5.83045 28.7845 5.85925 28.7152 5.91038 28.6641C5.9615 28.613 6.03079 28.5842 6.1031 28.584H9.1933C9.26554 28.5842 9.33475 28.613 9.38578 28.6642C9.4368 28.7153 9.46548 28.7846 9.46552 28.8568V36.0541H5.83026ZM14.0627 36.0541V19.6423C14.0627 19.5701 14.0914 19.5008 14.1424 19.4497C14.1935 19.3985 14.2627 19.3697 14.3349 19.3695H17.4257C17.498 19.3697 17.5672 19.3985 17.6182 19.4497C17.6692 19.5008 17.6979 19.5701 17.6979 19.6423V36.0541H14.0627ZM22.2951 36.0541V24.0356C22.2951 23.9634 22.3238 23.8941 22.3748 23.843C22.4259 23.7918 22.4951 23.763 22.5673 23.7628H25.6581C25.7304 23.763 25.7996 23.7918 25.8506 23.843C25.9016 23.8941 25.9303 23.9634 25.9304 24.0356V36.0541H22.2951ZM30.5275 36.0541V13.1677C30.5276 13.0955 30.5563 13.0263 30.6073 12.9753C30.6584 12.9243 30.7276 12.8956 30.7997 12.8955H33.89C33.9622 12.8955 34.0315 12.9242 34.0826 12.9752C34.1338 13.0263 34.1626 13.0955 34.1628 13.1677V36.0541H30.5275Z" fill="#B7EC42"/>
<path d="M7.57178 18.382C7.97389 18.3793 8.36867 18.2741 8.71873 18.0762C9.06878 17.8783 9.36254 17.5943 9.57218 17.2512C9.78181 16.908 9.90039 16.517 9.91668 16.1152C9.93298 15.7134 9.84645 15.3141 9.66528 14.9551L14.5457 10.511C15.0185 10.8092 15.5822 10.9293 16.1355 10.8497C16.6889 10.7701 17.1959 10.4961 17.5656 10.0768L21.7206 12.1136C21.6503 12.481 21.6685 12.8598 21.7737 13.2188C21.8789 13.5777 22.0681 13.9064 22.3255 14.1777C22.583 14.449 22.9014 14.655 23.2544 14.7788C23.6073 14.9026 23.9847 14.9405 24.3552 14.8895C24.7257 14.8385 25.0788 14.6999 25.3851 14.4853C25.6915 14.2707 25.9423 13.9863 26.1168 13.6555C26.2914 13.3247 26.3846 12.9571 26.3889 12.5831C26.3931 12.2091 26.3082 11.8394 26.1412 11.5047L31.1471 7.03251C31.6266 7.34389 32.2027 7.47077 32.7686 7.3896C33.3345 7.30844 33.8518 7.02474 34.2244 6.59115C34.597 6.15757 34.7997 5.60353 34.7948 5.03186C34.7899 4.46018 34.5778 3.90968 34.1979 3.48251C33.818 3.05534 33.2959 2.78049 32.7287 2.70898C32.1615 2.63747 31.5876 2.77415 31.1136 3.09365C30.6395 3.41315 30.2974 3.89378 30.1508 4.44636C30.0042 4.99894 30.063 5.58594 30.3163 6.09844L25.311 10.5701C24.8377 10.2673 24.2718 10.1436 23.7153 10.2214C23.1588 10.2992 22.6485 10.5734 22.2764 10.9944L18.1204 8.95712C18.1905 8.5891 18.1718 8.20967 18.0659 7.85034C17.9599 7.491 17.7697 7.16213 17.5111 6.89105C17.2526 6.61996 16.933 6.41449 16.5791 6.29169C16.2252 6.16888 15.847 6.1323 15.4761 6.18498C15.1052 6.23765 14.7522 6.37806 14.4465 6.59455C14.1407 6.81104 13.891 7.09735 13.7181 7.42971C13.5453 7.76207 13.4542 8.13088 13.4524 8.50551C13.4507 8.88014 13.5384 9.24978 13.7082 9.58372L8.82552 14.03C8.51622 13.8351 8.16585 13.7149 7.80209 13.6787C7.43833 13.6426 7.07115 13.6915 6.72956 13.8217C6.38798 13.9519 6.08134 14.1597 5.83388 14.4288C5.58642 14.6978 5.40493 15.0207 5.30374 15.372C5.20254 15.7233 5.18442 16.0933 5.25081 16.4527C5.3172 16.8122 5.46627 17.1513 5.68626 17.4433C5.90624 17.7352 6.19111 17.972 6.51834 18.1349C6.84558 18.2978 7.20623 18.3824 7.57178 18.382ZM32.4204 3.94049C32.7125 3.94422 32.9913 4.06288 33.1966 4.27074C33.4018 4.47861 33.5168 4.75895 33.5168 5.05105C33.5168 5.34314 33.4017 5.62348 33.1965 5.83134C32.9913 6.03919 32.7124 6.15783 32.4204 6.16156C32.1283 6.15782 31.8494 6.03917 31.6442 5.8313C31.439 5.62344 31.3239 5.3431 31.324 5.051C31.324 4.7589 31.439 4.47856 31.6443 4.27071C31.8495 4.06285 32.1283 3.94421 32.4204 3.94049ZM24.0366 11.4405C24.3287 11.4442 24.6075 11.5629 24.8128 11.7707C25.018 11.9786 25.133 12.2589 25.133 12.551C25.133 12.8431 25.018 13.1235 24.8127 13.3313C24.6075 13.5392 24.3287 13.6578 24.0366 13.6616C23.7445 13.6578 23.4657 13.5392 23.2604 13.3313C23.0552 13.1234 22.9402 12.8431 22.9402 12.551C22.9402 12.2589 23.0552 11.9786 23.2605 11.7707C23.4657 11.5629 23.7445 11.4442 24.0366 11.4405ZM15.8042 7.41156C16.0959 7.41577 16.3742 7.5346 16.579 7.74236C16.7837 7.95011 16.8985 8.2301 16.8985 8.52181C16.8985 8.81351 16.7837 9.0935 16.5789 9.30125C16.3742 9.50899 16.0958 9.62781 15.8042 9.63201C15.5125 9.6278 15.2342 9.50897 15.0294 9.30121C14.8247 9.09346 14.7099 8.81347 14.7099 8.52176C14.7099 8.23005 14.8247 7.95007 15.0295 7.74232C15.2342 7.53457 15.5125 7.41576 15.8042 7.41156ZM7.5718 14.9116C7.86343 14.9158 8.14168 15.0347 8.3464 15.2424C8.55112 15.4502 8.66587 15.7301 8.66586 16.0218C8.66585 16.3135 8.55108 16.5934 8.34634 16.8012C8.14161 17.0089 7.86336 17.1278 7.57172 17.132C7.28008 17.1277 7.00184 17.0089 6.79711 16.8011C6.59239 16.5934 6.47764 16.3134 6.47764 16.0218C6.47765 15.7301 6.59242 15.4501 6.79715 15.2424C7.00189 15.0347 7.28016 14.9158 7.5718 14.9116Z" fill="#B7EC42"/>
</svg>
