<svg width="40" height="40" viewBox="0 0 40 40" fill="none" xmlns="http://www.w3.org/2000/svg">
<path d="M31.666 13.334C32.5865 13.334 33.3327 14.0802 33.3327 15.0006C33.3327 15.9211 32.5865 16.6673 31.666 16.6673L11.2318 16.667C10.446 16.6672 9.67307 16.6673 9.07548 16.5741C8.50638 16.4853 7.33253 16.2032 6.84138 14.8947C6.35771 13.6061 6.99207 12.5216 7.33143 12.0237C7.69132 11.4958 8.23517 10.8959 8.79275 10.2808L9.8808 9.0801C10.4523 8.44913 11.0069 7.83683 11.4952 7.4307C11.9465 7.0553 12.9667 6.3183 14.1913 6.858C15.4158 7.39771 15.6676 8.69533 15.7471 9.30466C15.833 9.9639 15.8328 10.8206 15.8327 11.7033L15.8326 13.334H31.666Z" fill="#2B3314"/>
<path d="M8.33268 26.6662C7.4122 26.6662 6.66602 25.9201 6.66602 24.9996C6.66602 24.0791 7.4122 23.3329 8.33268 23.3329L28.7669 23.3332C29.5527 23.3331 30.3257 23.3329 30.9232 23.4261C31.4924 23.5149 32.6662 23.7971 33.1574 25.1056C33.641 26.3941 33.0067 27.4786 32.6674 27.9764C32.3074 28.5044 31.7635 29.1044 31.206 29.7194L30.1179 30.9201C29.5464 31.5511 28.9919 32.1634 28.5035 32.5696C28.0522 32.9449 27.032 33.6819 25.8074 33.1422C24.5829 32.6026 24.331 31.3049 24.2517 30.6956C24.1657 30.0364 24.1659 29.1797 24.166 28.2969V26.6662H8.33268Z" fill="#2B3314"/>
</svg>
