<svg width="38" height="38" viewBox="0 0 38 38" fill="none" xmlns="http://www.w3.org/2000/svg">
<path d="M0 19C0 8.50659 8.50659 0 19 0C29.4934 0 38 8.50659 38 19C38 29.4934 29.4934 38 19 38C8.50659 38 0 29.4934 0 19Z" fill="#0C1F25"/>
<g clip-path="url(#clip0_13944_21063)">
<path d="M23.645 20.9114C23.3174 20.5704 22.9223 20.388 22.5036 20.388C22.0882 20.388 21.6898 20.567 21.3487 20.9081L20.2816 21.9718C20.1938 21.9245 20.106 21.8806 20.0216 21.8367C19.9 21.7759 19.7852 21.7185 19.6873 21.6577C18.6877 21.0229 17.7793 20.1955 16.9081 19.125C16.486 18.5915 16.2023 18.1424 15.9963 17.6865C16.2732 17.4332 16.5299 17.1698 16.7797 16.9165C16.8743 16.822 16.9689 16.7241 17.0634 16.6295C17.7726 15.9204 17.7726 15.0018 17.0634 14.2927L16.1415 13.3708C16.0368 13.2661 15.9288 13.158 15.8275 13.05C15.6248 12.8406 15.4121 12.6245 15.1926 12.4219C14.865 12.0977 14.4733 11.9255 14.0613 11.9255C13.6494 11.9255 13.2509 12.0977 12.9132 12.4219C12.9098 12.4253 12.9098 12.4253 12.9064 12.4286L11.7583 13.5869C11.326 14.0192 11.0795 14.546 11.0255 15.1572C10.9444 16.1432 11.2349 17.0618 11.4577 17.6628C12.0048 19.1386 12.822 20.5062 14.0411 21.9718C15.5202 23.7379 17.2998 25.1326 19.3327 26.1152C20.1094 26.4833 21.1461 26.919 22.3044 26.9932C22.3753 26.9966 22.4496 27 22.5171 27C23.2972 27 23.9523 26.7197 24.4656 26.1625C24.469 26.1558 24.4757 26.1524 24.4791 26.1456C24.6547 25.9329 24.8573 25.7404 25.0701 25.5344C25.2153 25.396 25.3638 25.2508 25.5091 25.0988C25.8434 24.751 26.019 24.3457 26.019 23.9304C26.019 23.5117 25.84 23.1098 25.4989 22.7721L23.645 20.9114ZM24.8539 24.4673C24.8506 24.4673 24.8506 24.4707 24.8539 24.4673C24.7222 24.6091 24.5872 24.7375 24.442 24.8793C24.2225 25.0887 23.9996 25.3082 23.7902 25.5547C23.4491 25.9194 23.0473 26.0916 22.5205 26.0916C22.4698 26.0916 22.4158 26.0916 22.3652 26.0882C21.3622 26.0241 20.4302 25.6324 19.7312 25.298C17.8198 24.3728 16.1415 23.0591 14.7468 21.3943C13.5953 20.0064 12.8254 18.7232 12.3155 17.3454C12.0014 16.5046 11.8866 15.8494 11.9373 15.2315C11.971 14.8364 12.123 14.5088 12.4033 14.2285L13.5548 13.077C13.7203 12.9217 13.8959 12.8372 14.0681 12.8372C14.2808 12.8372 14.4531 12.9656 14.5611 13.0736C14.5645 13.077 14.5679 13.0804 14.5712 13.0838C14.7772 13.2762 14.9731 13.4755 15.1791 13.6882C15.2838 13.7963 15.3918 13.9043 15.4999 14.0158L16.4218 14.9377C16.7797 15.2956 16.7797 15.6266 16.4218 15.9845C16.3239 16.0825 16.2293 16.1804 16.1314 16.2749C15.8477 16.5653 15.5776 16.8355 15.2838 17.0989C15.277 17.1057 15.2703 17.109 15.2669 17.1158C14.9765 17.4062 15.0305 17.6899 15.0913 17.8823C15.0947 17.8925 15.098 17.9026 15.1014 17.9127C15.3412 18.4936 15.6789 19.0406 16.1922 19.6924L16.1955 19.6957C17.1276 20.8439 18.1102 21.7388 19.1942 22.4243C19.3327 22.5121 19.4745 22.583 19.6096 22.6505C19.7312 22.7113 19.846 22.7687 19.9439 22.8295C19.9574 22.8363 19.9709 22.8464 19.9844 22.8532C20.0992 22.9106 20.2073 22.9376 20.3187 22.9376C20.599 22.9376 20.7746 22.762 20.832 22.7046L21.9869 21.5497C22.1018 21.4349 22.2841 21.2964 22.4969 21.2964C22.7062 21.2964 22.8784 21.4281 22.9831 21.5429C22.9865 21.5463 22.9865 21.5463 22.9899 21.5497L24.8506 23.4103C25.1984 23.7548 25.1984 24.1094 24.8539 24.4673Z" fill="white"/>
<path d="M19.6467 14.806C20.5315 14.9546 21.3352 15.3733 21.9768 16.0149C22.6184 16.6565 23.0338 17.4602 23.1857 18.345C23.2229 18.5678 23.4154 18.7232 23.6349 18.7232C23.6619 18.7232 23.6855 18.7198 23.7125 18.7164C23.9624 18.6759 24.1279 18.4395 24.0874 18.1896C23.905 17.1192 23.3985 16.1432 22.6252 15.3699C21.8519 14.5966 20.8759 14.0901 19.8054 13.9077C19.5556 13.8672 19.3226 14.0327 19.2787 14.2792C19.2348 14.5257 19.3968 14.7654 19.6467 14.806Z" fill="white"/>
<path d="M26.9814 18.0579C26.6808 16.2952 25.8501 14.6912 24.5736 13.4147C23.2972 12.1382 21.6931 11.3075 19.9304 11.007C19.6839 10.9631 19.4509 11.1319 19.407 11.3784C19.3665 11.6283 19.5319 11.8613 19.7818 11.9052C21.3555 12.172 22.7906 12.9183 23.932 14.0563C25.0734 15.1977 25.8164 16.6329 26.0831 18.2065C26.1203 18.4294 26.3128 18.5847 26.5323 18.5847C26.5593 18.5847 26.5829 18.5814 26.6099 18.578C26.8564 18.5408 27.0253 18.3045 26.9814 18.0579Z" fill="white"/>
</g>
<defs>
<clipPath id="clip0_13944_21063">
<rect width="16" height="16" fill="white" transform="translate(11 11)"/>
</clipPath>
</defs>
</svg>
