<svg width="40" height="40" viewBox="0 0 40 40" fill="none" xmlns="http://www.w3.org/2000/svg">
<path d="M18.1325 20.7212L20.7206 18.1327C20.7714 18.082 20.8117 18.0218 20.8392 17.9554C20.8667 17.8891 20.8809 17.818 20.8809 17.7462C20.8809 17.6744 20.8667 17.6033 20.8392 17.5369C20.8117 17.4706 20.7714 17.4104 20.7206 17.3596L19.3418 15.9809C19.6252 15.4615 19.8525 14.9134 20.0196 14.3459H21.9684C22.1134 14.3459 22.2525 14.2883 22.3551 14.1857C22.4577 14.0831 22.5153 13.944 22.5153 13.799V10.139C22.5153 9.99395 22.4577 9.85485 22.3551 9.75229C22.2525 9.64974 22.1134 9.59212 21.9684 9.59212H20.024C19.8567 9.02379 19.6287 8.47511 19.344 7.95556L20.7206 6.57868C20.7714 6.52792 20.8117 6.46764 20.8392 6.40128C20.8668 6.33492 20.8809 6.26379 20.8809 6.19196C20.8809 6.12013 20.8668 6.049 20.8392 5.98264C20.8117 5.91629 20.7714 5.85601 20.7206 5.80524L18.1325 3.21681C18.0817 3.16599 18.0215 3.12568 17.9551 3.09817C17.8888 3.07067 17.8177 3.05651 17.7459 3.05651C17.6741 3.05651 17.603 3.07067 17.5367 3.09817C17.4703 3.12568 17.4101 3.16599 17.3593 3.21681L15.9825 4.59399C15.4629 4.30929 14.9142 4.08131 14.3459 3.91399V1.96899C14.3459 1.89717 14.3318 1.82603 14.3044 1.75967C14.2769 1.6933 14.2366 1.63299 14.1858 1.5822C14.135 1.53141 14.0747 1.49113 14.0084 1.46366C13.942 1.4362 13.8709 1.42208 13.799 1.42212H10.1387C10.0669 1.42208 9.99575 1.4362 9.92938 1.46366C9.86302 1.49113 9.80271 1.53141 9.75192 1.5822C9.70113 1.63299 9.66085 1.6933 9.63338 1.75967C9.60591 1.82603 9.5918 1.89717 9.59184 1.96899V3.91743C9.02442 4.08481 8.47643 4.31214 7.95715 4.59556L6.57871 3.21681C6.52795 3.16598 6.46767 3.12566 6.40131 3.09815C6.33495 3.07064 6.26383 3.05648 6.19199 3.05648C6.12016 3.05648 6.04903 3.07064 5.98268 3.09815C5.91632 3.12566 5.85604 3.16598 5.80527 3.21681L3.21684 5.80524C3.16601 5.85601 3.12569 5.91629 3.09818 5.98264C3.07067 6.049 3.05651 6.12013 3.05651 6.19196C3.05651 6.26379 3.07067 6.33492 3.09818 6.40128C3.12569 6.46764 3.16601 6.52792 3.21684 6.57868L4.59496 7.95712C4.31156 8.47652 4.08424 9.02461 3.91684 9.59212H1.96902C1.8972 9.59208 1.82606 9.60619 1.7597 9.63366C1.69333 9.66113 1.63302 9.70141 1.58223 9.7522C1.53144 9.80299 1.49116 9.8633 1.46369 9.92967C1.43623 9.99603 1.42211 10.0672 1.42215 10.139V13.799C1.42211 13.8708 1.43623 13.942 1.46369 14.0083C1.49116 14.0747 1.53144 14.135 1.58223 14.1858C1.63302 14.2366 1.69333 14.2769 1.7597 14.3043C1.82606 14.3318 1.8972 14.3459 1.96902 14.3459H3.91371C4.08111 14.9142 4.3092 15.4629 4.59402 15.9824L3.21684 17.3596C3.16602 17.4104 3.12571 17.4706 3.0982 17.5369C3.0707 17.6033 3.05654 17.6744 3.05654 17.7462C3.05654 17.818 3.0707 17.8891 3.0982 17.9554C3.12571 18.0218 3.16602 18.082 3.21684 18.1327L5.80465 20.7212C5.90729 20.8236 6.04637 20.8811 6.19137 20.8811C6.33637 20.8811 6.47545 20.8236 6.57809 20.7212L7.95496 19.344C8.47466 19.6287 9.02343 19.8568 9.59184 20.0243V21.9693C9.59184 22.1143 9.64945 22.2534 9.75201 22.356C9.85457 22.4586 9.99367 22.5162 10.1387 22.5162H13.799C13.9441 22.5162 14.0832 22.4586 14.1857 22.356C14.2883 22.2534 14.3459 22.1143 14.3459 21.9693V20.0206C14.9133 19.8532 15.4613 19.6259 15.9806 19.3424L17.3593 20.7212C17.4619 20.8237 17.6009 20.8812 17.7459 20.8812C17.8909 20.8812 18.0299 20.8237 18.1325 20.7212ZM16.4571 18.2721C16.3703 18.1851 16.2566 18.1299 16.1345 18.1155C16.0124 18.1011 15.8891 18.1283 15.7843 18.1927C15.131 18.5945 14.4179 18.8898 13.6718 19.0677C13.5524 19.0964 13.4462 19.1644 13.37 19.2607C13.2939 19.3571 13.2524 19.4762 13.2521 19.599V21.4209H10.6856V19.604C10.6854 19.4811 10.6438 19.3618 10.5676 19.2655C10.4913 19.1691 10.3848 19.1012 10.2653 19.0727C9.5193 18.8943 8.80665 18.5978 8.15434 18.1943C8.04951 18.1297 7.92595 18.1023 7.80362 18.1166C7.6813 18.1309 7.56738 18.186 7.48028 18.2731L6.19184 19.5606L4.37746 17.7456L5.66496 16.4577C5.75195 16.3707 5.80704 16.2568 5.82133 16.1345C5.83562 16.0123 5.80828 15.8888 5.74371 15.784C5.34027 15.1313 5.04392 14.4182 4.8659 13.6718C4.83746 13.5522 4.76957 13.4457 4.67319 13.3695C4.57681 13.2932 4.45755 13.2517 4.33465 13.2515H2.5159V10.6856H4.33746C4.46026 10.6854 4.57943 10.6439 4.67579 10.5677C4.77215 10.4916 4.8401 10.3853 4.86871 10.2659C5.04645 9.51993 5.34181 8.80705 5.74371 8.15399C5.80801 8.04913 5.83514 7.92568 5.82075 7.80352C5.80635 7.68136 5.75125 7.5676 5.66434 7.48056L4.37746 6.19181L6.19184 4.37743L7.48059 5.66618C7.56755 5.75312 7.68126 5.80824 7.80338 5.82264C7.9255 5.83704 8.04891 5.80988 8.15371 5.74556C8.80698 5.34385 9.51993 5.0485 10.2659 4.87056C10.3853 4.84189 10.4916 4.77393 10.5677 4.67758C10.6438 4.58123 10.6853 4.46209 10.6856 4.33931V2.51587H13.2521V4.33431C13.2523 4.45721 13.2939 4.57646 13.3701 4.67285C13.4464 4.76923 13.5529 4.83711 13.6725 4.86556C14.4188 5.04351 15.1319 5.33976 15.7846 5.74306C15.8894 5.8079 16.0129 5.8354 16.1353 5.82111C16.2576 5.80681 16.3715 5.75155 16.4584 5.66431L17.7459 4.37681L19.5606 6.19181L18.2731 7.47962C18.1861 7.56678 18.1311 7.68069 18.1168 7.80299C18.1025 7.92528 18.1298 8.04882 18.1943 8.15368C18.5978 8.80625 18.894 9.51925 19.0718 10.2656C19.1003 10.3851 19.1682 10.4916 19.2645 10.5679C19.3609 10.6441 19.4802 10.6857 19.6031 10.6859H21.4215V13.2521H19.5996C19.4768 13.2524 19.3577 13.294 19.2613 13.3701C19.1649 13.4463 19.097 13.5527 19.0684 13.6721C18.8905 14.4181 18.5952 15.1311 18.1934 15.7843C18.129 15.889 18.1018 16.0124 18.1162 16.1345C18.1306 16.2566 18.1858 16.3703 18.2728 16.4571L19.5606 17.7462L17.7459 19.5606L16.4571 18.2721Z" fill="#B7EC42"/>
<path d="M11.9688 7.23462C11.0325 7.23462 10.1172 7.51227 9.33873 8.03245C8.56022 8.55264 7.95344 9.292 7.59513 10.157C7.23682 11.0221 7.14307 11.9739 7.32574 12.8923C7.5084 13.8106 7.95928 14.6541 8.62135 15.3162C9.28342 15.9782 10.1269 16.4291 11.0453 16.6118C11.9636 16.7944 12.9154 16.7007 13.7805 16.3424C14.6455 15.9841 15.3849 15.3773 15.9051 14.5988C16.4253 13.8203 16.7029 12.905 16.7029 11.9687C16.7015 10.7136 16.2023 9.51025 15.3148 8.62275C14.4273 7.73524 13.224 7.23603 11.9688 7.23462ZM11.9688 15.6096C11.2489 15.6096 10.5451 15.3961 9.94645 14.9962C9.34782 14.5962 8.88123 14.0277 8.60569 13.3625C8.33014 12.6974 8.25801 11.9655 8.39843 11.2593C8.53884 10.5532 8.88548 9.90457 9.39453 9.39544C9.90357 8.88631 10.5522 8.53955 11.2583 8.39902C11.9644 8.25849 12.6963 8.33049 13.3615 8.60592C14.0267 8.88135 14.5953 9.34784 14.9953 9.9464C15.3954 10.545 15.609 11.2487 15.6091 11.9687C15.608 12.9338 15.2241 13.8591 14.5416 14.5415C13.8592 15.2239 12.934 15.6078 11.9688 15.609V15.6096Z" fill="#B7EC42"/>
<path d="M38.027 25.6498H36.082C35.9147 25.0815 35.6867 24.5328 35.402 24.0132L36.7789 22.6361C36.8297 22.5853 36.87 22.5251 36.8975 22.4587C36.925 22.3924 36.9392 22.3213 36.9392 22.2495C36.9392 22.1777 36.925 22.1066 36.8975 22.0403C36.87 21.9739 36.8297 21.9137 36.7789 21.8629L34.1908 19.2751C34.14 19.2243 34.0797 19.184 34.0134 19.1565C33.947 19.129 33.8759 19.1148 33.804 19.1148C33.7322 19.1148 33.6611 19.129 33.5947 19.1565C33.5284 19.184 33.4681 19.2243 33.4173 19.2751L32.0404 20.6517C31.5209 20.367 30.9724 20.1389 30.4042 19.9714V18.0264C30.4042 17.8813 30.3466 17.7422 30.244 17.6397C30.1415 17.5371 30.0024 17.4795 29.8573 17.4795H26.197C26.052 17.4795 25.9129 17.5371 25.8103 17.6397C25.7078 17.7422 25.6501 17.8813 25.6501 18.0264V19.9751C25.0826 20.1424 24.5345 20.3698 24.0151 20.6532L22.6367 19.2751C22.586 19.2243 22.5257 19.184 22.4594 19.1565C22.393 19.129 22.3219 19.1148 22.2501 19.1148C22.1783 19.1148 22.1072 19.129 22.0409 19.1565C21.9746 19.184 21.9143 19.2243 21.8636 19.2751L19.2751 21.8629C19.1727 21.9655 19.1151 22.1045 19.1151 22.2495C19.1151 22.3945 19.1727 22.5335 19.2751 22.6361L20.6542 24.0148C20.3707 24.5341 20.1434 25.0822 19.9764 25.6498H18.027C17.882 25.6498 17.7429 25.7074 17.6403 25.81C17.5377 25.9125 17.4801 26.0516 17.4801 26.1967V29.8567C17.4801 30.0017 17.5377 30.1408 17.6403 30.2434C17.7429 30.3459 17.882 30.4036 18.027 30.4036H19.972C20.1393 30.9719 20.3673 31.5206 20.652 32.0401L19.2751 33.417C19.1726 33.5196 19.1151 33.6587 19.1151 33.8037C19.1151 33.9487 19.1726 34.0878 19.2751 34.1904L21.8636 36.7789C21.9143 36.8297 21.9746 36.87 22.0409 36.8975C22.1072 36.925 22.1783 36.9392 22.2501 36.9392C22.3219 36.9392 22.393 36.925 22.4594 36.8975C22.5257 36.87 22.586 36.8297 22.6367 36.7789L24.0136 35.4039C24.5331 35.6886 25.0818 35.9166 25.6501 36.0839V38.0289C25.6501 38.1007 25.6642 38.1718 25.6917 38.2382C25.7191 38.3046 25.7594 38.3649 25.8102 38.4157C25.861 38.4664 25.9213 38.5067 25.9877 38.5342C26.054 38.5617 26.1252 38.5758 26.197 38.5757H29.857C29.9288 38.5758 30 38.5617 30.0663 38.5342C30.1327 38.5067 30.193 38.4664 30.2438 38.4157C30.2946 38.3649 30.3349 38.3046 30.3623 38.2382C30.3898 38.1718 30.4039 38.1007 30.4039 38.0289V36.0804C30.9714 35.913 31.5195 35.6856 32.0389 35.402L33.4173 36.7804C33.4681 36.8313 33.5284 36.8716 33.5947 36.8991C33.6611 36.9266 33.7322 36.9408 33.804 36.9408C33.8759 36.9408 33.947 36.9266 34.0134 36.8991C34.0797 36.8716 34.14 36.8313 34.1908 36.7804L36.7789 34.1926C36.8297 34.1419 36.87 34.0816 36.8975 34.0152C36.925 33.9489 36.9392 33.8777 36.9392 33.8059C36.9392 33.7341 36.925 33.6629 36.8975 33.5966C36.87 33.5302 36.8297 33.4699 36.7789 33.4192L35.4004 32.0404C35.6839 31.5211 35.9112 30.9732 36.0786 30.4057H38.027C38.0988 30.4058 38.17 30.3917 38.2363 30.3642C38.3027 30.3367 38.363 30.2964 38.4138 30.2457C38.4646 30.1949 38.5049 30.1346 38.5323 30.0682C38.5598 30.0018 38.5739 29.9307 38.5739 29.8589V26.1967C38.5739 26.1249 38.5598 26.0537 38.5323 25.9873C38.5049 25.921 38.4646 25.8607 38.4138 25.8099C38.363 25.7591 38.3027 25.7188 38.2363 25.6913C38.17 25.6639 38.0988 25.6498 38.027 25.6498ZM37.4801 29.3101H35.6586C35.5358 29.3103 35.4166 29.3518 35.3202 29.4279C35.2239 29.5041 35.1559 29.6104 35.1273 29.7298C34.9494 30.4758 34.654 31.1887 34.2523 31.842C34.188 31.9468 34.1609 32.0702 34.1753 32.1923C34.1897 32.3144 34.2448 32.4281 34.3317 32.5151L35.6208 33.8042L33.8061 35.6186L32.5173 34.3298C32.4303 34.243 32.3166 34.188 32.1945 34.1736C32.0724 34.1592 31.949 34.1863 31.8442 34.2504C31.1908 34.6521 30.4777 34.9474 29.7317 35.1254C29.6123 35.154 29.506 35.222 29.4298 35.3184C29.3537 35.4147 29.3122 35.5339 29.312 35.6567V37.4782H26.7439V35.6598C26.7437 35.5369 26.7021 35.4176 26.6259 35.3213C26.5496 35.2249 26.4431 35.157 26.3236 35.1286C25.5772 34.9506 24.8641 34.6544 24.2114 34.2511C24.1067 34.1863 23.9831 34.1588 23.8608 34.1731C23.7385 34.1874 23.6246 34.2426 23.5376 34.3298L22.2501 35.6173L20.4354 33.8039L21.7229 32.5161C21.8101 32.429 21.8652 32.3151 21.8795 32.1927C21.8938 32.0704 21.8664 31.9468 21.8017 31.842C21.3985 31.1893 21.1023 30.4764 20.9245 29.7301C20.8961 29.6106 20.8282 29.5041 20.7318 29.4278C20.6354 29.3515 20.5162 29.31 20.3933 29.3098H18.5739V26.7436H20.3954C20.5183 26.7433 20.6374 26.7017 20.7338 26.6255C20.8302 26.5494 20.8981 26.443 20.9267 26.3236C21.1046 25.5776 21.3999 24.8646 21.8017 24.2114C21.8661 24.1066 21.8933 23.9833 21.8789 23.8612C21.8645 23.7391 21.8093 23.6254 21.7223 23.5386L20.4354 22.2495L22.2501 20.4351L23.5389 21.7239C23.6257 21.811 23.7394 21.8662 23.8615 21.8806C23.9836 21.895 24.107 21.8678 24.2117 21.8032C24.8651 21.4015 25.5781 21.1062 26.3242 20.9282C26.4436 20.8996 26.5499 20.8316 26.626 20.7353C26.7021 20.6389 26.7436 20.5198 26.7439 20.397V18.5751H29.3104V20.3936C29.3106 20.5165 29.3522 20.6357 29.4284 20.7321C29.5047 20.8285 29.6112 20.8964 29.7308 20.9248C30.477 21.103 31.19 21.3993 31.8426 21.8026C31.9474 21.8674 32.071 21.8949 32.1934 21.8806C32.3157 21.8663 32.4297 21.8111 32.5167 21.7239L33.8042 20.4351L35.6189 22.2498L34.3311 23.5376C34.244 23.6247 34.1889 23.7385 34.1746 23.8608C34.1603 23.9831 34.1877 24.1066 34.2523 24.2114C34.6556 24.864 34.9517 25.577 35.1295 26.3232C35.1579 26.4429 35.2257 26.5494 35.3221 26.6257C35.4185 26.7021 35.5378 26.7437 35.6608 26.7439H37.4792L37.4801 29.3101Z" fill="#B7EC42"/>
<path d="M28.0272 23.293C27.0909 23.293 26.1756 23.5706 25.3971 24.0908C24.6186 24.611 24.0118 25.3503 23.6535 26.2154C23.2952 27.0804 23.2014 28.0323 23.3841 28.9506C23.5668 29.8689 24.0176 30.7124 24.6797 31.3745C25.3418 32.0366 26.1853 32.4875 27.1036 32.6701C28.0219 32.8528 28.9738 32.759 29.8388 32.4007C30.7039 32.0424 31.4432 31.4356 31.9634 30.6571C32.4836 29.8786 32.7612 28.9633 32.7612 28.027C32.7598 26.7719 32.2606 25.5686 31.3731 24.6811C30.4856 23.7936 29.2823 23.2944 28.0272 23.293ZM28.0272 31.668C27.3072 31.668 26.6034 31.4545 26.0047 31.0545C25.4061 30.6545 24.9395 30.0859 24.664 29.4207C24.3884 28.7556 24.3164 28.0236 24.4568 27.3175C24.5973 26.6113 24.944 25.9627 25.4531 25.4536C25.9622 24.9445 26.6108 24.5978 27.317 24.4573C28.0231 24.3168 28.7551 24.3889 29.4203 24.6644C30.0855 24.94 30.654 25.4066 31.054 26.0052C31.454 26.6039 31.6675 27.3077 31.6675 28.0277C31.6663 28.9927 31.2823 29.9178 30.5999 30.6002C29.9174 31.2825 28.9922 31.6663 28.0272 31.6673V31.668Z" fill="#B7EC42"/>
<path d="M23.9703 6.51574C27.1477 7.45113 29.8918 9.48043 31.7169 12.2445C31.2792 12.6407 31.0024 13.184 30.9393 13.771C30.8761 14.358 31.031 14.9478 31.3744 15.428C31.7178 15.9083 32.2258 16.2455 32.8017 16.3756C33.3776 16.5056 33.9812 16.4194 34.4977 16.1333C35.0141 15.8472 35.4074 15.3813 35.6026 14.8241C35.7978 14.2669 35.7814 13.6574 35.5564 13.1115C35.3314 12.5656 34.9136 12.1216 34.3825 11.8637C33.8514 11.6059 33.244 11.5523 32.6759 11.7132C30.7098 8.69802 27.7325 6.48309 24.2794 5.46668C24.21 5.44484 24.1371 5.43704 24.0647 5.44373C23.9923 5.45043 23.922 5.47148 23.8578 5.50567C23.7937 5.53986 23.737 5.5865 23.6911 5.64285C23.6452 5.69921 23.6109 5.76415 23.5904 5.83388C23.5699 5.90361 23.5635 5.97673 23.5716 6.04898C23.5796 6.12122 23.602 6.19112 23.6374 6.25461C23.6728 6.3181 23.7205 6.37389 23.7777 6.41873C23.8349 6.46356 23.9002 6.49654 23.9703 6.51574ZM34.6231 14.0211C34.6231 14.2789 34.5467 14.531 34.4034 14.7454C34.2601 14.9598 34.0565 15.1269 33.8183 15.2256C33.5801 15.3242 33.3179 15.3501 33.065 15.2998C32.8121 15.2494 32.5798 15.1253 32.3975 14.9429C32.2152 14.7606 32.091 14.5283 32.0407 14.2754C31.9904 14.0225 32.0162 13.7604 32.1149 13.5221C32.2135 13.2839 32.3807 13.0803 32.5951 12.937C32.8095 12.7938 33.0615 12.7173 33.3194 12.7173C33.6651 12.7176 33.9965 12.8551 34.2409 13.0995C34.4853 13.344 34.6228 13.6754 34.6231 14.0211Z" fill="#B7EC42"/>
<path d="M16.0258 33.48C12.8489 32.5442 10.1055 30.515 8.28078 27.7512C8.71849 27.355 8.99525 26.8117 9.0584 26.2247C9.12155 25.6377 8.96669 25.0479 8.62327 24.5677C8.27986 24.0874 7.77187 23.7502 7.19597 23.6201C6.62007 23.4901 6.01646 23.5763 5.5 23.8624C4.98354 24.1485 4.59028 24.6144 4.39506 25.1716C4.19984 25.7288 4.21627 26.3383 4.44125 26.8842C4.66622 27.4301 5.08403 27.8742 5.61516 28.132C6.14629 28.3898 6.75367 28.4434 7.32172 28.2825C9.28741 31.2974 12.2641 33.5124 15.7167 34.529C15.7669 34.5439 15.819 34.5513 15.8714 34.5512C16.0028 34.5509 16.1296 34.5034 16.2288 34.4173C16.328 34.3311 16.3928 34.2122 16.4115 34.0822C16.4302 33.9522 16.4015 33.8198 16.3306 33.7092C16.2597 33.5986 16.1514 33.5172 16.0255 33.48H16.0258ZM5.37297 25.9746C5.37309 25.7168 5.44966 25.4648 5.593 25.2505C5.73633 25.0362 5.93999 24.8692 6.17823 24.7706C6.41647 24.672 6.67859 24.6463 6.93145 24.6966C7.18431 24.747 7.41656 24.8712 7.59883 25.0536C7.7811 25.236 7.90521 25.4683 7.95546 25.7212C8.00572 25.974 7.97986 26.2361 7.88117 26.4743C7.78247 26.7125 7.61537 26.9161 7.40098 27.0593C7.18659 27.2026 6.93455 27.279 6.67672 27.279C6.33094 27.2787 5.99942 27.1411 5.75498 26.8966C5.51053 26.652 5.37314 26.3204 5.37297 25.9746Z" fill="#B7EC42"/>
</svg>
