<svg width="283" height="78" viewBox="0 0 283 78" fill="none" xmlns="http://www.w3.org/2000/svg">
<path d="M49.6939 39C44.9097 43.6418 40.9557 49.338 38.5609 55.1934C36.166 49.338 32.212 43.6418 27.4279 39C32.3161 34.2586 36.1744 28.8091 38.5609 22.8065C40.9473 28.8091 44.8056 34.2586 49.6939 39Z" fill="#293314"/>
<path d="M19.8631 46.8867C18.9671 44.4321 18.4792 41.7825 18.4792 39.0179C18.4792 36.2533 18.9682 33.6038 19.8641 31.1492C22.3251 24.4012 27.8628 19.133 34.7792 17.0406C35.2631 16.894 35.7539 16.7628 36.2508 16.6479C36.5936 16.5687 36.5692 16.0594 36.2174 16.0594C34.8356 16.0594 33.4837 16.1809 32.169 16.4153C24.8553 17.7161 18.7391 22.4814 15.5782 28.9535C14.092 31.9919 13.2589 35.4085 13.2589 39.0179C13.2589 42.6284 14.092 46.044 15.5771 49.0834C18.7391 55.5555 24.8553 60.3198 32.169 61.6206C33.4837 61.855 34.8356 61.9764 36.2174 61.9764C36.5692 61.9764 36.5936 61.4672 36.2509 61.3879C35.7539 61.273 35.2631 61.1419 34.7792 60.9952C27.8618 58.9039 22.3251 53.6346 19.8631 46.8867Z" fill="#293314"/>
<path d="M40.9048 61.9764C40.618 61.9764 40.6004 61.5603 40.8814 61.5023C51.3246 59.3472 59.1757 50.0994 59.1757 39.0179C59.1757 27.9364 51.3246 18.6886 40.8814 16.5335C40.6004 16.4756 40.618 16.0594 40.9048 16.0594C53.5844 16.0594 63.8633 26.3383 63.8633 39.0179C63.8633 51.6975 53.5844 61.9764 40.9048 61.9764Z" fill="#293314"/>
<path d="M91.1332 52.3631C89.3179 52.3631 87.6235 52.0242 86.0502 51.3465C84.477 50.6688 83.0973 49.7369 81.9113 48.5509C80.7253 47.3406 79.7934 45.9489 79.1157 44.3756C78.4621 42.7781 78.1354 41.0717 78.1354 39.2563C78.1354 37.441 78.4621 35.7467 79.1157 34.1734C79.7934 32.6001 80.7132 31.2204 81.875 30.0344C83.061 28.8242 84.4285 27.8923 85.9776 27.2388C87.5509 26.5611 89.2452 26.2222 91.0606 26.2222C92.8759 26.2222 94.5581 26.5611 96.1072 27.2388C97.6805 27.8923 99.0602 28.8242 100.246 30.0344C101.432 31.2204 102.352 32.6122 103.005 34.2097C103.683 35.783 104.022 37.4773 104.022 39.2926C104.022 41.108 103.683 42.8144 103.005 44.4119C102.352 45.9852 101.432 47.3648 100.246 48.5509C99.0844 49.7369 97.7168 50.6688 96.1435 51.3465C94.5944 52.0242 92.9243 52.3631 91.1332 52.3631ZM91.0606 48.3693C92.7791 48.3693 94.2798 47.9821 95.5626 47.2075C96.8697 46.433 97.8862 45.368 98.6124 44.0125C99.3627 42.6329 99.7379 41.0475 99.7379 39.2563C99.7379 37.9251 99.52 36.7149 99.0844 35.6257C98.6729 34.5123 98.0799 33.5562 97.3053 32.7574C96.5308 31.9345 95.611 31.3052 94.546 30.8695C93.5052 30.4338 92.3434 30.216 91.0606 30.216C89.3663 30.216 87.8656 30.6032 86.5585 31.3778C85.2757 32.1281 84.2591 33.181 83.5088 34.5365C82.7826 35.8919 82.4196 37.4652 82.4196 39.2563C82.4196 40.5876 82.6253 41.822 83.0368 42.9596C83.4725 44.073 84.0655 45.0291 84.8158 45.8279C85.5904 46.6266 86.5101 47.2559 87.5751 47.7158C88.6401 48.1515 89.8019 48.3693 91.0606 48.3693ZM106.997 52V34.5728H110.991V52H106.997ZM110.991 42.3061L109.611 41.6163C109.611 39.4137 110.095 37.6346 111.064 36.2792C112.056 34.8995 113.545 34.2097 115.529 34.2097C116.401 34.2097 117.187 34.367 117.889 34.6817C118.591 34.9963 119.245 35.5046 119.85 36.2066L117.236 38.8933C116.921 38.5544 116.57 38.3124 116.183 38.1671C115.796 38.0219 115.348 37.9493 114.84 37.9493C113.726 37.9493 112.806 38.3003 112.08 39.0022C111.354 39.7041 110.991 40.8054 110.991 42.3061ZM127.786 59.6244C125.946 59.6244 124.337 59.2856 122.957 58.6078C121.577 57.9543 120.464 57.0224 119.617 55.8122L122.231 53.1981C122.933 54.0695 123.731 54.723 124.627 55.1587C125.523 55.5944 126.6 55.8122 127.858 55.8122C129.432 55.8122 130.678 55.4007 131.598 54.5778C132.518 53.779 132.978 52.6777 132.978 51.2739V46.9897L133.667 43.1412L132.978 39.2563V34.5728H136.971V51.2739C136.971 52.944 136.584 54.3962 135.809 55.6307C135.035 56.8893 133.958 57.8696 132.578 58.5715C131.199 59.2735 129.601 59.6244 127.786 59.6244ZM127.604 51.6369C126.055 51.6369 124.651 51.2618 123.393 50.5114C122.158 49.7369 121.178 48.684 120.452 47.3527C119.75 46.0215 119.399 44.5329 119.399 42.887C119.399 41.2411 119.75 39.7646 120.452 38.4576C121.178 37.1505 122.158 36.1218 123.393 35.3715C124.651 34.597 126.055 34.2097 127.604 34.2097C128.984 34.2097 130.194 34.488 131.235 35.0448C132.276 35.6015 133.086 36.376 133.667 37.3684C134.248 38.3366 134.539 39.4742 134.539 40.7812V45.0654C134.539 46.3482 134.236 47.4859 133.631 48.4782C133.05 49.4706 132.239 50.2452 131.199 50.8019C130.158 51.3586 128.96 51.6369 127.604 51.6369ZM128.403 47.861C129.371 47.861 130.218 47.6553 130.944 47.2438C131.671 46.8323 132.227 46.2635 132.614 45.5374C133.026 44.7871 133.232 43.9157 133.232 42.9233C133.232 41.9309 133.026 41.0717 132.614 40.3455C132.227 39.5952 131.671 39.0143 130.944 38.6028C130.218 38.1913 129.371 37.9856 128.403 37.9856C127.435 37.9856 126.575 38.1913 125.825 38.6028C125.099 39.0143 124.53 39.5952 124.119 40.3455C123.707 41.0717 123.502 41.9309 123.502 42.9233C123.502 43.8915 123.707 44.7508 124.119 45.5011C124.53 46.2514 125.099 46.8323 125.825 47.2438C126.575 47.6553 127.435 47.861 128.403 47.861ZM147.979 52.3631C146.406 52.3631 144.978 51.9637 143.695 51.1649C142.437 50.3662 141.432 49.2891 140.682 47.9336C139.956 46.554 139.592 45.017 139.592 43.3227C139.592 41.6042 139.956 40.0672 140.682 38.7117C141.432 37.3321 142.437 36.2429 143.695 35.4441C144.978 34.6212 146.406 34.2097 147.979 34.2097C149.311 34.2097 150.485 34.5001 151.501 35.0811C152.542 35.6378 153.365 36.4123 153.97 37.4047C154.575 38.3971 154.878 39.5226 154.878 40.7812V45.7915C154.878 47.0502 154.575 48.1757 153.97 49.1681C153.389 50.1605 152.578 50.9471 151.537 51.528C150.497 52.0847 149.311 52.3631 147.979 52.3631ZM148.633 48.5872C150.109 48.5872 151.295 48.091 152.191 47.0986C153.111 46.1062 153.571 44.8355 153.571 43.2864C153.571 42.2456 153.365 41.3258 152.953 40.5271C152.542 39.7283 151.961 39.1111 151.211 38.6754C150.485 38.2155 149.625 37.9856 148.633 37.9856C147.665 37.9856 146.805 38.2155 146.055 38.6754C145.329 39.1111 144.748 39.7283 144.312 40.5271C143.901 41.3258 143.695 42.2456 143.695 43.2864C143.695 44.3272 143.901 45.2469 144.312 46.0457C144.748 46.8444 145.329 47.4738 146.055 47.9336C146.805 48.3693 147.665 48.5872 148.633 48.5872ZM153.316 52V47.3164L154.006 43.0685L153.316 38.857V34.5728H157.31V52H153.316ZM172.961 52V41.943C172.961 40.7812 172.586 39.8251 171.836 39.0748C171.11 38.3245 170.166 37.9493 169.004 37.9493C168.229 37.9493 167.539 38.1187 166.934 38.4576C166.329 38.7964 165.857 39.2684 165.518 39.8735C165.179 40.4787 165.01 41.1685 165.01 41.943L163.449 41.0717C163.449 39.7404 163.739 38.5665 164.32 37.5499C164.901 36.5091 165.7 35.6983 166.716 35.1174C167.757 34.5123 168.919 34.2097 170.202 34.2097C171.509 34.2097 172.671 34.5486 173.687 35.2263C174.704 35.8798 175.503 36.7391 176.084 37.8041C176.665 38.8449 176.955 39.9341 176.955 41.0717V52H172.961ZM161.016 52V34.5728H165.01V52H161.016ZM180.324 52V34.5728H184.317V52H180.324ZM182.32 31.3778C181.643 31.3778 181.074 31.1478 180.614 30.6879C180.178 30.2281 179.96 29.6593 179.96 28.9815C179.96 28.3038 180.178 27.735 180.614 27.2751C181.074 26.8152 181.643 26.5853 182.32 26.5853C183.022 26.5853 183.591 26.8152 184.027 27.2751C184.463 27.735 184.68 28.3038 184.68 28.9815C184.68 29.6593 184.463 30.2281 184.027 30.6879C183.591 31.1478 183.022 31.3778 182.32 31.3778ZM186.763 49.8216L196.494 36.7512H201.177L191.447 49.8216H186.763ZM186.763 52V49.8216L190.394 48.3693H200.959V52H186.763ZM187.417 38.2034V34.5728H201.177V36.7512L197.547 38.2034H187.417ZM210.739 52.3631C209.166 52.3631 207.738 51.9637 206.455 51.1649C205.196 50.3662 204.192 49.2891 203.441 47.9336C202.715 46.554 202.352 45.017 202.352 43.3227C202.352 41.6042 202.715 40.0672 203.441 38.7117C204.192 37.3321 205.196 36.2429 206.455 35.4441C207.738 34.6212 209.166 34.2097 210.739 34.2097C212.07 34.2097 213.244 34.5001 214.261 35.0811C215.301 35.6378 216.124 36.4123 216.73 37.4047C217.335 38.3971 217.637 39.5226 217.637 40.7812V45.7915C217.637 47.0502 217.335 48.1757 216.73 49.1681C216.149 50.1605 215.338 50.9471 214.297 51.528C213.256 52.0847 212.07 52.3631 210.739 52.3631ZM211.392 48.5872C212.869 48.5872 214.055 48.091 214.951 47.0986C215.87 46.1062 216.33 44.8355 216.33 43.2864C216.33 42.2456 216.124 41.3258 215.713 40.5271C215.301 39.7283 214.721 39.1111 213.97 38.6754C213.244 38.2155 212.385 37.9856 211.392 37.9856C210.424 37.9856 209.565 38.2155 208.815 38.6754C208.089 39.1111 207.508 39.7283 207.072 40.5271C206.66 41.3258 206.455 42.2456 206.455 43.2864C206.455 44.3272 206.66 45.2469 207.072 46.0457C207.508 46.8444 208.089 47.4738 208.815 47.9336C209.565 48.3693 210.424 48.5872 211.392 48.5872ZM216.076 52V47.3164L216.766 43.0685L216.076 38.857V34.5728H220.07V52H216.076ZM226.426 52V27.3114H230.42V52H226.426ZM222.251 38.2034V34.5728H234.595V38.2034H222.251ZM236.807 52V34.5728H240.801V52H236.807ZM238.804 31.3778C238.127 31.3778 237.558 31.1478 237.098 30.6879C236.662 30.2281 236.444 29.6593 236.444 28.9815C236.444 28.3038 236.662 27.735 237.098 27.2751C237.558 26.8152 238.127 26.5853 238.804 26.5853C239.506 26.5853 240.075 26.8152 240.511 27.2751C240.946 27.735 241.164 28.3038 241.164 28.9815C241.164 29.6593 240.946 30.2281 240.511 30.6879C240.075 31.1478 239.506 31.3778 238.804 31.3778ZM252.542 52.3631C250.848 52.3631 249.311 51.9637 247.931 51.1649C246.551 50.342 245.45 49.2407 244.627 47.861C243.828 46.4814 243.429 44.9444 243.429 43.2501C243.429 41.5558 243.828 40.0309 244.627 38.6754C245.45 37.32 246.551 36.2429 247.931 35.4441C249.311 34.6212 250.848 34.2097 252.542 34.2097C254.26 34.2097 255.81 34.6091 257.189 35.4078C258.569 36.2066 259.658 37.2958 260.457 38.6754C261.28 40.0309 261.691 41.5558 261.691 43.2501C261.691 44.9444 261.28 46.4814 260.457 47.861C259.658 49.2407 258.569 50.342 257.189 51.1649C255.81 51.9637 254.26 52.3631 252.542 52.3631ZM252.542 48.5146C253.534 48.5146 254.406 48.2967 255.156 47.861C255.931 47.4011 256.524 46.7718 256.935 45.9731C257.371 45.1743 257.589 44.2667 257.589 43.2501C257.589 42.2335 257.371 41.3379 256.935 40.5634C256.499 39.7888 255.906 39.1837 255.156 38.748C254.406 38.2882 253.534 38.0582 252.542 38.0582C251.574 38.0582 250.702 38.2882 249.928 38.748C249.177 39.1837 248.584 39.7888 248.149 40.5634C247.737 41.3379 247.532 42.2335 247.532 43.2501C247.532 44.2667 247.737 45.1743 248.149 45.9731C248.584 46.7718 249.177 47.4011 249.928 47.861C250.702 48.2967 251.574 48.5146 252.542 48.5146ZM276.231 52V41.943C276.231 40.7812 275.856 39.8251 275.106 39.0748C274.38 38.3245 273.436 37.9493 272.274 37.9493C271.499 37.9493 270.809 38.1187 270.204 38.4576C269.599 38.7964 269.127 39.2684 268.788 39.8735C268.449 40.4787 268.28 41.1685 268.28 41.943L266.719 41.0717C266.719 39.7404 267.009 38.5665 267.59 37.5499C268.171 36.5091 268.97 35.6983 269.986 35.1174C271.027 34.5123 272.189 34.2097 273.472 34.2097C274.779 34.2097 275.941 34.5486 276.957 35.2263C277.974 35.8798 278.773 36.7391 279.354 37.8041C279.934 38.8449 280.225 39.9341 280.225 41.0717V52H276.231ZM264.286 52V34.5728H268.28V52H264.286Z" fill="#293314"/>
</svg>
