<svg width="195" height="78" viewBox="0 0 195 78" fill="none" xmlns="http://www.w3.org/2000/svg">
<path fill-rule="evenodd" clip-rule="evenodd" d="M38.8782 62.278C26.022 62.278 15.6001 51.856 15.6001 38.9999V15.7218C24.3549 15.7218 31.9809 20.5549 35.9555 27.6984C30.5288 28.9941 26.4938 33.8753 26.4938 39.6989V40.2202C26.4938 46.746 31.7841 52.0363 38.31 52.0363H38.8313L38.8311 39.6989C38.8311 46.5126 44.3548 52.0363 51.1686 52.0363L51.1686 39.6989C51.1686 32.9008 45.6704 27.3869 38.8782 27.3616L38.8782 15.7218H39.8618C52.1747 15.7218 62.1563 25.7034 62.1563 38.0163V38.9999C62.1563 51.856 51.7343 62.278 38.8782 62.278Z" fill="#293314"/>
<path d="M77.8714 52L88.3277 26.5853H91.2322L101.616 52H97.1139L88.9812 31.4141H90.5061L82.3008 52H77.8714ZM83.0269 47.0986V43.4679H96.4967V47.0986H83.0269ZM110.214 59.6244C108.375 59.6244 106.765 59.2856 105.386 58.6078C104.006 57.9543 102.893 57.0224 102.045 55.8122L104.659 53.1981C105.361 54.0695 106.16 54.723 107.056 55.1587C107.951 55.5944 109.028 55.8122 110.287 55.8122C111.86 55.8122 113.107 55.4007 114.027 54.5778C114.946 53.779 115.406 52.6777 115.406 51.2739V46.9897L116.096 43.1412L115.406 39.2563V34.5728H119.4V51.2739C119.4 52.944 119.013 54.3962 118.238 55.6307C117.464 56.8893 116.387 57.8696 115.007 58.5715C113.627 59.2735 112.03 59.6244 110.214 59.6244ZM110.033 51.6369C108.484 51.6369 107.08 51.2618 105.821 50.5114C104.587 49.7369 103.607 48.684 102.88 47.3527C102.179 46.0215 101.828 44.5329 101.828 42.887C101.828 41.2411 102.179 39.7646 102.88 38.4576C103.607 37.1505 104.587 36.1218 105.821 35.3715C107.08 34.597 108.484 34.2097 110.033 34.2097C111.413 34.2097 112.623 34.488 113.664 35.0448C114.704 35.6015 115.515 36.376 116.096 37.3684C116.677 38.3366 116.967 39.4742 116.967 40.7812V45.0654C116.967 46.3482 116.665 47.4859 116.06 48.4782C115.479 49.4706 114.668 50.2452 113.627 50.8019C112.586 51.3586 111.388 51.6369 110.033 51.6369ZM110.832 47.861C111.8 47.861 112.647 47.6553 113.373 47.2438C114.099 46.8323 114.656 46.2635 115.043 45.5374C115.455 44.7871 115.66 43.9157 115.66 42.9233C115.66 41.9309 115.455 41.0717 115.043 40.3455C114.656 39.5952 114.099 39.0143 113.373 38.6028C112.647 38.1913 111.8 37.9856 110.832 37.9856C109.863 37.9856 109.004 38.1913 108.254 38.6028C107.528 39.0143 106.959 39.5952 106.547 40.3455C106.136 41.0717 105.93 41.9309 105.93 42.9233C105.93 43.8915 106.136 44.7508 106.547 45.5011C106.959 46.2514 107.528 46.8323 108.254 47.2438C109.004 47.6553 109.863 47.861 110.832 47.861ZM131.207 52.3631C129.464 52.3631 127.891 51.9758 126.487 51.2013C125.107 50.4025 124.006 49.3133 123.183 47.9336C122.384 46.554 121.985 45.0049 121.985 43.2864C121.985 41.5679 122.384 40.0309 123.183 38.6754C123.982 37.2958 125.059 36.2066 126.414 35.4078C127.794 34.6091 129.319 34.2097 130.989 34.2097C132.611 34.2097 134.039 34.5849 135.273 35.3352C136.532 36.0855 137.512 37.1142 138.214 38.4213C138.94 39.7283 139.303 41.2169 139.303 42.887C139.303 43.1775 139.279 43.48 139.231 43.7947C139.206 44.0851 139.158 44.4119 139.085 44.775H124.781V41.5074H137.016L135.527 42.8144C135.479 41.7494 135.273 40.8538 134.91 40.1277C134.547 39.4016 134.027 38.8449 133.349 38.4576C132.695 38.0703 131.885 37.8767 130.916 37.8767C129.9 37.8767 129.016 38.0945 128.266 38.5302C127.516 38.9659 126.935 39.5831 126.523 40.3818C126.112 41.1564 125.906 42.0883 125.906 43.1775C125.906 44.2667 126.124 45.2227 126.56 46.0457C126.995 46.8686 127.612 47.5101 128.411 47.97C129.21 48.4056 130.13 48.6235 131.171 48.6235C132.066 48.6235 132.889 48.4661 133.639 48.1515C134.414 47.8368 135.067 47.3769 135.6 46.7718L138.141 49.3496C137.294 50.342 136.266 51.0923 135.055 51.6006C133.845 52.1089 132.562 52.3631 131.207 52.3631ZM153.724 52V41.943C153.724 40.7812 153.348 39.8251 152.598 39.0748C151.872 38.3245 150.928 37.9493 149.766 37.9493C148.992 37.9493 148.302 38.1187 147.697 38.4576C147.091 38.7964 146.62 39.2684 146.281 39.8735C145.942 40.4787 145.772 41.1685 145.772 41.943L144.211 41.0717C144.211 39.7404 144.502 38.5665 145.083 37.5499C145.663 36.5091 146.462 35.6983 147.479 35.1174C148.52 34.5123 149.681 34.2097 150.964 34.2097C152.271 34.2097 153.433 34.5486 154.45 35.2263C155.466 35.8798 156.265 36.7391 156.846 37.8041C157.427 38.8449 157.717 39.9341 157.717 41.0717V52H153.724ZM141.779 52V34.5728H145.772V52H141.779ZM169.073 52.3631C167.355 52.3631 165.794 51.9637 164.39 51.1649C163.01 50.3662 161.921 49.277 161.122 47.8973C160.323 46.5177 159.924 44.9807 159.924 43.2864C159.924 41.5679 160.323 40.0309 161.122 38.6754C161.921 37.2958 163.01 36.2066 164.39 35.4078C165.794 34.6091 167.355 34.2097 169.073 34.2097C170.429 34.2097 171.687 34.4759 172.849 35.0084C174.035 35.5167 175.04 36.255 175.863 37.2232L173.249 39.8735C172.74 39.2684 172.123 38.8207 171.397 38.5302C170.695 38.2155 169.92 38.0582 169.073 38.0582C168.081 38.0582 167.197 38.2882 166.423 38.748C165.673 39.1837 165.08 39.7888 164.644 40.5634C164.232 41.3379 164.027 42.2456 164.027 43.2864C164.027 44.303 164.232 45.2106 164.644 46.0094C165.08 46.7839 165.673 47.4011 166.423 47.861C167.197 48.2967 168.081 48.5146 169.073 48.5146C169.92 48.5146 170.695 48.3693 171.397 48.0789C172.123 47.7642 172.74 47.3043 173.249 46.6992L175.863 49.3496C175.04 50.3178 174.035 51.0681 172.849 51.6006C171.687 52.1089 170.429 52.3631 169.073 52.3631ZM183.643 52.1815L176.201 34.5728H180.594L185.677 47.498H184.406L189.779 34.5728H194.209L186.112 52.1815H183.643ZM178.452 59.2613L183.861 48.1152L186.112 52.1815L182.881 59.2613H178.452Z" fill="#293314"/>
</svg>
