<svg width="238" height="78" viewBox="0 0 238 78" fill="none" xmlns="http://www.w3.org/2000/svg">
<path d="M14.844 38.9999C14.844 51.856 25.2659 62.278 38.1221 62.278L38.1221 38.9999C38.1221 26.1438 27.7001 15.7218 14.844 15.7218L14.844 38.9999Z" fill="#293314"/>
<path d="M39.1057 15.7218H38.1221L38.1221 62.278C50.9782 62.278 61.4001 51.856 61.4002 38.9999V38.0163C61.4002 25.7034 51.4186 15.7218 39.1057 15.7218Z" fill="#293314"/>
<circle cx="38.5" cy="39.3779" r="11.5" fill="#F9F9F9"/>
<path d="M79.0035 52V26.5853H81.908L92.4733 43.9762H90.5853L101.151 26.5853H104.055V52H99.8798V33.9192L100.824 34.1734L92.9816 47.0623H90.077L82.2348 34.1734L83.1787 33.9192V52H79.0035ZM115.593 52.3631C114.02 52.3631 112.592 51.9637 111.309 51.1649C110.05 50.3662 109.046 49.2891 108.296 47.9336C107.569 46.554 107.206 45.017 107.206 43.3227C107.206 41.6042 107.569 40.0672 108.296 38.7117C109.046 37.3321 110.05 36.2429 111.309 35.4441C112.592 34.6212 114.02 34.2097 115.593 34.2097C116.925 34.2097 118.098 34.5001 119.115 35.0811C120.156 35.6378 120.979 36.4123 121.584 37.4047C122.189 38.3971 122.492 39.5226 122.492 40.7812V45.7915C122.492 47.0502 122.189 48.1757 121.584 49.1681C121.003 50.1605 120.192 50.9471 119.151 51.528C118.111 52.0847 116.925 52.3631 115.593 52.3631ZM116.247 48.5872C117.723 48.5872 118.909 48.091 119.805 47.0986C120.725 46.1062 121.185 44.8355 121.185 43.2864C121.185 42.2456 120.979 41.3258 120.567 40.5271C120.156 39.7283 119.575 39.1111 118.825 38.6754C118.098 38.2155 117.239 37.9856 116.247 37.9856C115.279 37.9856 114.419 38.2155 113.669 38.6754C112.943 39.1111 112.362 39.7283 111.926 40.5271C111.515 41.3258 111.309 42.2456 111.309 43.2864C111.309 44.3272 111.515 45.2469 111.926 46.0457C112.362 46.8444 112.943 47.4738 113.669 47.9336C114.419 48.3693 115.279 48.5872 116.247 48.5872ZM120.93 52V47.3164L121.62 43.0685L120.93 38.857V34.5728H124.924V52H120.93ZM128.63 52V34.5728H132.624V52H128.63ZM132.624 42.3061L131.244 41.6163C131.244 39.4137 131.728 37.6346 132.697 36.2792C133.689 34.8995 135.178 34.2097 137.162 34.2097C138.034 34.2097 138.82 34.367 139.522 34.6817C140.224 34.9963 140.878 35.5046 141.483 36.2066L138.869 38.8933C138.554 38.5544 138.203 38.3124 137.816 38.1671C137.429 38.0219 136.981 37.9493 136.472 37.9493C135.359 37.9493 134.439 38.3003 133.713 39.0022C132.987 39.7041 132.624 40.8054 132.624 42.3061ZM153.763 52L146.392 43.1048L153.726 34.5728H158.483L150.059 44.1577L150.241 41.8704L158.846 52H153.763ZM142.689 52V25.8591H146.683V52H142.689ZM167.716 52.3631C165.974 52.3631 164.4 51.9758 162.997 51.2013C161.617 50.4025 160.516 49.3133 159.693 47.9336C158.894 46.554 158.495 45.0049 158.495 43.2864C158.495 41.5679 158.894 40.0309 159.693 38.6754C160.491 37.2958 161.568 36.2066 162.924 35.4078C164.304 34.6091 165.828 34.2097 167.499 34.2097C169.12 34.2097 170.548 34.5849 171.783 35.3352C173.041 36.0855 174.022 37.1142 174.724 38.4213C175.45 39.7283 175.813 41.2169 175.813 42.887C175.813 43.1775 175.789 43.48 175.74 43.7947C175.716 44.0851 175.668 44.4119 175.595 44.775H161.29V41.5074H173.526L172.037 42.8144C171.989 41.7494 171.783 40.8538 171.42 40.1277C171.057 39.4016 170.536 38.8449 169.859 38.4576C169.205 38.0703 168.394 37.8767 167.426 37.8767C166.409 37.8767 165.526 38.0945 164.776 38.5302C164.025 38.9659 163.444 39.5831 163.033 40.3818C162.621 41.1564 162.416 42.0883 162.416 43.1775C162.416 44.2667 162.633 45.2227 163.069 46.0457C163.505 46.8686 164.122 47.5101 164.921 47.97C165.72 48.4056 166.639 48.6235 167.68 48.6235C168.576 48.6235 169.399 48.4661 170.149 48.1515C170.924 47.8368 171.577 47.3769 172.11 46.7718L174.651 49.3496C173.804 50.342 172.775 51.0923 171.565 51.6006C170.355 52.1089 169.072 52.3631 167.716 52.3631ZM180.478 52V27.3114H184.471V52H180.478ZM176.302 38.2034V34.5728H188.647V38.2034H176.302ZM190.859 52V34.5728H194.853V52H190.859ZM192.856 31.3778C192.178 31.3778 191.609 31.1478 191.149 30.6879C190.714 30.2281 190.496 29.6593 190.496 28.9815C190.496 28.3038 190.714 27.735 191.149 27.2751C191.609 26.8152 192.178 26.5853 192.856 26.5853C193.558 26.5853 194.126 26.8152 194.562 27.2751C194.998 27.735 195.216 28.3038 195.216 28.9815C195.216 29.6593 194.998 30.2281 194.562 30.6879C194.126 31.1478 193.558 31.3778 192.856 31.3778ZM210.551 52V41.943C210.551 40.7812 210.176 39.8251 209.425 39.0748C208.699 38.3245 207.755 37.9493 206.593 37.9493C205.819 37.9493 205.129 38.1187 204.524 38.4576C203.919 38.7964 203.447 39.2684 203.108 39.8735C202.769 40.4787 202.6 41.1685 202.6 41.943L201.038 41.0717C201.038 39.7404 201.329 38.5665 201.91 37.5499C202.491 36.5091 203.289 35.6983 204.306 35.1174C205.347 34.5123 206.509 34.2097 207.791 34.2097C209.098 34.2097 210.26 34.5486 211.277 35.2263C212.293 35.8798 213.092 36.7391 213.673 37.8041C214.254 38.8449 214.544 39.9341 214.544 41.0717V52H210.551ZM198.606 52V34.5728H202.6V52H198.606ZM225.138 59.6244C223.299 59.6244 221.689 59.2856 220.309 58.6078C218.93 57.9543 217.816 57.0224 216.969 55.8122L219.583 53.1981C220.285 54.0695 221.084 54.723 221.979 55.1587C222.875 55.5944 223.952 55.8122 225.211 55.8122C226.784 55.8122 228.031 55.4007 228.95 54.5778C229.87 53.779 230.33 52.6777 230.33 51.2739V46.9897L231.02 43.1412L230.33 39.2563V34.5728H234.324V51.2739C234.324 52.944 233.936 54.3962 233.162 55.6307C232.387 56.8893 231.31 57.8696 229.931 58.5715C228.551 59.2735 226.953 59.6244 225.138 59.6244ZM224.957 51.6369C223.407 51.6369 222.004 51.2618 220.745 50.5114C219.511 49.7369 218.53 48.684 217.804 47.3527C217.102 46.0215 216.751 44.5329 216.751 42.887C216.751 41.2411 217.102 39.7646 217.804 38.4576C218.53 37.1505 219.511 36.1218 220.745 35.3715C222.004 34.597 223.407 34.2097 224.957 34.2097C226.336 34.2097 227.546 34.488 228.587 35.0448C229.628 35.6015 230.439 36.376 231.02 37.3684C231.601 38.3366 231.891 39.4742 231.891 40.7812V45.0654C231.891 46.3482 231.589 47.4859 230.983 48.4782C230.403 49.4706 229.592 50.2452 228.551 50.8019C227.51 51.3586 226.312 51.6369 224.957 51.6369ZM225.755 47.861C226.723 47.861 227.571 47.6553 228.297 47.2438C229.023 46.8323 229.58 46.2635 229.967 45.5374C230.378 44.7871 230.584 43.9157 230.584 42.9233C230.584 41.9309 230.378 41.0717 229.967 40.3455C229.58 39.5952 229.023 39.0143 228.297 38.6028C227.571 38.1913 226.723 37.9856 225.755 37.9856C224.787 37.9856 223.928 38.1913 223.178 38.6028C222.451 39.0143 221.883 39.5952 221.471 40.3455C221.06 41.0717 220.854 41.9309 220.854 42.9233C220.854 43.8915 221.06 44.7508 221.471 45.5011C221.883 46.2514 222.451 46.8323 223.178 47.2438C223.928 47.6553 224.787 47.861 225.755 47.861Z" fill="#293314"/>
</svg>
