<svg width="231" height="78" viewBox="0 0 231 78" fill="none" xmlns="http://www.w3.org/2000/svg">
<path d="M23.9358 22.8223C30.999 22.8223 36.9765 27.4437 38.9993 33.8193C41.0221 27.4437 46.9997 22.8223 54.0659 22.8223C55.8552 22.8223 57.5778 23.1187 59.1821 23.6662C54.5451 17.6051 47.2301 13.6975 38.9993 13.6975C30.7685 13.6975 23.4536 17.6081 18.8195 23.6662C20.4239 23.1187 22.1434 22.8223 23.9358 22.8223Z" fill="#293314"/>
<path d="M38.9993 64.302C47.7457 64.302 55.4579 59.8893 60.0191 53.172C58.1813 53.919 56.1706 54.3304 54.0629 54.3304C47.0027 54.3304 41.0222 49.709 38.9993 43.3334C36.9765 49.709 30.999 54.3304 23.9358 54.3304C21.828 54.3304 19.8173 53.919 17.9795 53.172C22.5407 59.8893 30.2529 64.302 38.9993 64.302Z" fill="#293314"/>
<path d="M55.1769 23.9362C55.1769 30.9995 50.5555 36.977 44.1799 38.9998C50.5555 41.0226 55.1769 47.0001 55.1769 54.0664C55.1769 55.8557 54.8805 57.5783 54.3331 59.1826C60.3941 54.5456 64.3018 47.2306 64.3018 38.9998C64.3018 30.769 60.3911 23.454 54.3331 18.82C54.8805 20.4243 55.1769 22.1439 55.1769 23.9362Z" fill="#293314"/>
<path d="M13.6972 38.9998C13.6972 47.7462 18.1099 55.4584 24.8273 60.0196C24.0802 58.1818 23.6689 56.1711 23.6689 54.0634C23.6689 47.0032 28.2903 41.0226 34.6659 38.9998C28.2903 36.977 23.6689 30.9995 23.6689 23.9363C23.6689 21.8285 24.0802 19.8178 24.8273 17.98C18.1099 22.5412 13.6972 30.2534 13.6972 38.9998Z" fill="#293314"/>
<path d="M91.4269 52.3631C89.5874 52.3631 87.881 52.0363 86.3077 51.3828C84.7586 50.7051 83.4031 49.7732 82.2413 48.5872C81.0795 47.3769 80.1839 45.9852 79.5546 44.4119C78.9253 42.8144 78.6106 41.108 78.6106 39.2926C78.6106 37.4773 78.9253 35.783 79.5546 34.2097C80.1839 32.6122 81.0795 31.2204 82.2413 30.0344C83.4031 28.8484 84.7586 27.9165 86.3077 27.2388C87.881 26.5611 89.5874 26.2222 91.4269 26.2222C93.4843 26.2222 95.2633 26.5611 96.764 27.2388C98.2647 27.9165 99.5959 28.8363 100.758 29.9981L97.9258 32.83C97.1755 32.0071 96.2557 31.3657 95.1665 30.9058C94.1015 30.4459 92.855 30.216 91.4269 30.216C90.1683 30.216 89.0186 30.4338 87.9778 30.8695C86.937 31.3052 86.0293 31.9345 85.2548 32.7574C84.5044 33.5562 83.9235 34.5123 83.5121 35.6257C83.1006 36.7391 82.8948 37.9614 82.8948 39.2926C82.8948 40.6239 83.1006 41.8462 83.5121 42.9596C83.9235 44.073 84.5044 45.0412 85.2548 45.8642C86.0293 46.6629 86.937 47.2801 87.9778 47.7158C89.0186 48.1515 90.1683 48.3693 91.4269 48.3693C92.976 48.3693 94.2831 48.1394 95.3481 47.6795C96.4373 47.1954 97.357 46.5419 98.1074 45.7189L100.939 48.5509C99.7775 49.7369 98.4099 50.6688 96.8366 51.3465C95.2633 52.0242 93.4601 52.3631 91.4269 52.3631ZM110.85 52.3631C109.156 52.3631 107.619 51.9637 106.239 51.1649C104.859 50.342 103.758 49.2407 102.935 47.861C102.136 46.4814 101.737 44.9444 101.737 43.2501C101.737 41.5558 102.136 40.0309 102.935 38.6754C103.758 37.32 104.859 36.2429 106.239 35.4441C107.619 34.6212 109.156 34.2097 110.85 34.2097C112.568 34.2097 114.118 34.6091 115.497 35.4078C116.877 36.2066 117.966 37.2958 118.765 38.6754C119.588 40.0309 119.999 41.5558 119.999 43.2501C119.999 44.9444 119.588 46.4814 118.765 47.861C117.966 49.2407 116.877 50.342 115.497 51.1649C114.118 51.9637 112.568 52.3631 110.85 52.3631ZM110.85 48.5146C111.842 48.5146 112.714 48.2967 113.464 47.861C114.239 47.4011 114.832 46.7718 115.243 45.9731C115.679 45.1743 115.897 44.2667 115.897 43.2501C115.897 42.2335 115.679 41.3379 115.243 40.5634C114.807 39.7888 114.214 39.1837 113.464 38.748C112.714 38.2882 111.842 38.0582 110.85 38.0582C109.882 38.0582 109.01 38.2882 108.236 38.748C107.485 39.1837 106.892 39.7888 106.457 40.5634C106.045 41.3379 105.84 42.2335 105.84 43.2501C105.84 44.2667 106.045 45.1743 106.457 45.9731C106.892 46.7718 107.485 47.4011 108.236 47.861C109.01 48.2967 109.882 48.5146 110.85 48.5146ZM122.594 52V34.5728H126.588V52H122.594ZM134.176 52V41.6163C134.176 40.4545 133.813 39.5589 133.087 38.9296C132.361 38.2761 131.465 37.9493 130.4 37.9493C129.674 37.9493 129.021 38.0945 128.44 38.385C127.883 38.6754 127.435 39.099 127.096 39.6557C126.757 40.1882 126.588 40.8417 126.588 41.6163L125.027 40.7449C125.027 39.4137 125.317 38.2639 125.898 37.2958C126.479 36.3276 127.266 35.5772 128.258 35.0448C129.251 34.488 130.364 34.2097 131.598 34.2097C132.833 34.2097 133.946 34.4759 134.939 35.0084C135.931 35.5409 136.718 36.2913 137.299 37.2595C137.879 38.2276 138.17 39.3895 138.17 40.7449V52H134.176ZM145.758 52V41.6163C145.758 40.4545 145.395 39.5589 144.669 38.9296C143.943 38.2761 143.047 37.9493 141.982 37.9493C141.28 37.9493 140.639 38.0945 140.058 38.385C139.477 38.6754 139.017 39.099 138.678 39.6557C138.339 40.1882 138.17 40.8417 138.17 41.6163L135.919 40.7449C136.04 39.4137 136.427 38.2639 137.081 37.2958C137.734 36.3276 138.569 35.5772 139.586 35.0448C140.627 34.488 141.764 34.2097 142.999 34.2097C144.257 34.2097 145.395 34.4759 146.412 35.0084C147.428 35.5409 148.239 36.2913 148.844 37.2595C149.449 38.2276 149.752 39.3895 149.752 40.7449V52H145.758ZM162.471 52.3631C161.14 52.3631 159.954 52.0847 158.913 51.528C157.872 50.9471 157.049 50.1605 156.444 49.1681C155.863 48.1757 155.573 47.0502 155.573 45.7915V40.7812C155.573 39.5226 155.875 38.3971 156.48 37.4047C157.085 36.4123 157.908 35.6378 158.949 35.0811C159.99 34.5001 161.164 34.2097 162.471 34.2097C164.044 34.2097 165.46 34.6212 166.719 35.4441C168.002 36.2429 169.006 37.3321 169.732 38.7117C170.483 40.0672 170.858 41.6042 170.858 43.3227C170.858 45.017 170.483 46.554 169.732 47.9336C169.006 49.2891 168.002 50.3662 166.719 51.1649C165.46 51.9637 164.044 52.3631 162.471 52.3631ZM153.14 59.2613V34.5728H157.134V39.2563L156.444 43.5042L157.134 47.7158V59.2613H153.14ZM161.817 48.5872C162.786 48.5872 163.633 48.3693 164.359 47.9336C165.109 47.4738 165.69 46.8444 166.102 46.0457C166.537 45.2469 166.755 44.3272 166.755 43.2864C166.755 42.2456 166.537 41.3258 166.102 40.5271C165.69 39.7283 165.109 39.1111 164.359 38.6754C163.633 38.2155 162.786 37.9856 161.817 37.9856C160.849 37.9856 159.99 38.2155 159.24 38.6754C158.489 39.1111 157.908 39.7283 157.497 40.5271C157.085 41.3258 156.88 42.2456 156.88 43.2864C156.88 44.3272 157.085 45.2469 157.497 46.0457C157.908 46.8444 158.489 47.4738 159.24 47.9336C159.99 48.3693 160.849 48.5872 161.817 48.5872ZM180.772 52.3631C179.199 52.3631 177.771 51.9637 176.488 51.1649C175.23 50.3662 174.225 49.2891 173.475 47.9336C172.749 46.554 172.386 45.017 172.386 43.3227C172.386 41.6042 172.749 40.0672 173.475 38.7117C174.225 37.3321 175.23 36.2429 176.488 35.4441C177.771 34.6212 179.199 34.2097 180.772 34.2097C182.104 34.2097 183.278 34.5001 184.294 35.0811C185.335 35.6378 186.158 36.4123 186.763 37.4047C187.368 38.3971 187.671 39.5226 187.671 40.7812V45.7915C187.671 47.0502 187.368 48.1757 186.763 49.1681C186.182 50.1605 185.371 50.9471 184.33 51.528C183.29 52.0847 182.104 52.3631 180.772 52.3631ZM181.426 48.5872C182.902 48.5872 184.088 48.091 184.984 47.0986C185.904 46.1062 186.364 44.8355 186.364 43.2864C186.364 42.2456 186.158 41.3258 185.746 40.5271C185.335 39.7283 184.754 39.1111 184.004 38.6754C183.278 38.2155 182.418 37.9856 181.426 37.9856C180.458 37.9856 179.599 38.2155 178.848 38.6754C178.122 39.1111 177.541 39.7283 177.105 40.5271C176.694 41.3258 176.488 42.2456 176.488 43.2864C176.488 44.3272 176.694 45.2469 177.105 46.0457C177.541 46.8444 178.122 47.4738 178.848 47.9336C179.599 48.3693 180.458 48.5872 181.426 48.5872ZM186.11 52V47.3164L186.799 43.0685L186.11 38.857V34.5728H190.103V52H186.11ZM205.754 52V41.943C205.754 40.7812 205.379 39.8251 204.629 39.0748C203.903 38.3245 202.959 37.9493 201.797 37.9493C201.022 37.9493 200.333 38.1187 199.727 38.4576C199.122 38.7964 198.65 39.2684 198.311 39.8735C197.973 40.4787 197.803 41.1685 197.803 41.943L196.242 41.0717C196.242 39.7404 196.532 38.5665 197.113 37.5499C197.694 36.5091 198.493 35.6983 199.51 35.1174C200.55 34.5123 201.712 34.2097 202.995 34.2097C204.302 34.2097 205.464 34.5486 206.48 35.2263C207.497 35.8798 208.296 36.7391 208.877 37.8041C209.458 38.8449 209.748 39.9341 209.748 41.0717V52H205.754ZM193.809 52V34.5728H197.803V52H193.809ZM218.708 52.1815L211.265 34.5728H215.658L220.741 47.498H219.47L224.844 34.5728H229.273L221.177 52.1815H218.708ZM213.516 59.2613L218.926 48.1152L221.177 52.1815L217.945 59.2613H213.516Z" fill="#293314"/>
</svg>
