<svg width="221" height="78" viewBox="0 0 221 78" fill="none" xmlns="http://www.w3.org/2000/svg">
<path d="M38.4388 62.278C25.5827 62.278 15.1608 51.856 15.1608 38.9999L15.1608 15.7218C28.0169 15.7218 38.4388 26.1438 38.4388 38.9999L38.4388 62.278ZM38.4388 62.278L38.4389 15.7218H39.4224C51.7354 15.7218 61.7169 25.7034 61.7169 38.0163V38.9999C61.7169 51.856 51.295 62.278 38.4388 62.278Z" stroke="#293314" stroke-width="5.90386"/>
<path d="M82.1886 52V48.3693H89.4862C90.7691 48.3693 91.7615 47.97 92.4634 47.1712C93.1653 46.3725 93.5163 45.4527 93.5163 44.4119C93.5163 43.71 93.359 43.0564 93.0443 42.4513C92.7296 41.8462 92.2698 41.3621 91.6646 40.9991C91.0595 40.636 90.3334 40.4545 89.4862 40.4545H82.1886V36.8238H88.869C89.9582 36.8238 90.8296 36.5454 91.4831 35.9887C92.1366 35.432 92.4634 34.6091 92.4634 33.5199C92.4634 32.4307 92.1366 31.6077 91.4831 31.051C90.8296 30.4943 89.9582 30.216 88.869 30.216H82.1886V26.5853H88.9779C90.6965 26.5853 92.1245 26.8999 93.2621 27.5293C94.3997 28.1586 95.2469 28.9694 95.8036 29.9618C96.3603 30.9542 96.6387 32.0192 96.6387 33.1568C96.6387 34.488 96.2635 35.662 95.5132 36.6786C94.787 37.6951 93.7099 38.5181 92.2819 39.1474L92.6086 37.8404C94.2061 38.4939 95.4526 39.4137 96.3482 40.5997C97.2438 41.7857 97.6916 43.1775 97.6916 44.775C97.6916 46.082 97.3648 47.2801 96.7113 48.3693C96.082 49.4585 95.138 50.342 93.8794 51.0197C92.6449 51.6732 91.12 52 89.3047 52H82.1886ZM79.3203 52V26.5853H83.4956V52H79.3203ZM100.635 52V34.5728H104.629V52H100.635ZM104.629 42.3061L103.249 41.6163C103.249 39.4137 103.733 37.6346 104.701 36.2792C105.694 34.8995 107.182 34.2097 109.167 34.2097C110.038 34.2097 110.825 34.367 111.527 34.6817C112.229 34.9963 112.882 35.5046 113.488 36.2066L110.873 38.8933C110.559 38.5544 110.208 38.3124 109.821 38.1671C109.433 38.0219 108.986 37.9493 108.477 37.9493C107.364 37.9493 106.444 38.3003 105.718 39.0022C104.992 39.7041 104.629 40.8054 104.629 42.3061ZM121.46 52.3631C119.886 52.3631 118.458 51.9637 117.176 51.1649C115.917 50.3662 114.912 49.2891 114.162 47.9336C113.436 46.554 113.073 45.017 113.073 43.3227C113.073 41.6042 113.436 40.0672 114.162 38.7117C114.912 37.3321 115.917 36.2429 117.176 35.4441C118.458 34.6212 119.886 34.2097 121.46 34.2097C122.791 34.2097 123.965 34.5001 124.981 35.0811C126.022 35.6378 126.845 36.4123 127.45 37.4047C128.055 38.3971 128.358 39.5226 128.358 40.7812V45.7915C128.358 47.0502 128.055 48.1757 127.45 49.1681C126.869 50.1605 126.059 50.9471 125.018 51.528C123.977 52.0847 122.791 52.3631 121.46 52.3631ZM122.113 48.5872C123.59 48.5872 124.776 48.091 125.671 47.0986C126.591 46.1062 127.051 44.8355 127.051 43.2864C127.051 42.2456 126.845 41.3258 126.434 40.5271C126.022 39.7283 125.441 39.1111 124.691 38.6754C123.965 38.2155 123.106 37.9856 122.113 37.9856C121.145 37.9856 120.286 38.2155 119.535 38.6754C118.809 39.1111 118.228 39.7283 117.793 40.5271C117.381 41.3258 117.176 42.2456 117.176 43.2864C117.176 44.3272 117.381 45.2469 117.793 46.0457C118.228 46.8444 118.809 47.4738 119.535 47.9336C120.286 48.3693 121.145 48.5872 122.113 48.5872ZM126.797 52V47.3164L127.487 43.0685L126.797 38.857V34.5728H130.791V52H126.797ZM146.442 52V41.943C146.442 40.7812 146.066 39.8251 145.316 39.0748C144.59 38.3245 143.646 37.9493 142.484 37.9493C141.71 37.9493 141.02 38.1187 140.415 38.4576C139.81 38.7964 139.338 39.2684 138.999 39.8735C138.66 40.4787 138.49 41.1685 138.49 41.943L136.929 41.0717C136.929 39.7404 137.22 38.5665 137.801 37.5499C138.381 36.5091 139.18 35.6983 140.197 35.1174C141.238 34.5123 142.399 34.2097 143.682 34.2097C144.989 34.2097 146.151 34.5486 147.168 35.2263C148.184 35.8798 148.983 36.7391 149.564 37.8041C150.145 38.8449 150.435 39.9341 150.435 41.0717V52H146.442ZM134.497 52V34.5728H138.49V52H134.497ZM161.065 52.3631C159.492 52.3631 158.064 51.9637 156.781 51.1649C155.522 50.3662 154.518 49.2891 153.768 47.9336C153.041 46.554 152.678 45.017 152.678 43.3227C152.678 41.6042 153.041 40.0672 153.768 38.7117C154.518 37.3321 155.522 36.2429 156.781 35.4441C158.064 34.6212 159.492 34.2097 161.065 34.2097C162.397 34.2097 163.57 34.5001 164.587 35.0811C165.628 35.6378 166.451 36.4123 167.056 37.4047C167.661 38.3971 167.964 39.5226 167.964 40.7812V45.7915C167.964 47.0502 167.661 48.1757 167.056 49.1681C166.475 50.1605 165.664 50.9471 164.623 51.528C163.583 52.0847 162.397 52.3631 161.065 52.3631ZM161.719 48.5872C162.711 48.5872 163.57 48.3693 164.297 47.9336C165.047 47.4738 165.628 46.8444 166.039 46.0457C166.451 45.2469 166.657 44.3272 166.657 43.2864C166.657 42.2456 166.451 41.3258 166.039 40.5271C165.628 39.7283 165.047 39.1111 164.297 38.6754C163.57 38.2155 162.711 37.9856 161.719 37.9856C160.751 37.9856 159.891 38.2155 159.141 38.6754C158.415 39.1111 157.834 39.7283 157.398 40.5271C156.987 41.3258 156.781 42.2456 156.781 43.2864C156.781 44.3272 156.987 45.2469 157.398 46.0457C157.834 46.8444 158.415 47.4738 159.141 47.9336C159.891 48.3693 160.751 48.5872 161.719 48.5872ZM170.396 52H166.402V47.3164L167.092 43.0685L166.402 38.857V25.8591H170.396V52ZM174.139 52V34.5728H178.132V52H174.139ZM176.135 31.3778C175.458 31.3778 174.889 31.1478 174.429 30.6879C173.993 30.2281 173.775 29.6593 173.775 28.9815C173.775 28.3038 173.993 27.735 174.429 27.2751C174.889 26.8152 175.458 26.5853 176.135 26.5853C176.837 26.5853 177.406 26.8152 177.842 27.2751C178.277 27.735 178.495 28.3038 178.495 28.9815C178.495 29.6593 178.277 30.2281 177.842 30.6879C177.406 31.1478 176.837 31.3778 176.135 31.3778ZM193.83 52V41.943C193.83 40.7812 193.455 39.8251 192.705 39.0748C191.979 38.3245 191.035 37.9493 189.873 37.9493C189.098 37.9493 188.409 38.1187 187.803 38.4576C187.198 38.7964 186.726 39.2684 186.388 39.8735C186.049 40.4787 185.879 41.1685 185.879 41.943L184.318 41.0717C184.318 39.7404 184.608 38.5665 185.189 37.5499C185.77 36.5091 186.569 35.6983 187.586 35.1174C188.626 34.5123 189.788 34.2097 191.071 34.2097C192.378 34.2097 193.54 34.5486 194.557 35.2263C195.573 35.8798 196.372 36.7391 196.953 37.8041C197.534 38.8449 197.824 39.9341 197.824 41.0717V52H193.83ZM181.885 52V34.5728H185.879V52H181.885ZM208.418 59.6244C206.578 59.6244 204.969 59.2856 203.589 58.6078C202.209 57.9543 201.096 57.0224 200.249 55.8122L202.863 53.1981C203.565 54.0695 204.364 54.723 205.259 55.1587C206.155 55.5944 207.232 55.8122 208.49 55.8122C210.064 55.8122 211.31 55.4007 212.23 54.5778C213.15 53.779 213.61 52.6777 213.61 51.2739V46.9897L214.299 43.1412L213.61 39.2563V34.5728H217.603V51.2739C217.603 52.944 217.216 54.3962 216.442 55.6307C215.667 56.8893 214.59 57.8696 213.21 58.5715C211.831 59.2735 210.233 59.6244 208.418 59.6244ZM208.236 51.6369C206.687 51.6369 205.283 51.2618 204.025 50.5114C202.79 49.7369 201.81 48.684 201.084 47.3527C200.382 46.0215 200.031 44.5329 200.031 42.887C200.031 41.2411 200.382 39.7646 201.084 38.4576C201.81 37.1505 202.79 36.1218 204.025 35.3715C205.283 34.597 206.687 34.2097 208.236 34.2097C209.616 34.2097 210.826 34.488 211.867 35.0448C212.908 35.6015 213.719 36.376 214.299 37.3684C214.88 38.3366 215.171 39.4742 215.171 40.7812V45.0654C215.171 46.3482 214.868 47.4859 214.263 48.4782C213.682 49.4706 212.871 50.2452 211.831 50.8019C210.79 51.3586 209.592 51.6369 208.236 51.6369ZM209.035 47.861C210.003 47.861 210.85 47.6553 211.576 47.2438C212.303 46.8323 212.859 46.2635 213.247 45.5374C213.658 44.7871 213.864 43.9157 213.864 42.9233C213.864 41.9309 213.658 41.0717 213.247 40.3455C212.859 39.5952 212.303 39.0143 211.576 38.6028C210.85 38.1913 210.003 37.9856 209.035 37.9856C208.067 37.9856 207.208 38.1913 206.457 38.6028C205.731 39.0143 205.162 39.5952 204.751 40.3455C204.339 41.0717 204.134 41.9309 204.134 42.9233C204.134 43.8915 204.339 44.7508 204.751 45.5011C205.162 46.2514 205.731 46.8323 206.457 47.2438C207.208 47.6553 208.067 47.861 209.035 47.861Z" fill="#293314"/>
</svg>
