<svg width="48" height="48" viewBox="0 0 48 48" fill="none" xmlns="http://www.w3.org/2000/svg">
<path d="M0 24C0 10.7452 10.7452 0 24 0C37.2548 0 48 10.7452 48 24C48 37.2548 37.2548 48 24 48C10.7452 48 0 37.2548 0 24Z" fill="#293314"/>
<path d="M33.2242 34.7999H14.7742C13.9057 34.7999 13.1992 34.0934 13.1992 33.2249V21.9749C13.1992 21.1064 13.9057 20.3999 14.7742 20.3999H33.2242C34.0927 20.3999 34.7992 21.1064 34.7992 21.9749V33.2249C34.7992 34.0934 34.0927 34.7999 33.2242 34.7999ZM14.7742 21.7499C14.65 21.7499 14.5492 21.8507 14.5492 21.9749V33.2249C14.5492 33.3491 14.65 33.4499 14.7742 33.4499H33.2242C33.3484 33.4499 33.4492 33.3491 33.4492 33.2249V21.9749C33.4492 21.8507 33.3484 21.7499 33.2242 21.7499H14.7742Z" fill="#B7EC42"/>
<path d="M33.2234 18.6H21.9734C21.1049 18.6 20.3984 17.8935 20.3984 17.025V14.775C20.3984 13.9065 21.1049 13.2 21.9734 13.2H33.2234C34.0919 13.2 34.7984 13.9065 34.7984 14.775V17.025C34.7984 17.8935 34.0919 18.6 33.2234 18.6ZM21.9734 14.55C21.8492 14.55 21.7484 14.6508 21.7484 14.775V17.025C21.7484 17.1492 21.8492 17.25 21.9734 17.25H33.2234C33.3476 17.25 33.4484 17.1492 33.4484 17.025V14.775C33.4484 14.6508 33.3476 14.55 33.2234 14.55H21.9734Z" fill="#B7EC42"/>
<path d="M15.8992 18.6C14.4106 18.6 13.1992 17.3886 13.1992 15.9C13.1992 14.4114 14.4106 13.2 15.8992 13.2C17.3878 13.2 18.5992 14.4114 18.5992 15.9C18.5992 17.3886 17.3878 18.6 15.8992 18.6ZM15.8992 14.55C15.1549 14.55 14.5492 15.1557 14.5492 15.9C14.5492 16.6443 15.1549 17.25 15.8992 17.25C16.6435 17.25 17.2492 16.6443 17.2492 15.9C17.2492 15.1557 16.6435 14.55 15.8992 14.55Z" fill="#B7EC42"/>
</svg>
