<svg width="40" height="40" viewBox="0 0 40 40" fill="none" xmlns="http://www.w3.org/2000/svg">
<g filter="url(#filter0_b_14142_38074)">
<path d="M0 20C0 8.95431 8.95431 0 20 0C31.0457 0 40 8.95431 40 20C40 31.0457 31.0457 40 20 40C8.95431 40 0 31.0457 0 20Z" fill="#0C1F25"/>
<path d="M26.6965 23.68C26.2595 23.3135 23.6965 21.6905 23.2705 21.765C23.0705 21.8005 22.9175 21.971 22.508 22.4595C22.3186 22.6999 22.1107 22.9251 21.886 23.133C21.4744 23.0336 21.076 22.8859 20.699 22.693C19.2206 21.9732 18.0263 20.7786 17.307 19.3C17.1141 18.923 16.9664 18.5246 16.867 18.113C17.0749 17.8883 17.3001 17.6804 17.5405 17.491C18.0285 17.0815 18.1995 16.9295 18.235 16.7285C18.3095 16.3015 16.685 13.7395 16.32 13.3025C16.167 13.1215 16.028 13 15.85 13C15.334 13 13 15.886 13 16.26C13 16.2905 13.05 19.295 16.8445 23.1555C20.705 26.95 23.7095 27 23.74 27C24.114 27 27 24.666 27 24.15C27 23.972 26.8785 23.833 26.6965 23.68Z" fill="white"/>
<path d="M23.5 19.5H24.5C24.4988 18.4395 24.077 17.4228 23.3271 16.6729C22.5772 15.923 21.5605 15.5012 20.5 15.5V16.5C21.2954 16.5008 22.058 16.8171 22.6204 17.3796C23.1829 17.942 23.4992 18.7046 23.5 19.5Z" fill="white"/>
<path d="M26 19.5H27C26.998 17.7767 26.3126 16.1246 25.094 14.906C23.8754 13.6874 22.2233 13.002 20.5 13V14C21.9582 14.0017 23.3561 14.5817 24.3872 15.6128C25.4183 16.6439 25.9983 18.0418 26 19.5Z" fill="white"/>
</g>
<defs>
<filter id="filter0_b_14142_38074" x="-4" y="-4" width="48" height="48" filterUnits="userSpaceOnUse" color-interpolation-filters="sRGB">
<feFlood flood-opacity="0" result="BackgroundImageFix"/>
<feGaussianBlur in="BackgroundImageFix" stdDeviation="2"/>
<feComposite in2="SourceAlpha" operator="in" result="effect1_backgroundBlur_14142_38074"/>
<feBlend mode="normal" in="SourceGraphic" in2="effect1_backgroundBlur_14142_38074" result="shape"/>
</filter>
</defs>
</svg>
