<svg width="48" height="48" viewBox="0 0 48 48" fill="none" xmlns="http://www.w3.org/2000/svg">
<path d="M0 24C0 10.7452 10.7452 0 24 0C37.2548 0 48 10.7452 48 24C48 37.2548 37.2548 48 24 48C10.7452 48 0 37.2548 0 24Z" fill="#293314"/>
<path d="M30.001 13.5V15H31.9405L24.001 22.9395L21.001 19.9395L13.7207 27.2197L14.7812 28.2803L21.001 22.0605L24.001 25.0605L33.001 16.0605V18H34.501V13.5H30.001Z" fill="#B7EC42"/>
<path d="M14.6895 29.25L13.5 30.4395V34.5H19.5V30.4395L18.3105 29.25H14.6895ZM18 33H15V31.0605L15.3105 30.75H17.6895L18 31.0605V33Z" fill="#B7EC42"/>
<path d="M22.1895 26.25L21 27.4395V34.5H27V27.4395L25.8105 26.25H22.1895ZM25.5 33H22.5V28.0605L22.8105 27.75H25.1895L25.5 28.0605V33Z" fill="#B7EC42"/>
<path d="M29.6895 21.75L28.5 22.9395V34.5H34.5V22.9395L33.3105 21.75H29.6895ZM33 33H30V23.5605L30.3105 23.25H32.6895L33 23.5605V33Z" fill="#B7EC42"/>
</svg>
