<svg width="81" height="81" viewBox="0 0 81 81" fill="none" xmlns="http://www.w3.org/2000/svg">
<path d="M0.5 40.5C0.5 18.4086 18.4086 0.5 40.5 0.5C62.5914 0.5 80.5 18.4086 80.5 40.5C80.5 62.5914 62.5914 80.5 40.5 80.5C18.4086 80.5 0.5 62.5914 0.5 40.5Z" fill="#DFFF99"/>
<path d="M56.6386 46.9321C55.6076 46.337 54.325 46.5626 53.5503 47.404L48.3211 44.3849V36.6151L53.5498 33.5963C53.8675 33.9427 54.2769 34.193 54.7419 34.3176C54.9572 34.3752 55.1758 34.4038 55.3929 34.4038C55.8261 34.4038 56.2536 34.2902 56.6386 34.0679C57.2168 33.7341 57.6304 33.195 57.8032 32.5501C57.9761 31.9052 57.8874 31.2316 57.5536 30.6533C57.2198 30.0751 56.6807 29.6614 56.0358 29.4886C55.3909 29.3158 54.7172 29.4045 54.139 29.7383C53.5608 30.0721 53.1472 30.6112 52.9744 31.2561C52.8498 31.7211 52.8618 32.2008 53.0029 32.6491L48.3211 35.3522V33.4408C48.3211 31.6496 44.7463 30.6724 41.0454 30.5847V26.1421C42.1616 25.892 42.9985 24.8937 42.9985 23.7031C42.9985 22.3246 41.877 21.2031 40.4985 21.2031C39.12 21.2031 37.9985 22.3246 37.9985 23.7031C37.9985 24.8937 38.8354 25.892 39.9516 26.1421V30.5846C36.2507 30.6723 32.6758 31.6495 32.6758 33.4407V35.3521L27.994 32.6491C28.1351 32.2008 28.1472 31.721 28.0226 31.256C27.8498 30.6111 27.4362 30.072 26.858 29.7382C26.2798 29.4044 25.6062 29.3155 24.9612 29.4884C24.3163 29.6613 23.7772 30.0748 23.4433 30.6531C22.7543 31.8468 23.1647 33.3786 24.3583 34.0677C24.7436 34.2902 25.1709 34.4037 25.604 34.4037C25.8211 34.4037 26.0397 34.3752 26.255 34.3174C26.72 34.1928 27.1294 33.9425 27.4472 33.5962L32.6758 36.6149V44.3848L27.4472 47.4035C27.1295 47.0572 26.72 46.8069 26.2551 46.6823C25.61 46.5095 24.9365 46.5982 24.3583 46.932C23.7801 47.2659 23.3665 47.8049 23.1937 48.4498C23.0208 49.0948 23.1096 49.7684 23.4433 50.3466C23.7772 50.9248 24.3163 51.3385 24.9612 51.5113C25.1766 51.5691 25.3951 51.5976 25.6122 51.5976C26.0454 51.5976 26.4729 51.484 26.858 51.2616C27.4362 50.9278 27.8498 50.3888 28.0226 49.7438C28.1472 49.2788 28.1351 48.7991 27.994 48.3508L32.6758 45.6477V47.5591C32.6758 49.3503 36.2507 50.3276 39.9516 50.4153V54.8578C38.8354 55.108 37.9985 56.1062 37.9985 57.2968C37.9985 58.6753 39.12 59.7968 40.4985 59.7968C41.877 59.7968 42.9985 58.6753 42.9985 57.2968C42.9985 56.1062 42.1616 55.108 41.0454 54.8578V50.4153C44.7463 50.3276 48.3211 49.3504 48.3211 47.5591V45.6477L53.0029 48.3508C52.8618 48.7991 52.8497 49.2788 52.9743 49.7438C53.1472 50.3887 53.5607 50.9277 54.139 51.2616C54.5242 51.484 54.9515 51.5975 55.3847 51.5975C55.6018 51.5975 55.8204 51.569 56.0357 51.5112C56.6807 51.3384 57.2197 50.9248 57.5536 50.3466C58.2427 49.1531 57.8323 47.6213 56.6386 46.9321ZM54.6859 30.6855C54.9025 30.5605 55.1429 30.4966 55.3866 30.4966C55.5086 30.4966 55.6317 30.5127 55.7528 30.5452C56.1155 30.6423 56.4186 30.875 56.6064 31.2002C56.9941 31.8716 56.7632 32.7331 56.0918 33.1208C55.7667 33.3085 55.3879 33.3585 55.025 33.2612C54.6623 33.164 54.3592 32.9313 54.1714 32.6062C53.7836 31.9347 54.0145 31.0731 54.6859 30.6855ZM26.8257 32.606C26.6379 32.9312 26.3347 33.1639 25.972 33.261C25.609 33.3583 25.2304 33.3083 24.9052 33.1206C24.2338 32.733 24.0029 31.8714 24.3906 31.2001C24.6507 30.7495 25.1243 30.4974 25.6105 30.4974C25.8489 30.4974 26.0904 30.558 26.3111 30.6855C26.6364 30.8732 26.869 31.1764 26.9661 31.5391C27.0633 31.9019 27.0135 32.2808 26.8257 32.606ZM26.9661 49.4609C26.869 49.8236 26.6364 50.1267 26.3111 50.3145C25.9858 50.5023 25.6071 50.5522 25.2443 50.455C24.8815 50.3578 24.5784 50.1252 24.3906 49.7999C24.0029 49.1286 24.2338 48.267 24.9052 47.8794C25.1218 47.7543 25.3622 47.6905 25.6059 47.6905C25.7279 47.6905 25.851 47.7066 25.9721 47.739C26.3349 47.8362 26.638 48.0688 26.8257 48.394C27.0135 48.7192 27.0633 49.098 26.9661 49.4609ZM39.0922 23.7031C39.0922 22.9277 39.7231 22.2969 40.4985 22.2969C41.2739 22.2969 41.9047 22.9277 41.9047 23.7031C41.9047 24.4785 41.2739 25.1094 40.4985 25.1094C39.7231 25.1094 39.0922 24.4785 39.0922 23.7031ZM40.4985 31.6719C44.8523 31.6719 47.2274 32.8404 47.2274 33.4407C47.2274 34.041 44.8523 35.2096 40.4985 35.2096C36.1447 35.2096 33.7696 34.0411 33.7696 33.4407C33.7696 32.8403 36.1447 31.6719 40.4985 31.6719ZM33.7696 34.9757C35.2084 35.8516 37.8642 36.3034 40.4985 36.3034C43.1328 36.3034 45.7886 35.8516 47.2274 34.9757V38.1469C47.2274 38.7473 44.8523 39.9157 40.4985 39.9157C36.1447 39.9157 33.7696 38.7472 33.7696 38.1469V34.9757ZM33.7696 39.6819C35.2084 40.5578 37.8642 41.0095 40.4985 41.0095C43.1328 41.0095 45.7886 40.5578 47.2274 39.6819V42.8531C47.2274 43.4535 44.8523 44.622 40.4985 44.622C36.1447 44.622 33.7696 43.4534 33.7696 42.8531V39.6819ZM41.9047 57.2969C41.9047 58.0723 41.2739 58.7031 40.4985 58.7031C39.7231 58.7031 39.0922 58.0723 39.0922 57.2969C39.0922 56.5215 39.7231 55.8906 40.4985 55.8906C41.2739 55.8906 41.9047 56.5215 41.9047 57.2969ZM40.4985 49.3281C36.1447 49.3281 33.7696 48.1596 33.7696 47.5592V44.388C35.2084 45.264 37.8642 45.7157 40.4985 45.7157C43.1328 45.7157 45.7886 45.264 47.2274 44.388V47.5592C47.2274 48.1596 44.8523 49.3281 40.4985 49.3281ZM56.6064 49.7998C56.4186 50.1251 56.1154 50.3577 55.7527 50.4549C55.3899 50.5522 55.011 50.5023 54.6858 50.3145C54.3606 50.1268 54.1279 49.8236 54.0308 49.4609C53.9336 49.0981 53.9836 48.7192 54.1713 48.394C54.4314 47.9434 54.9049 47.6912 55.3912 47.6912C55.6295 47.6912 55.871 47.7519 56.0918 47.8793C56.7632 48.267 56.994 49.1285 56.6064 49.7998ZM35.0216 37.3351C35.1073 37.0455 35.4113 36.8802 35.7011 36.9659C36.1478 37.098 36.6481 37.2113 37.1882 37.3023C37.486 37.3526 37.6868 37.6347 37.6364 37.9325C37.5914 38.1995 37.3599 38.3885 37.0979 38.3885C37.0676 38.3885 37.0371 38.386 37.0062 38.3808C36.4229 38.2824 35.8793 38.1592 35.3907 38.0146C35.1011 37.929 34.9358 37.6248 35.0216 37.3351ZM35.0216 42.0413C35.1073 41.7517 35.4113 41.5865 35.7011 41.6721C36.1479 41.8043 36.6482 41.9175 37.1882 42.0085C37.486 42.0588 37.6867 42.3409 37.6364 42.6387C37.5914 42.9057 37.36 43.0947 37.0979 43.0947C37.0676 43.0947 37.0371 43.0922 37.0062 43.087C36.423 42.9887 35.8794 42.8655 35.3907 42.7209C35.1011 42.6352 34.9358 42.3309 35.0216 42.0413ZM37.6364 47.3449C37.5914 47.612 37.3599 47.8009 37.0979 47.8009C37.0676 47.8009 37.0371 47.7984 37.0062 47.7932C36.4229 47.6948 35.8793 47.5716 35.3907 47.427C35.1011 47.3413 34.9357 47.0371 35.0215 46.7474C35.1072 46.4578 35.4111 46.2927 35.701 46.3782C36.1476 46.5103 36.6479 46.6236 37.188 46.7147C37.486 46.7649 37.6868 47.0471 37.6364 47.3449Z" fill="#0C1F25"/>
</svg>
