<svg width="48" height="48" viewBox="0 0 48 48" fill="none" xmlns="http://www.w3.org/2000/svg">
<path d="M0 24C0 10.7452 10.7452 0 24 0C37.2548 0 48 10.7452 48 24C48 37.2548 37.2548 48 24 48C10.7452 48 0 37.2548 0 24Z" fill="#293314"/>
<g clip-path="url(#clip0_14028_22326)">
<path d="M35.3569 17.1076C35.3569 16.8032 35.173 16.5288 34.8914 16.4131L24.286 12.0563C24.1032 11.9812 23.8982 11.9812 23.7154 12.0563L13.1101 16.4131C12.8284 16.5288 12.6445 16.8032 12.6445 17.1076V30.8924C12.6445 31.1968 12.8284 31.4712 13.1101 31.5869L23.7154 35.9437C23.8963 36.018 24.0995 36.0196 24.2851 35.9436C24.2942 35.9406 23.8926 36.1053 34.8914 31.5869C35.173 31.4712 35.3569 31.1968 35.3569 30.8924V17.1076ZM24.0007 20.7158L20.0931 19.1105L28.5379 15.4265L32.7069 17.1392L24.0007 20.7158ZM14.1463 18.291L17.5177 19.676V23.5835C17.5177 23.9981 17.8539 24.3343 18.2685 24.3343C18.6832 24.3343 19.0194 23.9981 19.0194 23.5835V20.2929L23.2499 22.0308V34.1289L14.1463 30.3891V18.291ZM24.0007 13.5626L26.6037 14.6319L18.1588 18.3159L15.2945 17.1392L24.0007 13.5626ZM24.7516 22.0308L33.8552 18.291V30.3891L24.7516 34.1289V22.0308Z" fill="#B7EC42"/>
</g>
<defs>
<clipPath id="clip0_14028_22326">
<rect width="24" height="24" fill="white" transform="translate(12 12)"/>
</clipPath>
</defs>
</svg>
