<svg width="81" height="81" viewBox="0 0 81 81" fill="none" xmlns="http://www.w3.org/2000/svg">
<path d="M0.5 40.5C0.5 18.4086 18.4086 0.5 40.5 0.5C62.5914 0.5 80.5 18.4086 80.5 40.5C80.5 62.5914 62.5914 80.5 40.5 80.5C18.4086 80.5 0.5 62.5914 0.5 40.5Z" fill="#DFFF99"/>
<path d="M36.3287 37.0256C35.3911 37.124 34.4491 37.1729 33.5064 37.172C32.3271 37.1744 31.149 37.097 29.9802 36.9402C29.9191 36.9315 29.8568 36.935 29.797 36.9504C29.7371 36.9658 29.681 36.9929 29.6317 37.0302C29.5823 37.0674 29.5409 37.114 29.5096 37.1673C29.4784 37.2206 29.458 37.2795 29.4496 37.3407C29.4413 37.4019 29.4451 37.4642 29.4608 37.5239C29.4766 37.5837 29.504 37.6397 29.5415 37.6888C29.579 37.7379 29.6259 37.7791 29.6793 37.81C29.7328 37.841 29.7919 37.861 29.8531 37.8691C31.0641 38.0316 32.2846 38.1119 33.5064 38.1095C34.4823 38.1105 35.4577 38.0599 36.4283 37.958C36.5519 37.9448 36.6652 37.8831 36.7433 37.7863C36.8214 37.6896 36.8579 37.5658 36.8448 37.4422C36.8316 37.3186 36.7699 37.2052 36.6731 37.1271C36.5764 37.049 36.4526 37.0125 36.329 37.0257L36.3287 37.0256Z" fill="#0C1F25"/>
<path d="M39.4029 35.5586C39.1505 35.5586 38.9038 35.6334 38.694 35.7736C38.4842 35.9138 38.3207 36.1131 38.2241 36.3463C38.1275 36.5794 38.1022 36.8359 38.1515 37.0835C38.2007 37.331 38.3222 37.5583 38.5007 37.7368C38.6791 37.9152 38.9065 38.0367 39.154 38.086C39.4015 38.1352 39.658 38.1099 39.8912 38.0133C40.1243 37.9168 40.3236 37.7532 40.4638 37.5434C40.604 37.3336 40.6788 37.0869 40.6788 36.8345C40.6785 36.4962 40.5439 36.1719 40.3047 35.9327C40.0655 35.6935 39.7412 35.559 39.4029 35.5586ZM39.4029 37.173C39.336 37.173 39.2705 37.1531 39.2149 37.1159C39.1592 37.0787 39.1158 37.0259 39.0902 36.964C39.0646 36.9022 39.0579 36.8342 39.071 36.7685C39.084 36.7029 39.1162 36.6426 39.1636 36.5952C39.2109 36.5479 39.2712 36.5157 39.3369 36.5026C39.4025 36.4895 39.4706 36.4962 39.5324 36.5219C39.5942 36.5475 39.6471 36.5909 39.6843 36.6465C39.7215 36.7022 39.7413 36.7676 39.7413 36.8345C39.7413 36.9243 39.7056 37.0104 39.6422 37.0739C39.5787 37.1373 39.4927 37.173 39.4029 37.1731V37.173Z" fill="#0C1F25"/>
<path d="M29.8542 44.7291C31.0651 44.8916 32.2856 44.972 33.5074 44.9696C34.4834 44.9705 35.4587 44.9199 36.4293 44.818C36.4909 44.812 36.5507 44.7938 36.6053 44.7646C36.6599 44.7353 36.7081 44.6955 36.7472 44.6475C36.7863 44.5996 36.8156 44.5443 36.8332 44.4849C36.8508 44.4256 36.8565 44.3633 36.85 44.3018C36.8434 44.2402 36.8247 44.1805 36.795 44.1262C36.7653 44.0719 36.725 44.024 36.6767 43.9854C36.6283 43.9467 36.5728 43.918 36.5133 43.9009C36.4538 43.8838 36.3915 43.8786 36.33 43.8858C35.3925 43.9842 34.4504 44.033 33.5077 44.0321C32.3284 44.0345 31.1503 43.957 29.9815 43.8002C29.9205 43.7919 29.8584 43.7956 29.7989 43.8113C29.7394 43.8269 29.6835 43.8541 29.6345 43.8914C29.5355 43.9666 29.4704 44.078 29.4535 44.2012C29.4367 44.3244 29.4695 44.4492 29.5447 44.5482C29.6199 44.6472 29.7313 44.7123 29.8545 44.7291H29.8542Z" fill="#0C1F25"/>
<path d="M39.4029 44.9708C39.6552 44.9708 39.9019 44.896 40.1118 44.7558C40.3216 44.6156 40.4851 44.4163 40.5817 44.1832C40.6783 43.95 40.7035 43.6935 40.6543 43.446C40.6051 43.1985 40.4836 42.9711 40.3051 42.7927C40.1267 42.6142 39.8993 42.4927 39.6518 42.4435C39.4043 42.3942 39.1478 42.4195 38.9146 42.5161C38.6815 42.6126 38.4822 42.7762 38.342 42.986C38.2018 43.1958 38.127 43.4425 38.127 43.6949C38.1273 44.0332 38.2619 44.3575 38.5011 44.5967C38.7403 44.8359 39.0646 44.9704 39.4029 44.9708ZM39.4029 43.3564C39.4698 43.3564 39.5353 43.3763 39.5909 43.4135C39.6466 43.4507 39.69 43.5035 39.7156 43.5654C39.7412 43.6272 39.7479 43.6953 39.7348 43.7609C39.7218 43.8266 39.6895 43.8869 39.6422 43.9342C39.5949 43.9815 39.5346 44.0138 39.4689 44.0268C39.4033 44.0399 39.3352 44.0332 39.2734 44.0076C39.2115 43.9819 39.1587 43.9386 39.1215 43.8829C39.0843 43.8273 39.0645 43.7618 39.0645 43.6949C39.0646 43.6052 39.1002 43.5191 39.1637 43.4557C39.2271 43.3922 39.3132 43.3565 39.4029 43.3564Z" fill="#0C1F25"/>
<path d="M36.3287 50.7464C35.3911 50.8449 34.4491 50.8938 33.5064 50.8928C32.3271 50.8952 31.149 50.8177 29.9802 50.6609C29.9191 50.6522 29.8568 50.6557 29.797 50.6711C29.7371 50.6865 29.681 50.7136 29.6317 50.7509C29.5823 50.7881 29.5409 50.8347 29.5096 50.888C29.4784 50.9413 29.458 51.0002 29.4496 51.0614C29.4413 51.1227 29.4451 51.1849 29.4608 51.2446C29.4766 51.3044 29.504 51.3604 29.5415 51.4095C29.579 51.4586 29.6259 51.4998 29.6793 51.5307C29.7328 51.5617 29.7919 51.5817 29.8531 51.5898C31.0641 51.7523 32.2846 51.8327 33.5064 51.8303C34.4824 51.8313 35.4577 51.7806 36.4283 51.6786C36.4899 51.6726 36.5497 51.6545 36.6043 51.6252C36.6589 51.596 36.7071 51.5562 36.7462 51.5082C36.7853 51.4602 36.8146 51.4049 36.8322 51.3456C36.8498 51.2862 36.8555 51.224 36.849 51.1624C36.8424 51.1008 36.8237 51.0412 36.794 50.9869C36.7642 50.9326 36.724 50.8847 36.6757 50.846C36.6273 50.8073 36.5718 50.7786 36.5123 50.7615C36.4528 50.7444 36.3905 50.7393 36.329 50.7464H36.3287Z" fill="#0C1F25"/>
<path d="M39.403 49.2793C39.1507 49.2793 38.904 49.3541 38.6941 49.4943C38.4842 49.6345 38.3207 49.8338 38.2241 50.067C38.1275 50.3001 38.1022 50.5567 38.1515 50.8042C38.2007 51.0518 38.3222 51.2791 38.5007 51.4576C38.6791 51.6361 38.9065 51.7576 39.1541 51.8068C39.4016 51.856 39.6582 51.8308 39.8913 51.7342C40.1245 51.6376 40.3238 51.474 40.464 51.2642C40.6042 51.0543 40.679 50.8076 40.679 50.5552C40.6786 50.2169 40.5441 49.8926 40.3049 49.6534C40.0657 49.4142 39.7413 49.2797 39.403 49.2793ZM39.403 50.8937C39.3361 50.8938 39.2706 50.8739 39.215 50.8367C39.1593 50.7996 39.1159 50.7467 39.0902 50.6848C39.0646 50.623 39.0579 50.5549 39.0709 50.4892C39.084 50.4236 39.1162 50.3632 39.1636 50.3159C39.2109 50.2685 39.2712 50.2363 39.3369 50.2232C39.4026 50.2102 39.4706 50.2169 39.5325 50.2425C39.5944 50.2681 39.6472 50.3115 39.6844 50.3672C39.7216 50.4228 39.7415 50.4883 39.7415 50.5552C39.7414 50.645 39.7057 50.731 39.6423 50.7945C39.5788 50.8579 39.4928 50.8936 39.403 50.8937Z" fill="#0C1F25"/>
<path d="M53.7193 28.4639C53.8342 28.9483 54.123 29.3737 54.5308 29.6592C54.9387 29.9447 55.4372 30.0705 55.9317 30.0126C56.4262 29.9548 56.8822 29.7174 57.2132 29.3454C57.5441 28.9735 57.727 28.493 57.727 27.9951C57.727 27.4973 57.5441 27.0167 57.2132 26.6448C56.8822 26.2729 56.4262 26.0355 55.9317 25.9776C55.4372 25.9198 54.9387 26.0456 54.5308 26.3311C54.123 26.6166 53.8342 27.042 53.7193 27.5264H47.5703C47.446 27.5264 47.3268 27.5758 47.2389 27.6637C47.1509 27.7516 47.1016 27.8708 47.1016 27.9951V40.0264H43.7422V30.8961C43.7422 29.7398 42.6166 28.6959 40.5727 27.9561C38.6784 27.2706 36.1693 26.893 33.5078 26.893C30.8463 26.893 28.3373 27.2706 26.443 27.9561C24.3991 28.6959 23.2734 29.74 23.2734 30.8961V51.0318C23.2734 52.1884 24.3989 53.2326 26.4426 53.9722C28.3365 54.6574 30.8456 55.0347 33.5078 55.0347C36.17 55.0347 38.6791 54.6572 40.573 53.9722C42.6167 53.2326 43.7422 52.1884 43.7422 51.0318V40.9639H47.1016V52.9951C47.1016 53.1194 47.1509 53.2387 47.2389 53.3266C47.3268 53.4145 47.446 53.4639 47.5703 53.4639H53.7193C53.8342 53.9483 54.123 54.3737 54.5308 54.6592C54.9387 54.9447 55.4372 55.0705 55.9317 55.0126C56.4262 54.9548 56.8822 54.7174 57.2132 54.3454C57.5441 53.9735 57.727 53.493 57.727 52.9951C57.727 52.4973 57.5441 52.0167 57.2132 51.6448C56.8822 51.2729 56.4262 51.0355 55.9317 50.9776C55.4372 50.9198 54.9387 51.0456 54.5308 51.3311C54.123 51.6166 53.8342 52.042 53.7193 52.5264H48.0391V40.9639H53.7193C53.8342 41.4483 54.123 41.8737 54.5308 42.1592C54.9387 42.4447 55.4372 42.5705 55.9317 42.5126C56.4262 42.4548 56.8822 42.2174 57.2132 41.8454C57.5441 41.4735 57.727 40.993 57.727 40.4951C57.727 39.9973 57.5441 39.5167 57.2132 39.1448C56.8822 38.7729 56.4262 38.5355 55.9317 38.4776C55.4372 38.4198 54.9387 38.5456 54.5308 38.8311C54.123 39.1166 53.8342 39.542 53.7193 40.0264H48.0391V28.4639H53.7193ZM55.6953 26.9014C55.9116 26.9014 56.1231 26.9655 56.303 27.0857C56.4828 27.2059 56.623 27.3767 56.7058 27.5766C56.7886 27.7764 56.8102 27.9963 56.768 28.2085C56.7258 28.4207 56.6217 28.6156 56.4687 28.7685C56.3157 28.9215 56.1209 29.0257 55.9087 29.0679C55.6965 29.1101 55.4766 29.0884 55.2768 29.0056C55.0769 28.9228 54.9061 28.7826 54.7859 28.6028C54.6657 28.4229 54.6016 28.2114 54.6016 27.9951C54.6019 27.7051 54.7172 27.4271 54.9223 27.2221C55.1273 27.017 55.4053 26.9017 55.6953 26.9014ZM42.8047 37.5925C42.8047 39.0424 38.9866 40.6579 33.5078 40.6579C28.029 40.6579 24.2109 39.0424 24.2109 37.5925V32.6278C24.7433 33.0832 25.494 33.4924 26.443 33.8359C28.3373 34.5214 30.8463 34.899 33.5078 34.899C36.1693 34.899 38.6784 34.5214 40.5727 33.8359C41.5216 33.4922 42.2723 33.0832 42.8047 32.6278V37.5925ZM24.2109 44.1493V39.3248C24.7432 39.7803 25.4938 40.1894 26.4426 40.5328C28.3365 41.218 30.8456 41.5953 33.5078 41.5953C36.17 41.5953 38.6791 41.2179 40.573 40.5328C41.5219 40.189 42.2724 39.7803 42.8047 39.3248V44.2889C42.8047 45.7388 38.9866 47.3543 33.5078 47.3543C28.029 47.3543 24.2109 45.7388 24.2109 44.2889V44.1493ZM33.5078 27.8305C38.9866 27.8305 42.8047 29.4461 42.8047 30.8961C42.8047 32.346 38.9866 33.9615 33.5078 33.9615C28.029 33.9615 24.2109 32.346 24.2109 30.8961C24.2109 29.4461 28.029 27.8305 33.5078 27.8305ZM33.5078 54.0973C28.029 54.0973 24.2109 52.4818 24.2109 51.0318V46.0213C24.7432 46.4768 25.4938 46.8858 26.4426 47.2292C28.3365 47.9145 30.8456 48.2917 33.5078 48.2917C36.17 48.2917 38.6791 47.9143 40.573 47.2292C41.5219 46.8858 42.2724 46.4768 42.8047 46.0213V51.0318C42.8047 52.4818 38.9866 54.0973 33.5078 54.0973ZM55.6953 51.9014C55.9116 51.9014 56.1231 51.9655 56.303 52.0857C56.4828 52.2059 56.623 52.3767 56.7058 52.5766C56.7886 52.7764 56.8102 52.9963 56.768 53.2085C56.7258 53.4207 56.6217 53.6156 56.4687 53.7685C56.3157 53.9215 56.1209 54.0257 55.9087 54.0679C55.6965 54.1101 55.4766 54.0884 55.2768 54.0056C55.0769 53.9228 54.9061 53.7826 54.7859 53.6028C54.6657 53.4229 54.6016 53.2114 54.6016 52.9951C54.6019 52.7051 54.7172 52.4271 54.9223 52.2221C55.1273 52.017 55.4053 51.9017 55.6953 51.9014ZM55.6953 39.4014C55.9116 39.4014 56.1231 39.4655 56.303 39.5857C56.4828 39.7059 56.623 39.8767 56.7058 40.0766C56.7886 40.2764 56.8102 40.4963 56.768 40.7085C56.7258 40.9207 56.6217 41.1156 56.4687 41.2685C56.3157 41.4215 56.1209 41.5257 55.9087 41.5679C55.6965 41.6101 55.4766 41.5884 55.2768 41.5056C55.0769 41.4228 54.9061 41.2826 54.7859 41.1028C54.6657 40.9229 54.6016 40.7114 54.6016 40.4951C54.6019 40.2051 54.7172 39.9271 54.9223 39.7221C55.1273 39.517 55.4053 39.4017 55.6953 39.4014Z" fill="#0C1F25"/>
</svg>
