<svg width="48" height="48" viewBox="0 0 48 48" fill="none" xmlns="http://www.w3.org/2000/svg">
<path d="M0 24C0 10.7452 10.7452 0 24 0C37.2548 0 48 10.7452 48 24C48 37.2548 37.2548 48 24 48C10.7452 48 0 37.2548 0 24Z" fill="#293314"/>
<g clip-path="url(#clip0_14028_22318)">
<path d="M34.9711 12.5602C34.2765 11.8655 33.1789 11.8102 32.418 12.4318L25.7026 17.9173H14.3459C13.3108 17.9173 12.4688 18.7591 12.4688 19.7939V31.1078C12.4688 32.1426 13.3108 32.9845 14.3459 32.9845H19.6808V34.5938H18.4983C18.11 34.5938 17.7952 34.9086 17.7952 35.2969C17.7952 35.6852 18.11 36 18.4983 36H26.0217C26.41 36 26.7248 35.6852 26.7248 35.2969C26.7248 34.9086 26.41 34.5938 26.0217 34.5938H24.8393V32.9845H30.1741C31.2092 32.9845 32.0513 32.1426 32.0513 31.1078V18.8487L35.1001 15.1125C35.721 14.3518 35.6655 13.2545 34.9711 12.5602ZM25.2497 20.7313C25.2713 20.3076 25.4643 19.9267 25.7941 19.6582L26.9639 18.7026L28.8316 20.5703L27.8738 21.744C27.6056 22.0718 27.2249 22.2641 26.8019 22.2851C26.3784 22.3065 25.9808 22.153 25.6813 21.8535C25.3813 21.5535 25.228 21.1549 25.2497 20.7313ZM24.6851 25.2676C24.3736 25.5791 23.8546 25.7225 23.143 25.694C22.6036 25.6723 22.1416 25.7102 21.7502 25.7808C21.8207 25.3894 21.8586 24.9271 21.8369 24.388C21.8083 23.6762 21.9518 23.1574 22.2634 22.8459C22.5868 22.5225 23.0168 22.3443 23.4742 22.3443C23.9317 22.3443 24.3616 22.5224 24.6851 22.8459C25.3527 23.5135 25.3527 24.5999 24.6851 25.2676ZM23.4331 34.5939H21.0869V32.9845H23.4331V34.5939ZM30.6452 31.1078C30.6452 31.3673 30.4339 31.5783 30.1741 31.5783H14.3459C14.0862 31.5783 13.8749 31.3673 13.8749 31.1078V30.508H30.6452V31.1078ZM30.6452 29.1019H13.8749V19.7939C13.8749 19.5345 14.0862 19.3234 14.3459 19.3234H24.2534C24.0128 19.725 23.8697 20.1832 23.8454 20.6596C23.8402 20.7604 23.8405 20.8609 23.8459 20.9608C23.7234 20.9464 23.5995 20.9381 23.4743 20.9381C22.6413 20.9381 21.8581 21.2625 21.2691 21.8515C20.6686 22.452 20.387 23.3244 20.432 24.4444C20.4919 25.9352 19.9977 26.5336 19.9591 26.5778C19.696 26.8532 19.6998 27.2897 19.9705 27.5604C20.1078 27.6977 20.2877 27.7664 20.4677 27.7664C20.6425 27.7664 20.8174 27.7016 20.9531 27.5719C20.9971 27.5336 21.5956 27.0392 23.0866 27.099C24.2069 27.1441 25.079 26.8624 25.6795 26.2619C26.3811 25.5602 26.6769 24.6048 26.5689 23.6883C26.622 23.6913 26.6753 23.6932 26.7288 23.6932C26.7765 23.6932 26.8243 23.692 26.8721 23.6896C27.685 23.649 28.4469 23.2644 28.9628 22.6337L30.6453 20.5719V29.1019H30.6452ZM20.9648 27.5605C20.9648 27.5605 20.9613 27.5644 20.9539 27.5712C20.9575 27.5677 20.9611 27.5641 20.9648 27.5605ZM19.9705 26.5662C19.9669 26.5698 19.9634 26.5734 19.9598 26.577C19.9666 26.5696 19.9705 26.5662 19.9705 26.5662ZM34.0106 14.2236L29.7251 19.4753L28.0583 17.8086L33.3075 13.5208C33.4002 13.445 33.5121 13.4076 33.6236 13.4076C33.7518 13.4076 33.8794 13.4571 33.9768 13.5545C34.1589 13.7365 34.1734 14.0242 34.0106 14.2236Z" fill="#B7EC42"/>
</g>
<defs>
<clipPath id="clip0_14028_22318">
<rect width="24" height="24" fill="white" transform="translate(12 12)"/>
</clipPath>
</defs>
</svg>
