<svg width="52" height="52" viewBox="0 0 52 52" fill="none" xmlns="http://www.w3.org/2000/svg">
<path d="M0 26C0 11.6406 11.6406 0 26 0C40.3594 0 52 11.6406 52 26C52 40.3594 40.3594 52 26 52C11.6406 52 0 40.3594 0 26Z" fill="#101828"/>
<g clip-path="url(#clip0_14042_26686)">
<path d="M26.8758 21.6411L39.0669 17.1252C38.8852 16.9785 38.6705 16.8643 38.4392 16.7828L27.4539 12.7234C26.5124 12.3811 25.4882 12.3811 24.5466 12.7234L13.5613 16.7828C13.3301 16.8643 13.1318 16.9948 12.9336 17.1252L25.1247 21.6411C25.6864 21.853 26.2976 21.853 26.8593 21.6411H26.8758Z" fill="white"/>
<path d="M26.9336 23.3171V39.5333C27.6359 39.3874 26.9336 39.5658 38.4159 35.3171C39.3633 34.9604 40.0003 34.0522 40.0003 33.0468V19.0685C40.0003 18.8901 39.9513 18.7117 39.9186 18.5333L27.5543 23.1387C27.3583 23.2198 27.1459 23.2685 26.9336 23.3009V23.3171Z" fill="#CDD5DF"/>
<path d="M13.5843 35.3139C25.0667 39.5658 24.3643 39.3873 25.0667 39.5333V23.3046C24.8543 23.2559 24.6583 23.2072 24.446 23.1423L12.0817 18.5333C12.049 18.7118 12 18.8741 12 19.0689V33.0418C12 34.048 12.637 34.973 13.5843 35.3139Z" fill="#F3FF3A"/>
</g>
<defs>
<clipPath id="clip0_14042_26686">
<rect width="28" height="28" fill="white" transform="translate(12 12)"/>
</clipPath>
</defs>
</svg>
