<svg width="80" height="80" viewBox="0 0 80 80" fill="none" xmlns="http://www.w3.org/2000/svg">
<g clip-path="url(#clip0_14027_22228)">
<path d="M79.9993 54.1406C79.9993 44.2133 74.3041 35.3534 65.7744 31.0437C65.5095 50.0781 50.0774 65.5103 31.043 65.7751C35.3527 74.3048 44.2125 80 54.1399 80C58.7944 80 63.3208 78.7604 67.2979 76.405L79.8864 79.8871L76.4043 67.2986C78.7596 63.3215 79.9993 58.7952 79.9993 54.1406Z" fill="white"/>
<circle cx="30.5" cy="30.5" r="30.5" fill="#121926"/>
<path d="M61.0938 30.5469C61.0938 13.703 47.3908 0 30.5469 0C13.703 0 0 13.703 0 30.5469C0 36.0364 1.46118 41.3812 4.23584 46.0736L0.112305 60.9808L15.0201 56.8579C19.7125 59.6326 25.0574 61.0938 30.5469 61.0938C47.3908 61.0938 61.0938 47.3908 61.0938 30.5469ZM25.8594 23.4375H21.1719C21.1719 18.2678 25.3772 14.0625 30.5469 14.0625C35.7166 14.0625 39.9219 18.2678 39.9219 23.4375C39.9219 26.0614 38.811 28.5834 36.8732 30.3558L32.8906 34.0009V37.6563H28.2031V31.9366L33.7085 26.8976C34.6924 25.9973 35.2344 24.7687 35.2344 23.4375C35.2344 20.8527 33.1317 18.75 30.5469 18.75C27.962 18.75 25.8594 20.8527 25.8594 23.4375ZM28.2031 42.3438H32.8906V47.0313H28.2031V42.3438Z" fill="white"/>
</g>
<defs>
<clipPath id="clip0_14027_22228">
<rect width="80" height="80" fill="white"/>
</clipPath>
</defs>
</svg>
