<svg width="171" height="171" viewBox="0 0 171 171" fill="none" xmlns="http://www.w3.org/2000/svg">
<g clip-path="url(#clip0_13883_13403)">
<path d="M96.7452 7.51048C96.711 6.74722 96.3907 6.13316 95.7841 5.6683C95.1775 5.20344 94.4112 4.9371 93.4853 4.86926C92.8082 4.81966 92.2078 4.88578 91.684 5.06763C91.1651 5.24983 90.7498 5.52221 90.4379 5.88475C90.1311 6.24765 89.9597 6.67304 89.924 7.1609C89.8941 7.56912 89.9655 7.9272 90.1381 8.23514C90.3161 8.53847 90.5523 8.79852 90.8467 9.01528C91.1415 9.22707 91.4536 9.40759 91.783 9.55685C92.1128 9.70112 92.4168 9.82099 92.6951 9.91646L94.2177 10.4484C94.6083 10.5821 95.0408 10.759 95.5151 10.9789C95.9945 11.1992 96.4465 11.4851 96.8712 11.8365C97.3013 12.1833 97.6451 12.6139 97.9027 13.1283C98.1603 13.6427 98.2629 14.2583 98.2104 14.9751C98.1498 15.8015 97.8786 16.5324 97.3966 17.1678C96.9196 17.8035 96.2535 18.2877 95.3983 18.6205C94.548 18.9536 93.5355 19.0771 92.3606 18.991C91.2654 18.9108 90.33 18.6646 89.5544 18.2524C88.7838 17.8406 88.1926 17.3018 87.7809 16.636C87.3742 15.9706 87.1716 15.2175 87.1732 14.3768L89.0848 14.5168C89.0923 15.0979 89.2514 15.5901 89.5622 15.9932C89.8784 16.3918 90.2911 16.7023 90.8003 16.9248C91.3149 17.1426 91.8758 17.2738 92.4832 17.3183C93.1901 17.3701 93.8332 17.3021 94.4125 17.1143C94.9922 16.9215 95.4615 16.6306 95.8203 16.2415C96.1795 15.8474 96.3795 15.3715 96.4204 14.814C96.4576 14.3062 96.346 13.8826 96.0855 13.5432C95.8251 13.2038 95.4707 12.9176 95.0223 12.6845C94.5739 12.4515 94.0864 12.2406 93.5597 12.0519L91.7173 11.3763C90.5477 10.9453 89.6377 10.3857 88.9874 9.69739C88.3372 9.00911 88.0498 8.14972 88.1253 7.11922C88.188 6.26296 88.4742 5.53318 88.9839 4.92988C89.4989 4.32196 90.1626 3.87009 90.9751 3.57426C91.7929 3.27381 92.6896 3.15933 93.6654 3.23081C94.6511 3.30302 95.5143 3.54394 96.255 3.95356C96.9962 4.3582 97.5685 4.88061 97.9721 5.52078C98.3806 6.16132 98.569 6.86832 98.5374 7.64177L96.7452 7.51048Z" fill="white"/>
<path d="M106.597 6.40637L107.092 4.8415L118.017 8.29169L117.523 9.85656L112.942 8.41L108.836 21.4126L107.072 20.8556L111.178 7.85293L106.597 6.40637Z" fill="white"/>
<path d="M116.831 25.8091L115.157 24.8155L127.825 14.5027L129.474 15.4811L126.489 31.5414L124.815 30.5478L127.463 17.1086L127.36 17.0475L116.831 25.8091ZM120.506 21.025L127.254 25.0299L126.413 26.4464L119.666 22.4415L120.506 21.025Z" fill="white"/>
<path d="M131.151 35.7508L142.056 24.9705L145.698 28.6553C146.541 29.5073 147.086 30.3505 147.336 31.1849C147.589 32.0158 147.593 32.8118 147.348 33.5728C147.104 34.3338 146.66 35.0319 146.018 35.667C145.375 36.3022 144.676 36.7341 143.919 36.9627C143.163 37.1913 142.374 37.1744 141.553 36.912C140.735 36.6461 139.909 36.0907 139.074 35.2458L136.126 32.264L137.319 31.0849L140.225 34.0241C140.8 34.6063 141.349 34.9907 141.87 35.1772C142.395 35.3673 142.892 35.3878 143.363 35.2388C143.84 35.0897 144.297 34.7994 144.734 34.3678C145.17 33.9362 145.471 33.4773 145.636 32.9911C145.801 32.505 145.796 31.9949 145.619 31.4609C145.445 30.9234 145.067 30.36 144.485 29.7707L142.19 27.4491L132.456 37.0714L131.151 35.7508ZM141.124 36.0412L138.878 43.5676L137.362 42.0341L139.65 34.5503L141.124 36.0412Z" fill="white"/>
<path d="M153.408 40.7362L154.825 39.8962L160.69 49.7867L159.273 50.6268L156.814 46.48L145.043 53.4603L144.096 51.8634L155.867 44.8831L153.408 40.7362Z" fill="white"/>
<path d="M166.829 67.3639L167.17 69.4691L160.764 74.8247L160.793 75.0026L168.559 78.0676L168.9 80.1728L159.088 76.1299L152.832 77.141L152.535 75.3027L158.791 74.2916L166.829 67.3639Z" fill="white"/>
<path d="M160.108 100.491C158.491 100.346 157.12 99.928 155.994 99.2379C154.869 98.5479 154.033 97.665 153.485 96.5892C152.938 95.5134 152.723 94.3216 152.841 93.0138C152.959 91.706 153.383 90.5717 154.113 89.6109C154.844 88.6501 155.824 87.9307 157.055 87.4527C158.286 86.9747 159.71 86.8085 161.327 86.9541C162.944 87.0996 164.315 87.5174 165.441 88.2075C166.566 88.8975 167.403 89.7804 167.95 90.8562C168.497 91.932 168.712 93.1238 168.594 94.4316C168.477 95.7394 168.053 96.8737 167.322 97.8345C166.591 98.7953 165.611 99.5147 164.38 99.9927C163.15 100.471 161.726 100.637 160.108 100.491ZM160.27 98.6943C161.598 98.8138 162.739 98.6926 163.692 98.3305C164.645 97.9735 165.39 97.4392 165.927 96.7277C166.464 96.0212 166.774 95.2037 166.857 94.2753C166.941 93.3468 166.782 92.4846 166.381 91.6887C165.979 90.8977 165.341 90.239 164.468 89.7125C163.594 89.191 162.493 88.8706 161.165 88.7511C159.837 88.6316 158.697 88.7503 157.744 89.1074C156.79 89.4694 156.045 90.0037 155.509 90.7102C154.972 91.4217 154.661 92.2417 154.578 93.1701C154.494 94.0986 154.654 94.9583 155.055 95.7492C155.457 96.5452 156.094 97.2039 156.968 97.7254C157.842 98.2519 158.942 98.5748 160.27 98.6943Z" fill="white"/>
<path d="M160.939 121.241L160.252 122.968L150.81 119.212C149.835 118.824 149.056 118.248 148.473 117.484C147.893 116.726 147.547 115.844 147.437 114.837C147.331 113.833 147.501 112.771 147.946 111.652C148.391 110.533 148.997 109.645 149.764 108.988C150.536 108.333 151.394 107.926 152.338 107.77C153.285 107.62 154.246 107.738 155.22 108.126L164.663 111.883L163.976 113.61L154.673 109.909C153.976 109.632 153.296 109.538 152.631 109.628C151.97 109.721 151.372 109.988 150.835 110.431C150.302 110.88 149.877 111.501 149.561 112.295C149.246 113.089 149.127 113.832 149.207 114.525C149.29 115.22 149.542 115.825 149.96 116.341C150.381 116.864 150.94 117.263 151.636 117.54L160.939 121.241Z" fill="white"/>
<path d="M142.232 123.096L154.5 132.297L151.391 136.442C150.672 137.4 149.918 138.064 149.13 138.433C148.345 138.806 147.558 138.927 146.77 138.797C145.981 138.667 145.225 138.331 144.503 137.789C143.78 137.247 143.25 136.619 142.912 135.904C142.575 135.189 142.476 134.406 142.614 133.556C142.757 132.708 143.185 131.809 143.898 130.859L146.413 127.505L147.755 128.511L145.275 131.817C144.784 132.472 144.485 133.071 144.377 133.614C144.266 134.161 144.319 134.657 144.536 135.1C144.753 135.55 145.108 135.959 145.599 136.328C146.09 136.696 146.588 136.926 147.093 137.018C147.598 137.11 148.102 137.029 148.604 136.776C149.11 136.525 149.612 136.068 150.109 135.405L152.068 132.794L141.118 124.582L142.232 123.096ZM143.412 133.003L135.638 131.889L136.931 130.164L144.67 131.326L143.412 133.003Z" fill="white"/>
<path d="M126.663 158.031L125.084 159.015L119.275 149.698C118.756 148.866 118.469 148.064 118.412 147.293C118.355 146.521 118.51 145.811 118.878 145.163C119.246 144.515 119.808 143.956 120.563 143.485C121.276 143.041 121.991 142.775 122.708 142.687C123.428 142.603 124.098 142.704 124.717 142.99C125.337 143.275 125.855 143.751 126.27 144.417L124.717 145.385C124.487 145.016 124.195 144.75 123.84 144.588C123.484 144.433 123.098 144.38 122.68 144.428C122.262 144.476 121.848 144.629 121.436 144.885C120.982 145.168 120.655 145.505 120.456 145.894C120.257 146.283 120.19 146.714 120.255 147.186C120.318 147.666 120.517 148.175 120.853 148.714L126.663 158.031Z" fill="white"/>
<path d="M102.254 159.568C101.748 158.032 101.587 156.613 101.773 155.311C101.959 154.01 102.435 152.896 103.202 151.97C103.969 151.045 104.973 150.377 106.215 149.967C107.458 149.558 108.662 149.497 109.829 149.785C110.996 150.073 112.042 150.685 112.965 151.621C113.889 152.556 114.604 153.792 115.11 155.328C115.617 156.864 115.777 158.283 115.591 159.585C115.406 160.886 114.929 162 114.162 162.926C113.395 163.851 112.391 164.519 111.149 164.928C109.907 165.338 108.702 165.399 107.535 165.111C106.368 164.823 105.323 164.211 104.399 163.275C103.476 162.339 102.761 161.104 102.254 159.568ZM103.961 159.005C104.376 160.266 104.938 161.261 105.646 161.989C106.35 162.719 107.133 163.189 107.995 163.398C108.853 163.609 109.723 163.57 110.605 163.279C111.487 162.988 112.212 162.502 112.781 161.82C113.345 161.14 113.695 160.297 113.831 159.29C113.962 158.285 113.82 157.152 113.404 155.891C112.988 154.63 112.428 153.635 111.725 152.905C111.017 152.176 110.234 151.706 109.376 151.495C108.513 151.286 107.641 151.326 106.759 151.617C105.878 151.908 105.155 152.393 104.591 153.073C104.022 153.755 103.672 154.598 103.541 155.603C103.405 156.61 103.545 157.744 103.961 159.005Z" fill="white"/>
<path d="M83.6313 168.765L81.7755 168.828L81.43 158.681C81.3943 157.633 81.6094 156.689 82.0753 155.849C82.5363 155.015 83.2053 154.345 84.0821 153.841C84.9591 153.341 85.9988 153.071 87.201 153.03C88.4033 152.989 89.4589 153.188 90.3679 153.627C91.277 154.07 91.9924 154.693 92.5142 155.494C93.0311 156.3 93.3074 157.227 93.3431 158.275L93.6885 168.422L91.8327 168.485L91.4923 158.488C91.4669 157.74 91.2796 157.079 90.9304 156.507C90.5815 155.939 90.097 155.499 89.477 155.185C88.8522 154.877 88.1132 154.737 87.2602 154.766C86.4071 154.795 85.6793 154.985 85.0769 155.335C84.4747 155.69 84.0213 156.163 83.7168 156.752C83.4074 157.347 83.2654 158.019 83.2909 158.767L83.6313 168.765Z" fill="white"/>
<path d="M74.4086 152.442L70.9722 167.386L65.9227 166.225C64.7552 165.957 63.8427 165.537 63.1853 164.966C62.5267 164.399 62.0969 163.729 61.8957 162.956C61.6946 162.182 61.6953 161.355 61.8977 160.475C62.1002 159.594 62.4597 158.855 62.9763 158.257C63.4929 157.658 64.1681 157.25 65.0019 157.032C65.8346 156.819 66.8298 156.846 67.9876 157.112L72.0739 158.051L71.698 159.686L67.6701 158.76C66.8723 158.576 66.2033 158.545 65.6631 158.667C65.1181 158.788 64.6869 159.037 64.3696 159.414C64.0463 159.796 63.8158 160.286 63.6782 160.884C63.5406 161.483 63.5323 162.031 63.6531 162.53C63.774 163.029 64.0521 163.457 64.4875 163.813C64.9218 164.174 65.5427 164.448 66.3502 164.633L69.5317 165.365L72.599 152.026L74.4086 152.442ZM65.8306 157.538L63.6967 149.979L65.7982 150.462L67.8738 158.008L65.8306 157.538Z" fill="white"/>
<path d="M40.2469 156.393L47.454 142.899L49.0353 143.743L50.7299 158.265L50.8617 158.336L56.5203 147.741L58.1544 148.614L50.9473 162.108L49.366 161.263L47.6591 146.7L47.5274 146.63L41.8546 157.251L40.2469 156.393Z" fill="white"/>
<path d="M42.5035 137.619L32.0848 148.871L25.2945 142.583L26.4137 141.374L31.8415 146.4L35.3619 142.599L30.2857 137.898L31.4049 136.689L36.4811 141.39L40.0218 137.566L34.5061 132.459L35.6253 131.25L42.5035 137.619Z" fill="white"/>
<path d="M18.9781 136.313L17.8086 134.548L21.4106 127.081L21.3118 126.932L13.0316 127.339L11.8621 125.574L22.3917 125.215L27.6368 121.739L28.6581 123.28L23.413 126.756L18.9781 136.313Z" fill="white"/>
<path d="M19.8837 100.493L5.37149 106.983L5.08283 105.118L16.9346 100.041L16.9116 99.8926L4.07024 98.5771L3.74951 96.5053L15.5921 91.3686L15.5692 91.2206L2.73691 89.9644L2.44825 88.0998L18.2434 89.8975L18.5367 91.7917L6.9788 97.0055L6.99713 97.1239L19.5905 98.599L19.8837 100.493Z" fill="white"/>
<path d="M3.55163 77.0815L18.8225 78.474L18.6539 80.3232L3.38302 78.9307L3.55163 77.0815Z" fill="white"/>
<path d="M6.84686 66.9633L5.26673 66.498L8.51577 55.4658L10.0959 55.9312L8.73367 60.5566L21.8631 64.4233L21.3385 66.2046L8.20909 62.3379L6.84686 66.9633Z" fill="white"/>
<path d="M25.4403 55.2472L12.2529 47.2734L13.2185 45.6765L19.091 49.2273L23.3427 42.1957L17.4701 38.6449L18.4357 37.048L31.6231 45.0218L30.6576 46.6187L24.7593 43.0523L20.5076 50.0838L26.4059 53.6502L25.4403 55.2472Z" fill="white"/>
<path d="M43.2735 14.7086L44.8044 13.6576L50.5507 22.0279C51.1439 22.8921 51.47 23.8036 51.5287 24.7623C51.5887 25.714 51.3846 26.6382 50.9164 27.5349C50.4453 28.4274 49.7139 29.2141 48.7222 29.8949C47.7304 30.5758 46.7334 30.9756 45.7312 31.0945C44.7262 31.2093 43.7884 31.069 42.9177 30.6738C42.0482 30.2717 41.3169 29.6385 40.7236 28.7743L34.9773 20.404L36.5081 19.3531L42.1697 27.5999C42.5935 28.2172 43.1064 28.6734 43.7086 28.9684C44.3079 29.2593 44.9532 29.3703 45.6445 29.3013C46.3372 29.2254 47.0353 28.9459 47.739 28.4628C48.4427 27.9797 48.9544 27.4286 49.2741 26.8096C49.591 26.1863 49.7193 25.5442 49.6591 24.8832C49.6002 24.2153 49.3588 23.5727 48.9351 22.9554L43.2735 14.7086Z" fill="white"/>
<path d="M63.8605 9.87439C63.5189 9.19102 62.9764 8.76036 62.2332 8.58241C61.49 8.40446 60.6817 8.47281 59.8082 8.78746C59.1695 9.01753 58.6478 9.32215 58.2433 9.70134C57.8434 10.0788 57.5747 10.4966 57.4373 10.9546C57.3046 11.411 57.3211 11.8693 57.4869 12.3295C57.6256 12.7146 57.8364 13.0127 58.1194 13.2238C58.4054 13.4285 58.7269 13.57 59.0841 13.6482C59.4395 13.7218 59.798 13.7598 60.1597 13.7622C60.5196 13.7598 60.8461 13.7457 61.1392 13.7197L62.7465 13.5864C63.1577 13.5497 63.6247 13.5353 64.1476 13.5433C64.6751 13.5496 65.2043 13.6269 65.7352 13.7752C66.2692 13.9171 66.7584 14.1706 67.2029 14.5357C67.6475 14.9008 67.9916 15.4215 68.2352 16.0978C68.516 16.8773 68.5655 17.6554 68.3836 18.4318C68.2064 19.2066 67.7948 19.9199 67.1489 20.5717C66.5077 21.2218 65.6329 21.7465 64.5246 22.1458C63.4914 22.5179 62.5367 22.6735 61.6605 22.6124C60.789 22.5496 60.0298 22.2979 59.3829 21.8571C58.7407 21.4146 58.2494 20.809 57.9088 20.0404L59.7122 19.3908C59.9554 19.9186 60.3009 20.3035 60.7488 20.5453C61.1997 20.7808 61.703 20.8967 62.2587 20.8928C62.8174 20.8825 63.3832 20.7742 63.9562 20.5678C64.623 20.3276 65.1829 20.0039 65.6358 19.5967C66.0869 19.1849 66.3973 18.7282 66.5668 18.2268C66.7347 17.7206 66.7239 17.2046 66.5344 16.6786C66.3618 16.1996 66.0876 15.858 65.7116 15.6539C65.3357 15.4497 64.8955 15.3324 64.3911 15.3019C63.8867 15.2714 63.3555 15.277 62.7976 15.3188L60.8397 15.4511C59.5959 15.533 58.537 15.3919 57.663 15.0276C56.789 14.6633 56.1769 13.9951 55.8267 13.023C55.5357 12.2153 55.5004 11.4322 55.7206 10.6737C55.9438 9.9089 56.3663 9.22613 56.9882 8.62542C57.6131 8.01831 58.3858 7.54898 59.3063 7.21741C60.2361 6.88246 61.1227 6.75145 61.966 6.82436C62.8077 6.89258 63.543 7.13703 64.172 7.55772C64.8058 7.97671 65.2655 8.54594 65.5512 9.26539L63.8605 9.87439Z" fill="white"/>
</g>
<defs>
<clipPath id="clip0_13883_13403">
<rect width="170" height="170" fill="white" transform="translate(0.871094 0.871094)"/>
</clipPath>
</defs>
</svg>
