<svg width="130" height="130" viewBox="0 0 130 130" fill="none" xmlns="http://www.w3.org/2000/svg">
<g clip-path="url(#clip0_13888_19278)">
<path d="M73.3197 5.01845C73.2936 4.43478 73.0486 3.96521 72.5848 3.60973C72.1209 3.25425 71.5349 3.05057 70.8268 2.9987C70.3091 2.96077 69.85 3.01133 69.4494 3.15039C69.0526 3.28972 68.735 3.49801 68.4965 3.77524C68.2619 4.05276 68.1309 4.37805 68.1035 4.75113C68.0807 5.0633 68.1352 5.33712 68.2672 5.57261C68.4033 5.80456 68.584 6.00342 68.8091 6.16918C69.0346 6.33114 69.2732 6.46918 69.5251 6.58332C69.7773 6.69365 70.0098 6.78532 70.2226 6.85832L71.3869 7.26511C71.6856 7.36737 72.0163 7.50259 72.3791 7.67078C72.7457 7.83924 73.0913 8.05785 73.4161 8.32659C73.745 8.5918 74.0079 8.92108 74.2049 9.31442C74.4019 9.70776 74.4803 10.1785 74.4401 10.7267C74.3939 11.3587 74.1864 11.9176 73.8178 12.4034C73.4531 12.8896 72.9437 13.2599 72.2897 13.5143C71.6396 13.769 70.8653 13.8635 69.9668 13.7977C69.1293 13.7363 68.414 13.5481 67.8209 13.2329C67.2316 12.9179 66.7795 12.5059 66.4647 11.9968C66.1537 11.4879 65.9988 10.912 65.9999 10.2691L67.4618 10.3762C67.4675 10.8206 67.5892 11.197 67.8269 11.5053C68.0686 11.81 68.3842 12.0475 68.7736 12.2176C69.1671 12.3842 69.5961 12.4845 70.0605 12.5186C70.6011 12.5582 71.0929 12.5062 71.5359 12.3626C71.9792 12.2152 72.3381 11.9927 72.6125 11.6951C72.8871 11.3937 73.0401 11.0299 73.0713 10.6035C73.0998 10.2152 73.0144 9.89125 72.8153 9.63171C72.6161 9.37217 72.3451 9.1533 72.0022 8.97508C71.6594 8.79687 71.2865 8.6356 70.8837 8.49127L69.4749 7.9747C68.5804 7.64509 67.8846 7.21712 67.3873 6.69079C66.8901 6.16446 66.6703 5.50728 66.728 4.71925C66.776 4.06446 66.9948 3.5064 67.3846 3.04505C67.7784 2.58017 68.286 2.23462 68.9073 2.0084C69.5326 1.77865 70.2184 1.6911 70.9646 1.74576C71.7183 1.80099 72.3784 1.98522 72.9449 2.29846C73.5117 2.60789 73.9493 3.00738 74.2579 3.49692C74.5703 3.98674 74.7144 4.52739 74.6902 5.11885L73.3197 5.01845Z" fill="#0C1F25"/>
<path d="M80.9382 3.95231L81.3161 2.75565L89.671 5.39403L89.2931 6.5907L85.7901 5.4845L82.6502 15.4277L81.3012 15.0017L84.4411 5.05851L80.9382 3.95231Z" fill="#0C1F25"/>
<path d="M88.7052 19.0196L87.425 18.2598L97.1126 10.3735L98.3731 11.1217L96.0908 23.4031L94.8106 22.6433L96.8354 12.3663L96.7567 12.3195L88.7052 19.0196ZM91.5158 15.3611L96.6758 18.4237L96.0329 19.5069L90.8728 16.4443L91.5158 15.3611Z" fill="#0C1F25"/>
<path d="M99.6674 26.6315L108.007 18.3878L110.792 21.2055C111.436 21.857 111.854 22.5018 112.044 23.1399C112.238 23.7753 112.241 24.384 112.054 24.966C111.867 25.5479 111.528 26.0817 111.037 26.5674C110.545 27.0532 110.01 27.3834 109.432 27.5582C108.853 27.733 108.25 27.7201 107.622 27.5195C106.997 27.3161 106.365 26.8914 105.727 26.2453L103.472 23.9651L104.385 23.0634L106.606 25.3111C107.047 25.7563 107.466 26.0502 107.865 26.1929C108.266 26.3382 108.646 26.3539 109.006 26.2399C109.371 26.126 109.721 25.904 110.054 25.5739C110.388 25.2438 110.618 24.8929 110.745 24.5212C110.871 24.1494 110.867 23.7593 110.731 23.351C110.599 22.94 110.31 22.5091 109.864 22.0585L108.109 20.2832L100.666 27.6413L99.6674 26.6315ZM107.294 26.8536L105.577 32.6091L104.417 31.4364L106.167 25.7134L107.294 26.8536Z" fill="#0C1F25"/>
<path d="M116.696 30.4552L117.78 29.8128L122.265 37.3761L121.182 38.0186L119.301 34.8475L110.3 40.1854L109.576 38.9642L118.577 33.6263L116.696 30.4552Z" fill="#0C1F25"/>
<path d="M126.967 50.838L127.228 52.4478L122.329 56.5433L122.351 56.6793L128.29 59.0232L128.55 60.633L121.048 57.5414L116.264 58.3145L116.036 56.9088L120.821 56.1356L126.967 50.838Z" fill="#0C1F25"/>
<path d="M121.828 76.1855C120.592 76.0742 119.543 75.7547 118.682 75.227C117.822 74.6994 117.182 74.0242 116.764 73.2015C116.345 72.3789 116.181 71.4675 116.271 70.4674C116.361 69.4673 116.685 68.5999 117.244 67.8652C117.803 67.1305 118.552 66.5804 119.493 66.2149C120.434 65.8493 121.523 65.7222 122.76 65.8335C123.997 65.9448 125.046 66.2643 125.906 66.792C126.767 67.3197 127.406 67.9948 127.825 68.8175C128.243 69.6402 128.408 70.5515 128.318 71.5516C128.228 72.5517 127.903 73.4191 127.345 74.1538C126.786 74.8885 126.036 75.4387 125.095 75.8042C124.154 76.1697 123.065 76.2968 121.828 76.1855ZM121.952 74.8114C122.967 74.9027 123.84 74.81 124.569 74.5332C125.298 74.2601 125.867 73.8516 126.278 73.3075C126.688 72.7672 126.925 72.1421 126.989 71.4321C127.053 70.7221 126.932 70.0628 126.625 69.4541C126.317 68.8492 125.83 68.3455 125.162 67.9429C124.494 67.5441 123.652 67.2991 122.636 67.2077C121.621 67.1163 120.749 67.2071 120.02 67.4802C119.291 67.757 118.721 68.1656 118.311 68.7059C117.9 69.25 117.663 69.877 117.599 70.587C117.535 71.297 117.657 71.9544 117.964 72.5592C118.271 73.1679 118.759 73.6716 119.427 74.0704C120.095 74.473 120.937 74.72 121.952 74.8114Z" fill="#0C1F25"/>
<path d="M122.46 92.0696L121.934 93.3901L114.714 90.5174C113.968 90.2209 113.373 89.7803 112.927 89.1958C112.483 88.6163 112.219 87.9418 112.134 87.1722C112.054 86.404 112.183 85.5921 112.524 84.7366C112.864 83.8811 113.327 83.202 113.914 82.6993C114.504 82.198 115.16 81.8875 115.882 81.7677C116.606 81.6528 117.341 81.7437 118.086 82.0403L125.307 84.9129L124.782 86.2335L117.668 83.4032C117.135 83.1913 116.615 83.1199 116.106 83.189C115.601 83.2595 115.143 83.4639 114.733 83.8024C114.325 84.1458 114.001 84.621 113.759 85.2281C113.518 85.8351 113.427 86.4036 113.488 86.9334C113.552 87.4647 113.744 87.9276 114.064 88.3222C114.386 88.7217 114.813 89.0274 115.346 89.2392L122.46 92.0696Z" fill="#0C1F25"/>
<path d="M108.147 93.5014L117.528 100.537L115.15 103.707C114.601 104.44 114.024 104.947 113.421 105.23C112.821 105.515 112.22 105.607 111.617 105.508C111.013 105.409 110.436 105.152 109.883 104.737C109.33 104.323 108.925 103.842 108.667 103.296C108.409 102.749 108.333 102.151 108.439 101.5C108.548 100.852 108.875 100.165 109.42 99.4377L111.344 96.8726L112.37 97.6422L110.474 100.171C110.098 100.671 109.869 101.129 109.787 101.545C109.702 101.963 109.742 102.342 109.908 102.681C110.074 103.025 110.346 103.338 110.721 103.62C111.097 103.901 111.478 104.077 111.864 104.148C112.25 104.218 112.635 104.156 113.019 103.962C113.406 103.771 113.79 103.421 114.17 102.914L115.668 100.917L107.295 94.6373L108.147 93.5014ZM109.049 101.078L103.104 100.226L104.093 98.9064L110.011 99.795L109.049 101.078Z" fill="#0C1F25"/>
<path d="M96.2247 120.231L95.0178 120.984L90.5751 113.858C90.1786 113.223 89.9586 112.61 89.915 112.019C89.8714 111.429 89.9904 110.886 90.2718 110.391C90.5532 109.896 90.9826 109.468 91.5602 109.108C92.1052 108.768 92.652 108.564 93.2004 108.497C93.7509 108.433 94.2631 108.511 94.7371 108.729C95.2111 108.947 95.6069 109.311 95.9245 109.82L94.737 110.561C94.561 110.278 94.3375 110.075 94.0664 109.951C93.7942 109.833 93.4984 109.792 93.179 109.829C92.8596 109.866 92.5425 109.982 92.2278 110.178C91.8806 110.395 91.6309 110.652 91.4786 110.95C91.3263 111.248 91.2748 111.577 91.3243 111.938C91.3726 112.305 91.5252 112.694 91.7821 113.106L96.2247 120.231Z" fill="#0C1F25"/>
<path d="M77.5465 121.412C77.1592 120.238 77.0365 119.153 77.1786 118.157C77.3206 117.162 77.6849 116.31 78.2714 115.602C78.8579 114.894 79.626 114.384 80.5758 114.071C81.5256 113.758 82.4468 113.711 83.3393 113.931C84.2318 114.151 85.0312 114.619 85.7375 115.335C86.4437 116.051 86.9905 116.996 87.3778 118.17C87.7651 119.345 87.8877 120.43 87.7457 121.425C87.6037 122.421 87.2394 123.272 86.6529 123.98C86.0664 124.688 85.2982 125.198 84.3484 125.512C83.3987 125.825 82.4775 125.871 81.585 125.651C80.6925 125.431 79.8931 124.963 79.1868 124.247C78.4806 123.532 77.9338 122.587 77.5465 121.412ZM78.8515 120.982C79.1695 121.946 79.5992 122.707 80.1406 123.264C80.6783 123.822 81.2771 124.181 81.9368 124.341C82.593 124.503 83.2582 124.472 83.9325 124.25C84.6067 124.028 85.1614 123.656 85.5964 123.135C86.0278 122.615 86.2954 121.97 86.3993 121.2C86.4996 120.431 86.3907 119.565 86.0727 118.601C85.7548 117.636 85.3269 116.875 84.7891 116.317C84.2477 115.76 83.649 115.401 82.9929 115.239C82.3331 115.079 81.6661 115.11 80.9918 115.332C80.3175 115.555 79.7647 115.926 79.3333 116.446C78.8983 116.967 78.6306 117.612 78.5304 118.381C78.4265 119.15 78.5336 120.018 78.8515 120.982Z" fill="#0C1F25"/>
<path d="M63.2893 128.448L61.8701 128.496L61.6059 120.737C61.5787 119.936 61.7431 119.214 62.0994 118.572C62.4519 117.933 62.9635 117.421 63.634 117.036C64.3047 116.654 65.0997 116.447 66.0191 116.416C66.9385 116.384 67.7457 116.537 68.4408 116.872C69.136 117.211 69.6831 117.687 70.0821 118.3C70.4774 118.917 70.6886 119.625 70.7159 120.427L70.9801 128.186L69.561 128.234L69.3007 120.589C69.2812 120.017 69.138 119.512 68.871 119.074C68.6041 118.64 68.2336 118.304 67.7595 118.064C67.2817 117.828 66.7166 117.721 66.0643 117.743C65.4119 117.766 64.8554 117.911 64.3948 118.178C63.9343 118.45 63.5875 118.811 63.3546 119.262C63.118 119.717 63.0095 120.231 63.029 120.803L63.2893 128.448Z" fill="#0C1F25"/>
<path d="M56.2213 115.965L53.5935 127.393L49.7321 126.505C48.8393 126.299 48.1415 125.978 47.6387 125.542C47.1351 125.108 46.8064 124.596 46.6526 124.005C46.4988 123.413 46.4993 122.781 46.6542 122.107C46.809 121.434 47.0839 120.869 47.479 120.411C47.874 119.954 48.3903 119.641 49.0279 119.475C49.6647 119.312 50.4257 119.332 51.3111 119.536L54.4359 120.254L54.1485 121.504L51.0683 120.796C50.4582 120.656 49.9466 120.632 49.5336 120.725C49.1168 120.817 48.7871 121.008 48.5444 121.296C48.2971 121.588 48.1209 121.963 48.0157 122.42C47.9105 122.878 47.9041 123.298 47.9965 123.679C48.0889 124.061 48.3016 124.388 48.6346 124.66C48.9667 124.936 49.4415 125.145 50.059 125.287L52.4919 125.847L54.8374 115.646L56.2213 115.965ZM49.6617 119.861L48.0298 114.081L49.6368 114.451L51.2241 120.221L49.6617 119.861Z" fill="#0C1F25"/>
<path d="M29.9722 119.188L35.4835 108.869L36.6928 109.515L37.9886 120.62L38.0894 120.674L42.4166 112.572L43.6662 113.239L38.1549 123.558L36.9456 122.912L35.6404 111.776L35.5396 111.722L31.2016 119.844L29.9722 119.188Z" fill="#0C1F25"/>
<path d="M31.7965 104.616L23.8292 113.219L18.6367 108.411L19.4925 107.487L23.6432 111.33L26.3353 108.423L22.4535 104.829L23.3093 103.904L27.1911 107.499L29.8987 104.575L25.6809 100.669L26.5367 99.7449L31.7965 104.616Z" fill="#0C1F25"/>
<path d="M13.6013 103.736L12.707 102.386L15.4615 96.676L15.3859 96.5619L9.05399 96.8732L8.15964 95.5235L16.2118 95.2487L20.2227 92.5909L21.0037 93.7694L16.9927 96.4273L13.6013 103.736Z" fill="#0C1F25"/>
<path d="M14.481 76.1906L3.38337 81.1532L3.16263 79.7273L12.2257 75.8445L12.2082 75.7313L2.3883 74.7254L2.14303 73.1411L11.1991 69.213L11.1816 69.0998L1.3687 68.1392L1.14796 66.7133L13.2266 68.088L13.4509 69.5365L4.6125 73.5236L4.62651 73.6141L14.2567 74.7421L14.481 76.1906Z" fill="#0C1F25"/>
<path d="M1.99136 58.2734L13.6691 59.3382L13.5401 60.7523L1.86242 59.6875L1.99136 58.2734Z" fill="#0C1F25"/>
<path d="M4.51317 50.5244L3.30484 50.1686L5.78939 41.7322L6.99773 42.088L5.95603 45.6252L15.9962 48.5821L15.595 49.9442L5.55487 46.9873L4.51317 50.5244Z" fill="#0C1F25"/>
<path d="M18.738 41.5514L8.65345 35.4538L9.39183 34.2327L13.8826 36.948L17.1339 31.5709L12.6431 28.8556L13.3815 27.6344L23.466 33.732L22.7276 34.9532L18.2171 32.2259L14.9659 37.603L19.4763 40.3303L18.738 41.5514Z" fill="#0C1F25"/>
<path d="M32.3922 10.5333L33.5629 9.7296L37.9571 16.1304C38.4108 16.7913 38.6601 17.4883 38.705 18.2214C38.7509 18.9492 38.5948 19.6559 38.2368 20.3416C37.8765 21.0241 37.3172 21.6257 36.5588 22.1464C35.8004 22.667 35.038 22.9728 34.2716 23.0637C33.5031 23.1514 32.7859 23.0442 32.1201 22.742C31.4552 22.4345 30.8959 21.9503 30.4423 21.2894L26.048 14.8886L27.2187 14.0849L31.5481 20.3914C31.8722 20.8634 32.2644 21.2122 32.7249 21.4378C33.1832 21.6603 33.6767 21.7451 34.2053 21.6924C34.735 21.6344 35.2689 21.4207 35.807 21.0512C36.3451 20.6818 36.7364 20.2604 36.9809 19.787C37.2232 19.3104 37.3214 18.8194 37.2753 18.3139C37.2302 17.8031 37.0457 17.3117 36.7216 16.8397L32.3922 10.5333Z" fill="#0C1F25"/>
<path d="M48.1485 6.82968C47.8872 6.3071 47.4724 5.97777 46.9041 5.8417C46.3357 5.70562 45.7176 5.75789 45.0496 5.9985C44.5612 6.17443 44.1623 6.40738 43.8529 6.69735C43.5471 6.98602 43.3417 7.30548 43.2366 7.65574C43.1351 8.00471 43.1477 8.35516 43.2745 8.7071C43.3806 9.00158 43.5418 9.22954 43.7582 9.39097C43.9769 9.54751 44.2228 9.65571 44.4959 9.71557C44.7677 9.77183 45.0419 9.80086 45.3184 9.80268C45.5937 9.8009 45.8434 9.79008 46.0675 9.77021L47.2966 9.66826C47.611 9.64019 47.9682 9.6292 48.368 9.6353C48.7714 9.6401 49.1761 9.69921 49.5821 9.81262C49.9904 9.92115 50.3645 10.115 50.7045 10.3942C51.0444 10.6734 51.3075 11.0716 51.4938 11.5887C51.7085 12.1849 51.7464 12.7798 51.6073 13.3736C51.4718 13.9661 51.1571 14.5115 50.6631 15.01C50.1728 15.5071 49.5038 15.9084 48.6563 16.2137C47.8662 16.4983 47.1362 16.6172 46.4661 16.5705C45.7997 16.5225 45.2191 16.33 44.7245 15.9929C44.2334 15.6545 43.8576 15.1915 43.5972 14.6037L44.9762 14.1069C45.1622 14.5106 45.4264 14.8049 45.7689 14.9898C46.1138 15.1699 46.4986 15.2585 46.9236 15.2555C47.3508 15.2477 47.7835 15.1648 48.2216 15.007C48.7316 14.8233 49.1597 14.5758 49.506 14.2644C49.851 13.9494 50.0884 13.6002 50.218 13.2168C50.3464 12.8297 50.3381 12.4351 50.1932 12.0329C50.0613 11.6666 49.8515 11.4054 49.564 11.2493C49.2766 11.0932 48.9399 11.0035 48.5542 10.9801C48.1685 10.9568 47.7623 10.9611 47.3356 10.9931L45.8384 11.0942C44.8873 11.1569 44.0775 11.0489 43.4092 10.7704C42.7408 10.4918 42.2728 9.98083 42.005 9.23745C41.7825 8.61976 41.7554 8.02092 41.9238 7.44094C42.0945 6.85607 42.4176 6.33395 42.8932 5.87458C43.3711 5.41033 43.9619 5.05143 44.6658 4.79787C45.3769 4.54174 46.0549 4.44155 46.6998 4.4973C47.3434 4.54947 47.9057 4.73641 48.3867 5.05811C48.8713 5.37852 49.2229 5.81381 49.4413 6.36398L48.1485 6.82968Z" fill="#0C1F25"/>
</g>
<defs>
<clipPath id="clip0_13888_19278">
<rect width="130" height="130" fill="white"/>
</clipPath>
</defs>
</svg>
