<svg width="21" height="18" viewBox="0 0 21 18" fill="none" xmlns="http://www.w3.org/2000/svg">
<path d="M20.1651 8.253L11.1651 0.253004C10.982 0.089941 10.7453 -0.000152588 10.5001 -0.000152588C10.2549 -0.000152588 10.0182 0.089941 9.83512 0.253004L0.835117 8.253C0.73702 8.34033 0.657083 8.44613 0.599873 8.56435C0.542662 8.68257 0.509297 8.81091 0.501682 8.94202C0.494068 9.07314 0.512353 9.20447 0.555495 9.32852C0.598636 9.45257 0.665788 9.56691 0.753117 9.665C0.840446 9.7631 0.946242 9.84304 1.06446 9.90025C1.18269 9.95746 1.31102 9.99082 1.44213 9.99844C1.57325 10.0061 1.70458 9.98777 1.82863 9.94463C1.95268 9.90148 2.06702 9.83433 2.16512 9.747L2.50012 9.447V17C2.50012 17.2652 2.60547 17.5196 2.79301 17.7071C2.98055 17.8946 3.2349 18 3.50012 18H7.50012C7.76533 18 8.01969 17.8946 8.20722 17.7071C8.39476 17.5196 8.50012 17.2652 8.50012 17V14C8.50012 13.7348 8.60547 13.4804 8.79301 13.2929C8.98055 13.1054 9.2349 13 9.50012 13H11.5001C11.7653 13 12.0197 13.1054 12.2072 13.2929C12.3948 13.4804 12.5001 13.7348 12.5001 14V17C12.5001 17.2652 12.6055 17.5196 12.793 17.7071C12.9805 17.8946 13.2349 18 13.5001 18H17.5001C17.7653 18 18.0197 17.8946 18.2072 17.7071C18.3948 17.5196 18.5001 17.2652 18.5001 17V9.449L18.8351 9.749C18.9332 9.83633 19.0476 9.90349 19.1716 9.94663C19.2957 9.98977 19.427 10.0081 19.5581 10.0004C19.6892 9.99282 19.8175 9.95946 19.9358 9.90225C20.054 9.84504 20.1598 9.7651 20.2471 9.667C20.3344 9.56891 20.4016 9.45457 20.4447 9.33052C20.4879 9.20647 20.5062 9.07514 20.4986 8.94402C20.4909 8.81291 20.4576 8.68457 20.4004 8.56635C20.3431 8.44813 20.2632 8.34233 20.1651 8.255V8.253Z" fill="#0C1F25"/>
</svg>
