<svg width="68" height="48" viewBox="0 0 68 48" fill="none" xmlns="http://www.w3.org/2000/svg">
<g clip-path="url(#clip0_14031_24862)">
<path d="M45.3502 46.9823L42.8892 43.6982C48.7876 40.5755 52.4743 37.0445 54.791 33.5936C57.2201 29.9756 58.1107 26.4939 58.5045 23.7653L58.7427 22.1147L57.2842 22.9232C55.5729 23.8719 53.0906 24.2227 50.5353 23.8854L50.5234 23.8838L50.5115 23.8826C43.9669 23.2108 39.0298 18.5495 39.0298 12.3529C39.0298 9.44545 40.4311 6.47118 42.6075 4.11571C45.1029 1.82035 47.9432 0.827587 51.573 0.827587C55.5499 0.827587 59.1645 2.50058 61.3118 4.47705C63.1665 6.36432 64.6206 8.30706 65.6169 10.6082C66.6152 12.9139 67.1724 15.6223 67.1724 19.0588C67.1724 30.7801 58.2247 41.3431 45.3502 46.9823ZM7.14795 46.9823L4.68698 43.6982C10.5853 40.5755 14.272 37.0445 16.5888 33.5936C19.0178 29.9756 19.9084 26.4939 20.3022 23.7653L20.5404 22.1147L19.0819 22.9232C17.3706 23.8719 14.8884 24.2227 12.333 23.8854L12.3211 23.8838L12.3092 23.8826C5.76467 23.2108 0.827583 18.5495 0.827583 12.3529C0.827583 9.43581 2.23816 6.45144 4.42691 4.09229C6.5085 1.84864 9.68724 0.827587 13.3708 0.827587C17.3476 0.827587 20.9622 2.50058 23.1095 4.47703C24.9643 6.36431 26.4184 8.30706 27.4147 10.6082C28.4129 12.9139 28.9702 15.6223 28.9702 19.0588C28.9702 30.7801 20.0224 41.3431 7.14795 46.9823Z" stroke="#0D1218" stroke-width="1.65517"/>
</g>
<defs>
<clipPath id="clip0_14031_24862">
<rect width="68" height="48" fill="white"/>
</clipPath>
</defs>
</svg>
