<svg width="72" height="72" viewBox="0 0 72 72" fill="none" xmlns="http://www.w3.org/2000/svg">
<rect width="72" height="72" rx="36" fill="#293314"/>
<g clip-path="url(#clip0_29354_11339)">
<mask id="mask0_29354_11339" style="mask-type:luminance" maskUnits="userSpaceOnUse" x="14" y="18" width="44" height="36">
<path d="M38.3516 33.6794V51.0395C38.3516 52.3379 37.2952 53.4 36.0035 53.4C34.7119 53.4 33.6554 52.3379 33.6554 51.0395V33.6794C33.6554 32.3809 34.7119 31.3189 36.0035 31.3189C37.2916 31.3189 38.3516 32.3809 38.3516 33.6794ZM48.253 28.7642C53.8267 29.9816 58 34.9708 58 40.9375C58 47.818 52.4509 53.3965 45.6066 53.3965H42.9355C41.7492 53.3965 40.7629 52.5038 40.6085 51.3535H40.5874V51.0359V48.6754V38.7675C40.5874 37.469 41.6439 36.4069 42.9355 36.4069C44.2272 36.4069 45.2837 37.469 45.2837 38.7675V48.6754H45.6066C49.8571 48.6754 53.3003 45.214 53.3003 40.941C53.3003 37.3102 50.7802 34.1522 47.2527 33.383L44.0938 32.6914L43.6059 29.477C43.0338 25.7121 39.7907 22.9246 36 22.9246C32.2093 22.9246 28.9662 25.7121 28.3941 29.477L27.9062 32.6914L24.7473 33.383C21.2198 34.1557 18.6997 37.3102 18.6997 40.941C18.6997 45.214 22.1429 48.6754 26.3934 48.6754H26.7163V38.7675C26.7163 37.469 27.7728 36.4069 29.0645 36.4069C30.3561 36.4069 31.4126 37.469 31.4126 38.7675V48.6754V51.0359V51.3535H31.3915C31.2371 52.5038 30.2473 53.3965 29.0645 53.3965H26.3934C19.5491 53.4 14 47.8215 14 40.941C14 34.9708 18.1733 29.9851 23.747 28.7678C24.656 22.7835 29.7945 18.2 36 18.2C42.2055 18.2 47.344 22.7835 48.253 28.7642Z" fill="white"/>
</mask>
<g mask="url(#mask0_29354_11339)">
<path d="M58 18.2H14V53.4H58V18.2Z" fill="#B7EC42"/>
</g>
</g>
<defs>
<clipPath id="clip0_29354_11339">
<rect width="44" height="35.2" fill="white" transform="translate(14 18.2)"/>
</clipPath>
</defs>
</svg>
