<svg width="200" height="52" viewBox="0 0 200 52" fill="none" xmlns="http://www.w3.org/2000/svg">
<g clip-path="url(#clip0_29388_1647)">
<mask id="mask0_29388_1647" style="mask-type:luminance" maskUnits="userSpaceOnUse" x="0" y="0" width="65" height="52">
<path d="M35.7206 22.9154V48.1664C35.7206 50.0551 34.1839 51.5999 32.3052 51.5999C30.4264 51.5999 28.8897 50.0551 28.8897 48.1664V22.9154C28.8897 21.0267 30.4264 19.4819 32.3052 19.4819C34.1788 19.4819 35.7206 21.0267 35.7206 22.9154ZM50.1226 15.7661C58.2299 17.5367 64.3 24.7938 64.3 33.4726C64.3 43.4806 56.2286 51.5948 46.2732 51.5948H42.3881C40.6625 51.5948 39.2279 50.2963 39.0033 48.6232H38.9727V48.1613V44.7277V30.3162C38.9727 28.4275 40.5094 26.8827 42.3881 26.8827C44.2669 26.8827 45.8036 28.4275 45.8036 30.3162V44.7277H46.2732C52.4558 44.7277 57.4641 39.6929 57.4641 33.4777C57.4641 28.1965 53.7985 23.6031 48.6676 22.4843L44.0729 21.4783L43.3632 16.8028C42.5311 11.3266 37.8138 7.27208 32.3 7.27208C26.7863 7.27208 22.069 11.3266 21.2369 16.8028L20.5272 21.4783L15.9325 22.4843C10.8016 23.6082 7.13604 28.1965 7.13604 33.4777C7.13604 39.6929 12.1443 44.7277 18.3269 44.7277H18.7965V30.3162C18.7965 28.4275 20.3332 26.8827 22.212 26.8827C24.0907 26.8827 25.6274 28.4275 25.6274 30.3162V44.7277V48.1613V48.6232H25.5968C25.3722 50.2963 23.9325 51.5948 22.212 51.5948H18.3269C8.37152 51.5999 0.300049 43.4857 0.300049 33.4777C0.300049 24.7938 6.37025 17.5418 14.4775 15.7712C15.7997 7.06678 23.2739 0.399902 32.3 0.399902C41.3262 0.399902 48.8004 7.06678 50.1226 15.7661Z" fill="white"/>
</mask>
<g mask="url(#mask0_29388_1647)">
<path d="M64.3 0.399902H0.300049V51.5999H64.3V0.399902Z" fill="white"/>
</g>
</g>
<path d="M85.3959 50.2171C83.5757 50.2171 81.8268 49.9322 80.149 49.3624C78.4713 48.7926 77.0073 47.9775 75.7569 46.9171C74.5065 45.8408 73.6122 44.5667 73.0741 43.0947L77.7037 41.3616C77.9727 42.1213 78.4871 42.8019 79.2469 43.4033C80.0224 43.989 80.9404 44.448 82.0009 44.7803C83.0771 45.1127 84.2088 45.2789 85.3959 45.2789C86.6621 45.2789 87.8492 45.0732 88.9571 44.6616C90.0809 44.2501 90.983 43.6803 91.6636 42.9523C92.36 42.2242 92.7082 41.3695 92.7082 40.3882C92.7082 39.3752 92.3442 38.5443 91.6161 37.8953C90.9039 37.2464 89.9859 36.732 88.8621 36.3521C87.7542 35.9723 86.5988 35.6874 85.3959 35.4975C83.0692 35.1176 80.98 34.5636 79.1282 33.8356C77.2922 33.1075 75.836 32.0866 74.7597 30.7729C73.6993 29.4592 73.1691 27.7498 73.1691 25.6448C73.1691 23.6663 73.7309 21.9411 74.8547 20.4691C75.9943 18.9972 77.49 17.8576 79.3418 17.0504C81.2095 16.2273 83.2275 15.8158 85.3959 15.8158C87.1844 15.8158 88.9096 16.1007 90.5715 16.6705C92.2492 17.2245 93.7212 18.0396 94.9874 19.1159C96.2695 20.1763 97.1875 21.4663 97.7414 22.9857L93.0644 24.6714C92.7953 23.8958 92.2809 23.2231 91.5212 22.6533C90.7614 22.0677 89.8434 21.6087 88.7672 21.2763C87.7067 20.944 86.583 20.7778 85.3959 20.7778C84.1297 20.7619 82.9426 20.9677 81.8347 21.3951C80.7426 21.8066 79.8483 22.3764 79.1519 23.1044C78.4555 23.8325 78.1073 24.6793 78.1073 25.6448C78.1073 26.8318 78.4317 27.734 79.0807 28.3513C79.7296 28.9686 80.6001 29.4276 81.6922 29.7283C82.8002 30.0132 84.0347 30.2743 85.3959 30.5118C87.5801 30.86 89.5981 31.4377 91.4499 32.2449C93.3176 33.0521 94.8133 34.1284 95.9371 35.4737C97.0767 36.8032 97.6465 38.4414 97.6465 40.3882C97.6465 42.3508 97.0767 44.076 95.9371 45.5638C94.8133 47.0358 93.3176 48.1833 91.4499 49.0063C89.5981 49.8135 87.5801 50.2171 85.3959 50.2171ZM120.862 25.8584H125.8V49.5999H120.838L120.648 46.1573C119.952 47.3761 119.01 48.3574 117.823 49.1013C116.636 49.8452 115.235 50.2171 113.621 50.2171C111.88 50.2171 110.242 49.8927 108.706 49.2437C107.171 48.579 105.818 47.661 104.646 46.4897C103.491 45.3185 102.589 43.9731 101.94 42.4537C101.291 40.9184 100.967 39.2723 100.967 37.5155C100.967 35.8219 101.283 34.2312 101.916 32.7434C102.549 31.2398 103.428 29.9261 104.551 28.8024C105.675 27.6786 106.973 26.8002 108.445 26.1671C109.933 25.5181 111.524 25.1937 113.217 25.1937C114.942 25.1937 116.462 25.5894 117.775 26.3807C119.105 27.1563 120.205 28.1534 121.076 29.3722L120.862 25.8584ZM113.502 45.4451C114.895 45.4451 116.114 45.1048 117.158 44.4242C118.203 43.7278 119.01 42.794 119.58 41.6227C120.165 40.4515 120.458 39.1536 120.458 37.7291C120.458 36.2888 120.165 34.9831 119.58 33.8118C118.994 32.6406 118.179 31.7147 117.134 31.0341C116.106 30.3377 114.895 29.9894 113.502 29.9894C112.125 29.9894 110.867 30.3377 109.727 31.0341C108.588 31.7305 107.685 32.6643 107.021 33.8356C106.356 35.0068 106.023 36.3047 106.023 37.7291C106.023 39.1695 106.364 40.4752 107.044 41.6465C107.741 42.8019 108.651 43.7278 109.775 44.4242C110.914 45.1048 112.157 45.4451 113.502 45.4451ZM148.545 25.8584H153.483V49.5999H148.521L148.331 46.1573C147.635 47.3761 146.693 48.3574 145.506 49.1013C144.319 49.8452 142.918 50.2171 141.304 50.2171C139.563 50.2171 137.924 49.8927 136.389 49.2437C134.854 48.579 133.501 47.661 132.329 46.4897C131.174 45.3185 130.272 43.9731 129.623 42.4537C128.974 40.9184 128.649 39.2723 128.649 37.5155C128.649 35.8219 128.966 34.2312 129.599 32.7434C130.232 31.2398 131.111 29.9261 132.234 28.8024C133.358 27.6786 134.656 26.8002 136.128 26.1671C137.616 25.5181 139.206 25.1937 140.9 25.1937C142.625 25.1937 144.145 25.5894 145.458 26.3807C146.788 27.1563 147.888 28.1534 148.758 29.3722L148.545 25.8584ZM141.185 45.4451C142.578 45.4451 143.796 45.1048 144.841 44.4242C145.886 43.7278 146.693 42.794 147.263 41.6227C147.848 40.4515 148.141 39.1536 148.141 37.7291C148.141 36.2888 147.848 34.9831 147.263 33.8118C146.677 32.6406 145.862 31.7147 144.817 31.0341C143.789 30.3377 142.578 29.9894 141.185 29.9894C139.808 29.9894 138.55 30.3377 137.41 31.0341C136.27 31.7305 135.368 32.6643 134.703 33.8356C134.039 35.0068 133.706 36.3047 133.706 37.7291C133.706 39.1695 134.047 40.4752 134.727 41.6465C135.424 42.8019 136.334 43.7278 137.457 44.4242C138.597 45.1048 139.84 45.4451 141.185 45.4451ZM164.322 20.4691V25.8584H171.017V30.7967H164.322V49.5999H159.384V30.7967H156.559V25.8584H159.384V20.4691C159.384 19.1713 159.7 17.9921 160.333 16.9317C160.967 15.8554 161.813 15.0007 162.874 14.3676C163.95 13.7345 165.145 13.4179 166.459 13.4179C167.408 13.4179 168.334 13.6079 169.236 13.9877C170.139 14.3676 170.946 14.9532 171.658 15.7446L168.121 19.2346C167.947 18.9497 167.701 18.736 167.385 18.5936C167.084 18.4353 166.775 18.3561 166.459 18.3561C165.873 18.3561 165.367 18.5619 164.939 18.9734C164.528 19.3849 164.322 19.8835 164.322 20.4691ZM188.191 30.7967H183.205L183.182 49.5999H178.243L178.267 30.7967H174.492V25.8584H178.267L178.243 18.4036H183.182L183.205 25.8584H188.191V30.7967ZM193.616 50.2171C192.888 50.2171 192.271 49.9639 191.764 49.4574C191.273 48.9509 191.028 48.3336 191.028 47.6056C191.028 46.8933 191.273 46.284 191.764 45.7775C192.271 45.271 192.888 45.0178 193.616 45.0178C194.344 45.0178 194.961 45.271 195.468 45.7775C195.974 46.284 196.227 46.8933 196.227 47.6056C196.227 48.3336 195.974 48.9509 195.468 49.4574C194.961 49.9639 194.344 50.2171 193.616 50.2171Z" fill="black"/>
<defs>
<clipPath id="clip0_29388_1647">
<rect width="64" height="51.2" fill="white" transform="translate(0.300049 0.399902)"/>
</clipPath>
</defs>
</svg>
