<svg width="100" height="81" viewBox="0 0 100 81" fill="none" xmlns="http://www.w3.org/2000/svg">
<g clip-path="url(#clip0_29457_5416)">
<mask id="mask0_29457_5416" style="mask-type:luminance" maskUnits="userSpaceOnUse" x="0" y="0" width="100" height="81">
<path d="M55.3446 35.6804V75.1351C55.3446 78.0862 52.9435 80.5 50.008 80.5C47.0724 80.5 44.6713 78.0862 44.6713 75.1351V35.6804C44.6713 32.7294 47.0724 30.3156 50.008 30.3156C52.9355 30.3156 55.3446 32.7294 55.3446 35.6804ZM77.8478 24.5096C90.5153 27.2763 100 38.6155 100 52.176C100 67.8136 87.3883 80.492 71.8331 80.492H65.7626C63.0664 80.492 60.8248 78.4631 60.4738 75.8488H60.426V75.1271V69.7622V47.2442C60.426 44.2931 62.8271 41.8793 65.7626 41.8793C68.6981 41.8793 71.0992 44.2931 71.0992 47.2442V69.7622H71.8331C81.4933 69.7622 89.3188 61.8953 89.3188 52.184C89.3188 43.9322 83.5913 36.755 75.5743 35.0068L68.395 33.435L67.2862 26.1295C65.986 17.573 58.6152 11.2378 50 11.2378C41.3848 11.2378 34.014 17.573 32.7138 26.1295L31.605 33.435L24.4257 35.0068C16.4087 36.763 10.6812 43.9322 10.6812 52.184C10.6812 61.8953 18.5067 69.7622 28.1669 69.7622H28.9008V47.2442C28.9008 44.2931 31.3019 41.8793 34.2374 41.8793C37.1729 41.8793 39.574 44.2931 39.574 47.2442V69.7622V75.1271V75.8488H39.5262C39.1752 78.4631 36.9257 80.492 34.2374 80.492H28.1669C12.6117 80.5 0 67.8216 0 52.184C0 38.6155 9.48468 27.2843 22.1522 24.5176C24.2183 10.917 35.8966 0.5 50 0.5C64.1034 0.5 75.7817 10.917 77.8478 24.5096Z" fill="white"/>
</mask>
<g mask="url(#mask0_29457_5416)">
<path d="M100 0.5H0V80.5H100V0.5Z" fill="#B7EC42"/>
</g>
</g>
<defs>
<clipPath id="clip0_29457_5416">
<rect width="100" height="80" fill="white" transform="translate(0 0.5)"/>
</clipPath>
</defs>
</svg>
