<svg width="52" height="52" viewBox="0 0 52 52" fill="none" xmlns="http://www.w3.org/2000/svg">
<path d="M0 26C0 11.6406 11.6406 0 26 0C40.3594 0 52 11.6406 52 26C52 40.3594 40.3594 52 26 52C11.6406 52 0 40.3594 0 26Z" fill="#101828"/>
<g clip-path="url(#clip0_14042_26703)">
<path d="M17.4281 28.9575C17.3803 28.2033 17.3204 27.4492 17.2845 26.683C17.2127 25.043 18.0626 23.798 19.547 23.367C20.9596 22.9481 22.3363 23.5466 23.1503 24.8993C23.7728 25.9408 24.3953 26.9823 25.0178 28.0358C25.1974 28.335 25.3889 28.5744 25.772 28.4308C26.191 28.2752 26.167 27.94 26.0712 27.5809C25.2333 24.4205 24.3833 21.2601 23.5334 18.0998C23.1383 16.6034 23.6411 15.2746 24.8502 14.4965C26.1072 13.7064 28.2859 13.9219 29.2316 15.5739C32.2363 20.8411 35.289 26.0845 38.3176 31.3398C38.7127 32.0341 39.1197 32.7164 39.5147 33.4108C40.4485 35.0388 40.0055 36.8704 38.4493 37.7802C36.8931 38.69 35.0615 38.1872 34.1278 36.5711C31.8892 32.7045 29.6626 28.8378 27.424 24.9592C27.3402 24.8036 27.2444 24.6479 27.1486 24.4923C26.981 24.193 26.7656 23.9536 26.3825 24.0973C25.9635 24.2529 25.9994 24.5881 26.0952 24.9472C26.9212 27.9879 27.7232 31.0405 28.5493 34.0811C29.0042 35.7571 28.3457 37.2894 26.8374 37.9598C25.341 38.6182 23.7249 38.0555 22.8391 36.5591C21.7018 34.6557 20.5646 32.7523 19.4393 30.8489C19.2597 30.5497 19.0921 30.2145 18.6612 30.3462C18.2182 30.4898 18.2542 30.8609 18.2781 31.232C18.3858 32.489 18.4816 33.734 18.5534 34.9909C18.6253 36.3077 17.7873 37.5527 16.5423 38.0196C15.2853 38.4865 13.8608 38.0675 13.0587 37.014C12.2207 35.9247 12.2088 34.4403 12.9989 33.327C13.765 32.2496 15.1896 31.7947 16.4585 32.2136C17.4641 32.5488 17.6676 32.3812 17.5838 31.3158C17.5359 30.5497 17.488 29.7476 17.4281 28.9575Z" fill="#FF692E"/>
<g clip-path="url(#clip1_14042_26703)">
<path d="M15.76 23.9926C15.7281 23.4898 15.6882 22.987 15.6643 22.4763C15.6164 21.3829 16.183 20.5529 17.1726 20.2656C18.1143 19.9863 19.0321 20.3853 19.5748 21.2872C19.9898 21.9815 20.4048 22.6758 20.8198 23.3781C20.9395 23.5776 21.0672 23.7372 21.3226 23.6415C21.6019 23.5377 21.5859 23.3143 21.5221 23.0748C20.9635 20.9679 20.3968 18.861 19.8302 16.7541C19.5668 15.7565 19.902 14.8707 20.7081 14.3519C21.546 13.8252 22.9985 13.9689 23.629 15.0702C25.6322 18.5817 27.6672 22.0772 29.6864 25.5808C29.9497 26.0437 30.2211 26.4986 30.4844 26.9614C31.1069 28.0468 30.8116 29.2679 29.7741 29.8744C28.7367 30.4809 27.5156 30.1457 26.8931 29.0683C25.4007 26.4906 23.9163 23.9128 22.4239 21.3271C22.3681 21.2233 22.3042 21.1196 22.2404 21.0158C22.1286 20.8163 21.985 20.6567 21.7296 20.7524C21.4503 20.8562 21.4742 21.0797 21.5381 21.3191C22.0887 23.3462 22.6234 25.3813 23.1741 27.4084C23.4774 28.5257 23.0384 29.5472 22.0329 29.9941C21.0353 30.433 19.9579 30.0579 19.3673 29.0604C18.6092 27.7914 17.851 26.5225 17.1008 25.2536C16.9811 25.054 16.8694 24.8306 16.5821 24.9184C16.2868 25.0141 16.3107 25.2615 16.3267 25.5089C16.3985 26.3469 16.4623 27.1769 16.5102 28.0149C16.5581 28.8928 15.9995 29.7228 15.1695 30.034C14.3315 30.3453 13.3818 30.0659 12.8471 29.3636C12.2884 28.6374 12.2805 27.6478 12.8072 26.9056C13.3179 26.1873 14.2677 25.884 15.1136 26.1634C15.784 26.3868 15.9197 26.2751 15.8638 25.5648C15.8319 25.054 15.7999 24.5193 15.76 23.9926Z" fill="#0A0119"/>
</g>
</g>
<defs>
<clipPath id="clip0_14042_26703">
<rect width="28" height="28" fill="white" transform="translate(12 12)"/>
</clipPath>
<clipPath id="clip1_14042_26703">
<rect width="9.95217" height="16.113" fill="white" transform="translate(12.4238 14.0653)"/>
</clipPath>
</defs>
</svg>
