<svg width="81" height="81" viewBox="0 0 81 81" fill="none" xmlns="http://www.w3.org/2000/svg">
<path d="M0.5 40.5C0.5 18.4086 18.4086 0.5 40.5 0.5C62.5914 0.5 80.5 18.4086 80.5 40.5C80.5 62.5914 62.5914 80.5 40.5 80.5C18.4086 80.5 0.5 62.5914 0.5 40.5Z" fill="#DFFF99"/>
<path d="M38.6361 41.2248L41.2242 38.6364C41.275 38.5857 41.3153 38.5254 41.3429 38.4591C41.3704 38.3928 41.3845 38.3217 41.3845 38.2498C41.3845 38.178 41.3704 38.1069 41.3429 38.0406C41.3153 37.9743 41.275 37.914 41.2242 37.8633L39.8455 36.4845C40.1289 35.9652 40.3561 35.4171 40.5233 34.8495H42.472C42.6171 34.8495 42.7562 34.7919 42.8587 34.6894C42.9613 34.5868 43.0189 34.4477 43.0189 34.3027V30.6427C43.0189 30.4976 42.9613 30.3585 42.8587 30.256C42.7562 30.1534 42.6171 30.0958 42.472 30.0958H40.5277C40.3603 29.5275 40.1324 28.9788 39.8477 28.4592L41.2242 27.0823C41.275 27.0316 41.3154 26.9713 41.3429 26.9049C41.3704 26.8386 41.3845 26.7675 41.3845 26.6956C41.3845 26.6238 41.3704 26.5527 41.3429 26.4863C41.3154 26.42 41.275 26.3597 41.2242 26.3089L38.6361 23.7205C38.5854 23.6697 38.5251 23.6293 38.4588 23.6018C38.3924 23.5743 38.3213 23.5602 38.2495 23.5602C38.1777 23.5602 38.1066 23.5743 38.0403 23.6018C37.974 23.6293 37.9137 23.6697 37.863 23.7205L36.4861 25.0977C35.9665 24.813 35.4179 24.585 34.8495 24.4177V22.4727C34.8496 22.4008 34.8355 22.3297 34.808 22.2633C34.7805 22.197 34.7402 22.1367 34.6894 22.0859C34.6387 22.0351 34.5784 21.9948 34.512 21.9673C34.4456 21.9399 34.3745 21.9257 34.3027 21.9258H30.6423C30.5705 21.9257 30.4994 21.9399 30.433 21.9673C30.3666 21.9948 30.3063 22.0351 30.2556 22.0859C30.2048 22.1367 30.1645 22.197 30.137 22.2633C30.1095 22.3297 30.0954 22.4008 30.0955 22.4727V24.4211C29.528 24.5885 28.9801 24.8158 28.4608 25.0992L27.0823 23.7205C27.0316 23.6696 26.9713 23.6293 26.9049 23.6018C26.8386 23.5743 26.7675 23.5601 26.6956 23.5601C26.6238 23.5601 26.5527 23.5743 26.4863 23.6018C26.42 23.6293 26.3597 23.6696 26.3089 23.7205L23.7205 26.3089C23.6696 26.3597 23.6293 26.42 23.6018 26.4863C23.5743 26.5527 23.5601 26.6238 23.5601 26.6956C23.5601 26.7675 23.5743 26.8386 23.6018 26.9049C23.6293 26.9713 23.6696 27.0316 23.7205 27.0823L25.0986 28.4608C24.8152 28.9802 24.5879 29.5283 24.4205 30.0958H22.4727C22.4008 30.0957 22.3297 30.1099 22.2633 30.1373C22.197 30.1648 22.1367 30.2051 22.0859 30.2559C22.0351 30.3067 21.9948 30.367 21.9673 30.4333C21.9399 30.4997 21.9257 30.5708 21.9258 30.6427V34.3027C21.9257 34.3745 21.9399 34.4456 21.9673 34.512C21.9948 34.5784 22.0351 34.6387 22.0859 34.6894C22.1367 34.7402 22.197 34.7805 22.2633 34.808C22.3297 34.8355 22.4008 34.8496 22.4727 34.8495H24.4173C24.5847 35.4179 24.8128 35.9666 25.0977 36.4861L23.7205 37.8633C23.6697 37.914 23.6293 37.9743 23.6018 38.0406C23.5743 38.1069 23.5602 38.178 23.5602 38.2498C23.5602 38.3217 23.5743 38.3928 23.6018 38.4591C23.6293 38.5254 23.6697 38.5857 23.7205 38.6364L26.3083 41.2248C26.4109 41.3273 26.55 41.3848 26.695 41.3848C26.84 41.3848 26.9791 41.3273 27.0817 41.2248L28.4586 39.8477C28.9783 40.1324 29.5271 40.3604 30.0955 40.528V42.473C30.0955 42.618 30.1531 42.7571 30.2556 42.8597C30.3582 42.9622 30.4973 43.0198 30.6423 43.0198H34.3027C34.4477 43.0198 34.5868 42.9622 34.6894 42.8597C34.7919 42.7571 34.8495 42.618 34.8495 42.473V40.5242C35.417 40.3568 35.9649 40.1295 36.4842 39.8461L37.863 41.2248C37.9655 41.3273 38.1046 41.3849 38.2495 41.3849C38.3945 41.3849 38.5335 41.3273 38.6361 41.2248ZM36.9608 38.7758C36.8739 38.6888 36.7603 38.6336 36.6382 38.6192C36.5161 38.6048 36.3927 38.632 36.288 38.6964C35.6346 39.0981 34.9215 39.3935 34.1755 39.5714C34.0561 39.6001 33.9498 39.668 33.8737 39.7644C33.7976 39.8607 33.756 39.9799 33.7558 40.1027V41.9245H31.1892V40.1077C31.189 39.9848 31.1475 39.8655 31.0712 39.7691C30.995 39.6727 30.8885 39.6048 30.7689 39.5764C30.0229 39.398 29.3103 39.1014 28.658 38.698C28.5531 38.6333 28.4296 38.6059 28.3073 38.6202C28.1849 38.6345 28.071 38.6897 27.9839 38.7767L26.6955 40.0642L24.8811 38.2492L26.1686 36.9614C26.2556 36.8743 26.3107 36.7605 26.325 36.6382C26.3393 36.516 26.3119 36.3925 26.2473 36.2877C25.8439 35.6349 25.5475 34.9219 25.3695 34.1755C25.3411 34.0559 25.2732 33.9494 25.1768 33.8732C25.0804 33.7969 24.9612 33.7553 24.8383 33.7552H23.0195V31.1892H24.8411C24.9639 31.189 25.0831 31.1475 25.1794 31.0714C25.2758 30.9953 25.3437 30.889 25.3723 30.7695C25.5501 30.0236 25.8454 29.3107 26.2473 28.6577C26.3116 28.5528 26.3388 28.4293 26.3244 28.3072C26.31 28.185 26.2549 28.0713 26.168 27.9842L24.8811 26.6955L26.6955 24.8811L27.9842 26.1698C28.0712 26.2568 28.1849 26.3119 28.307 26.3263C28.4291 26.3407 28.5525 26.3135 28.6573 26.2492C29.3106 25.8475 30.0236 25.5522 30.7695 25.3742C30.8889 25.3456 30.9952 25.2776 31.0713 25.1812C31.1474 25.0849 31.189 24.9658 31.1892 24.843V23.0195H33.7558V24.838C33.756 24.9609 33.7975 25.0801 33.8738 25.1765C33.95 25.2729 34.0565 25.3408 34.1761 25.3692C34.9225 25.5472 35.6355 25.8434 36.2883 26.2467C36.393 26.3116 36.5166 26.3391 36.6389 26.3248C36.7612 26.3105 36.8751 26.2552 36.962 26.168L38.2495 24.8805L40.0642 26.6955L38.7767 27.9833C38.6898 28.0704 38.6347 28.1844 38.6204 28.3066C38.6061 28.4289 38.6334 28.5525 38.698 28.6573C39.1014 29.3099 39.3977 30.0229 39.5755 30.7692C39.6039 30.8888 39.6718 30.9953 39.7682 31.0715C39.8646 31.1478 39.9838 31.1894 40.1067 31.1895H41.9252V33.7558H40.1033C39.9805 33.756 39.8613 33.7976 39.7649 33.8738C39.6686 33.95 39.6006 34.0563 39.572 34.1758C39.3941 34.9218 39.0988 35.6347 38.697 36.288C38.6326 36.3927 38.6054 36.5161 38.6198 36.6382C38.6342 36.7603 38.6894 36.8739 38.7764 36.9608L40.0642 38.2498L38.2495 40.0642L36.9608 38.7758Z" fill="#0C1F25"/>
<path d="M32.4704 27.7363C31.5341 27.7363 30.6188 28.014 29.8403 28.5342C29.0618 29.0543 28.455 29.7937 28.0967 30.6587C27.7384 31.5238 27.6446 32.4756 27.8273 33.394C28.01 34.3123 28.4608 35.1558 29.1229 35.8179C29.785 36.4799 30.6285 36.9308 31.5468 37.1135C32.4651 37.2962 33.417 37.2024 34.282 36.8441C35.1471 36.4858 35.8864 35.879 36.4066 35.1005C36.9268 34.322 37.2045 33.4067 37.2045 32.4704C37.203 31.2153 36.7038 30.012 35.8163 29.1245C34.9288 28.237 33.7255 27.7377 32.4704 27.7363ZM32.4704 36.1113C31.7504 36.1113 31.0466 35.8978 30.448 35.4979C29.8494 35.0979 29.3828 34.5294 29.1072 33.8642C28.8317 33.1991 28.7596 32.4672 28.9 31.7611C29.0404 31.0549 29.387 30.4063 29.8961 29.8971C30.4051 29.388 31.0537 29.0413 31.7598 28.9007C32.4659 28.7602 33.1979 28.8322 33.863 29.1076C34.5282 29.3831 35.0968 29.8495 35.4969 30.4481C35.897 31.0467 36.1106 31.7504 36.1107 32.4704C36.1095 33.4355 35.7256 34.3608 35.0432 35.0432C34.3608 35.7256 33.4355 36.1095 32.4704 36.1107V36.1113Z" fill="#0C1F25"/>
<path d="M58.5312 46.1557H56.5863C56.419 45.5873 56.191 45.0386 55.9062 44.5191L57.2831 43.1419C57.3339 43.0912 57.3743 43.0309 57.4018 42.9646C57.4293 42.8983 57.4434 42.8272 57.4434 42.7554C57.4434 42.6835 57.4293 42.6124 57.4018 42.5461C57.3743 42.4798 57.3339 42.4195 57.2831 42.3688L54.695 39.781C54.6442 39.7302 54.584 39.6898 54.5176 39.6623C54.4512 39.6348 54.3801 39.6207 54.3083 39.6207C54.2364 39.6207 54.1653 39.6348 54.099 39.6623C54.0326 39.6898 53.9723 39.7302 53.9216 39.781L52.5447 41.1575C52.0252 40.8729 51.4766 40.6448 50.9084 40.4772V38.5322C50.9084 38.3872 50.8508 38.2481 50.7483 38.1455C50.6457 38.043 50.5066 37.9854 50.3616 37.9854H46.7012C46.5562 37.9854 46.4171 38.043 46.3146 38.1455C46.212 38.2481 46.1544 38.3872 46.1544 38.5322V40.481C45.5868 40.6483 45.0387 40.8756 44.5194 41.1591L43.1409 39.781C43.0902 39.7302 43.0299 39.6898 42.9636 39.6623C42.8973 39.6348 42.8262 39.6207 42.7544 39.6207C42.6826 39.6207 42.6115 39.6348 42.5451 39.6623C42.4788 39.6898 42.4185 39.7302 42.3678 39.781L39.7794 42.3688C39.6769 42.4713 39.6193 42.6104 39.6193 42.7554C39.6193 42.9003 39.6769 43.0394 39.7794 43.1419L41.1584 44.5207C40.8749 45.04 40.6477 45.5881 40.4806 46.1557H38.5312C38.3862 46.1557 38.2471 46.2133 38.1446 46.3158C38.042 46.4184 37.9844 46.5575 37.9844 46.7025V50.3625C37.9844 50.5076 38.042 50.6467 38.1446 50.7492C38.2471 50.8518 38.3862 50.9094 38.5312 50.9094H40.4762C40.6436 51.4777 40.8715 52.0264 41.1563 52.546L39.7794 53.9229C39.6769 54.0255 39.6193 54.1645 39.6193 54.3096C39.6193 54.4546 39.6769 54.5937 39.7794 54.6963L42.3678 57.2847C42.4185 57.3355 42.4788 57.3759 42.5451 57.4034C42.6115 57.4309 42.6826 57.445 42.7544 57.445C42.8262 57.445 42.8973 57.4309 42.9636 57.4034C43.0299 57.3759 43.0902 57.3355 43.1409 57.2847L44.5178 55.9097C45.0373 56.1945 45.586 56.4225 46.1544 56.5897V58.5347C46.1543 58.6066 46.1685 58.6777 46.1959 58.7441C46.2234 58.8104 46.2637 58.8707 46.3145 58.9215C46.3653 58.9723 46.4256 59.0126 46.4919 59.0401C46.5583 59.0675 46.6294 59.0816 46.7012 59.0816H50.3613C50.4331 59.0816 50.5042 59.0675 50.5706 59.0401C50.6369 59.0126 50.6972 58.9723 50.748 58.9215C50.7988 58.8707 50.8391 58.8104 50.8666 58.7441C50.894 58.6777 50.9082 58.6066 50.9081 58.5347V56.5863C51.4757 56.4189 52.0238 56.1915 52.5431 55.9079L53.9216 57.2863C53.9723 57.3371 54.0326 57.3774 54.099 57.4049C54.1653 57.4325 54.2364 57.4466 54.3083 57.4466C54.3801 57.4466 54.4512 57.4325 54.5176 57.4049C54.584 57.3774 54.6442 57.3371 54.695 57.2863L57.2831 54.6985C57.334 54.6477 57.3743 54.5874 57.4018 54.5211C57.4293 54.4547 57.4435 54.3836 57.4435 54.3118C57.4435 54.2399 57.4293 54.1688 57.4018 54.1024C57.3743 54.0361 57.334 53.9758 57.2831 53.925L55.9047 52.5463C56.1881 52.027 56.4154 51.479 56.5828 50.9116H58.5312C58.6031 50.9116 58.6742 50.8975 58.7406 50.8701C58.8069 50.8426 58.8673 50.8023 58.918 50.7515C58.9688 50.7007 59.0091 50.6404 59.0366 50.5741C59.064 50.5077 59.0782 50.4366 59.0781 50.3647V46.7025C59.0782 46.6307 59.064 46.5596 59.0366 46.4932C59.0091 46.4268 58.9688 46.3665 58.918 46.3157C58.8673 46.265 58.8069 46.2247 58.7406 46.1972C58.6742 46.1697 58.6031 46.1556 58.5312 46.1557ZM57.9844 49.816H56.1628C56.04 49.8162 55.9208 49.8577 55.8245 49.9338C55.7281 50.0099 55.6602 50.1162 55.6316 50.2357C55.4536 50.9816 55.1583 51.6946 54.7566 52.3479C54.6923 52.4527 54.6652 52.5761 54.6796 52.6982C54.694 52.8203 54.749 52.934 54.8359 53.021L56.125 54.31L54.3103 56.1244L53.0216 54.8357C52.9345 54.7489 52.8208 54.6939 52.6987 54.6795C52.5767 54.6651 52.4533 54.6921 52.3484 54.7563C51.695 55.1579 50.982 55.4533 50.2359 55.6313C50.1165 55.6599 50.0102 55.7279 49.9341 55.8242C49.8579 55.9206 49.8164 56.0397 49.8162 56.1625V57.9841H47.2481V56.1657C47.2479 56.0428 47.2064 55.9235 47.1301 55.8271C47.0539 55.7307 46.9474 55.6629 46.8278 55.6344C46.0814 55.4565 45.3684 55.1602 44.7156 54.7569C44.6109 54.6921 44.4873 54.6647 44.365 54.679C44.2427 54.6932 44.1288 54.7485 44.0419 54.8357L42.7544 56.1232L40.9397 54.3097L42.2272 53.0219C42.3143 52.9348 42.3695 52.8209 42.3838 52.6986C42.3981 52.5762 42.3706 52.4527 42.3059 52.3479C41.9027 51.6952 41.6066 50.9822 41.4287 50.236C41.4003 50.1164 41.3324 50.0099 41.236 49.9337C41.1397 49.8574 41.0204 49.8158 40.8975 49.8157H39.0781V47.2494H40.8997C41.0225 47.2491 41.1417 47.2076 41.238 47.1314C41.3344 47.0552 41.4023 46.9489 41.4309 46.8294C41.6088 46.0834 41.9042 45.3705 42.3059 44.7172C42.3704 44.6125 42.3976 44.4891 42.3832 44.367C42.3687 44.2449 42.3136 44.1313 42.2266 44.0444L40.9397 42.7554L42.7544 40.941L44.0431 42.2297C44.1299 42.3168 44.2436 42.3721 44.3657 42.3865C44.4878 42.4009 44.6113 42.3736 44.7159 42.3091C45.3693 41.9074 46.0824 41.612 46.8284 41.4341C46.9478 41.4054 47.0541 41.3375 47.1302 41.2411C47.2064 41.1448 47.2479 41.0256 47.2481 40.9029V39.081H49.8147V40.8994C49.8149 41.0223 49.8564 41.1416 49.9327 41.238C50.0089 41.3343 50.1154 41.4022 50.235 41.4307C50.9813 41.6088 51.6942 41.9052 52.3469 42.3085C52.4516 42.3733 52.5753 42.4008 52.6976 42.3865C52.82 42.3722 52.9339 42.3169 53.0209 42.2297L54.3084 40.941L56.1231 42.7557L54.8353 44.0435C54.7483 44.1305 54.6931 44.2444 54.6789 44.3667C54.6646 44.4889 54.6919 44.6124 54.7566 44.7172C55.1598 45.3698 55.456 46.0828 55.6337 46.8291C55.6621 46.9487 55.73 47.0553 55.8264 47.1316C55.9228 47.2079 56.0421 47.2495 56.165 47.2497H57.9834L57.9844 49.816Z" fill="#0C1F25"/>
<path d="M48.5309 43.7959C47.5946 43.7959 46.6793 44.0735 45.9008 44.5937C45.1223 45.1139 44.5155 45.8533 44.1572 46.7183C43.7989 47.5834 43.7052 48.5352 43.8878 49.4535C44.0705 50.3718 44.5214 51.2154 45.1835 51.8774C45.8455 52.5395 46.6891 52.9904 47.6074 53.1731C48.5257 53.3557 49.4776 53.262 50.3426 52.9037C51.2076 52.5454 51.947 51.9386 52.4672 51.1601C52.9874 50.3816 53.265 49.4663 53.265 48.53C53.2636 47.2748 52.7644 46.0715 51.8769 45.184C50.9894 44.2965 49.7861 43.7973 48.5309 43.7959ZM48.5309 52.1709C47.811 52.1709 47.1071 51.9574 46.5085 51.5574C45.9098 51.1574 45.4433 50.5889 45.1677 49.9237C44.8922 49.2585 44.8201 48.5265 44.9606 47.8204C45.101 47.1142 45.4477 46.4656 45.9568 45.9565C46.466 45.4474 47.1146 45.1007 47.8208 44.9602C48.5269 44.8198 49.2588 44.8918 49.924 45.1674C50.5892 45.4429 51.1577 45.9095 51.5577 46.5081C51.9578 47.1068 52.1713 47.8106 52.1713 48.5306C52.17 49.4956 51.7861 50.4208 51.1036 51.1031C50.4212 51.7854 49.496 52.1692 48.5309 52.1703V52.1709Z" fill="#0C1F25"/>
<path d="M44.4764 27.0187C47.6538 27.9541 50.3978 29.9834 52.2229 32.7474C51.7852 33.1436 51.5085 33.6869 51.4453 34.274C51.3822 34.861 51.537 35.4507 51.8804 35.931C52.2238 36.4112 52.7318 36.7484 53.3077 36.8785C53.8836 37.0085 54.4872 36.9223 55.0037 36.6362C55.5202 36.3502 55.9134 35.8842 56.1086 35.327C56.3039 34.7698 56.2874 34.1603 56.0625 33.6144C55.8375 33.0686 55.4197 32.6245 54.8885 32.3667C54.3574 32.1088 53.75 32.0553 53.182 32.2162C51.2158 29.201 48.2386 26.986 44.7854 25.9696C44.7161 25.9478 44.6431 25.94 44.5707 25.9467C44.4983 25.9534 44.428 25.9744 44.3639 26.0086C44.2997 26.0428 44.243 26.0894 44.1971 26.1458C44.1512 26.2021 44.117 26.2671 44.0965 26.3368C44.0759 26.4065 44.0695 26.4797 44.0776 26.5519C44.0857 26.6241 44.1081 26.6941 44.1435 26.7575C44.1789 26.821 44.2266 26.8768 44.2838 26.9217C44.341 26.9665 44.4062 26.9995 44.4764 27.0187ZM55.1292 34.524C55.1292 34.7818 55.0527 35.0339 54.9094 35.2483C54.7662 35.4627 54.5626 35.6298 54.3243 35.7285C54.0861 35.8272 53.824 35.853 53.5711 35.8027C53.3182 35.7524 53.0859 35.6282 52.9035 35.4459C52.7212 35.2635 52.597 35.0312 52.5467 34.7783C52.4964 34.5254 52.5222 34.2633 52.6209 34.0251C52.7196 33.7868 52.8867 33.5832 53.1011 33.44C53.3155 33.2967 53.5676 33.2202 53.8254 33.2202C54.1711 33.2206 54.5025 33.358 54.7469 33.6025C54.9914 33.8469 55.1288 34.1783 55.1292 34.524Z" fill="#0C1F25"/>
<path d="M36.5278 53.9834C33.351 53.0477 30.6075 51.0184 28.7828 48.2546C29.2205 47.8584 29.4973 47.3151 29.5604 46.7281C29.6236 46.1411 29.4687 45.5513 29.1253 45.0711C28.7819 44.5908 28.2739 44.2536 27.698 44.1236C27.1221 43.9935 26.5185 44.0797 26.002 44.3658C25.4856 44.6519 25.0923 45.1179 24.8971 45.6751C24.7018 46.2322 24.7183 46.8418 24.9433 47.3876C25.1682 47.9335 25.586 48.3776 26.1172 48.6354C26.6483 48.8932 27.2557 48.9468 27.8237 48.7859C29.7894 51.8009 32.7661 54.0158 36.2187 55.0324C36.269 55.0473 36.3211 55.0548 36.3734 55.0546C36.5048 55.0543 36.6316 55.0068 36.7308 54.9207C36.83 54.8346 36.8948 54.7156 36.9135 54.5856C36.9322 54.4556 36.9035 54.3232 36.8326 54.2126C36.7617 54.102 36.6534 54.0207 36.5275 53.9834H36.5278ZM25.875 46.4781C25.8751 46.2202 25.9517 45.9682 26.095 45.7539C26.2383 45.5396 26.442 45.3726 26.6802 45.274C26.9185 45.1754 27.1806 45.1497 27.4335 45.2001C27.6863 45.2504 27.9186 45.3747 28.1008 45.557C28.2831 45.7394 28.4072 45.9717 28.4575 46.2246C28.5077 46.4775 28.4819 46.7396 28.3832 46.9778C28.2845 47.216 28.1174 47.4195 27.903 47.5628C27.6886 47.706 27.4366 47.7824 27.1787 47.7824C26.833 47.7821 26.5014 47.6446 26.257 47.4C26.0125 47.1554 25.8752 46.8238 25.875 46.4781Z" fill="#0C1F25"/>
</svg>
