<svg width="60" height="60" viewBox="0 0 60 60" fill="none" xmlns="http://www.w3.org/2000/svg">
<path d="M39.1553 30.002H48.3105V22.6777C48.3105 18.6379 45.0261 15.3535 40.9863 15.3535H40.0709C38.5488 15.3535 37.3242 14.129 37.3242 12.6069V7.11371C37.3242 5.59168 38.5487 4.36707 40.0709 4.36707H40.9863C51.1029 4.36707 59.2969 12.5611 59.2969 22.6776V50.1436C59.2969 53.1762 56.8364 55.6367 53.8037 55.6367H39.1553C36.1226 55.6367 33.6621 53.1762 33.6621 50.1436V35.4951C33.6621 32.4624 36.1226 30.002 39.1553 30.002Z" fill="#293314"/>
<path d="M6.19629 30.002H15.3516V22.6777C15.3516 18.6379 12.0671 15.3535 8.02734 15.3535H7.11188C5.58984 15.3535 4.36523 14.129 4.36523 12.6069V7.11371C4.36523 5.59168 5.58973 4.36707 7.11188 4.36707H8.02734C18.1439 4.36707 26.3379 12.5611 26.3379 22.6776V50.1436C26.3379 53.1762 23.8774 55.6367 20.8447 55.6367H6.19629C3.16359 55.6367 0.703125 53.1762 0.703125 50.1436V35.4951C0.703125 32.4624 3.16359 30.002 6.19629 30.002Z" fill="#293314"/>
</svg>
