<svg width="52" height="52" viewBox="0 0 52 52" fill="none" xmlns="http://www.w3.org/2000/svg">
<rect width="52" height="52" rx="26" fill="#101828"/>
<g filter="url(#filter0_dd_14042_26691)">
<rect x="11.668" y="12" width="28" height="28" rx="14" fill="#6C65FF"/>
<path d="M24.5647 28.4394H26.792L28.1112 30.1496L29.0524 31.2633L31.3129 34.1667H28.9265L27.3886 32.2178L26.7324 31.2898L24.5647 28.4394ZM31.6377 26.2121C31.6377 27.6749 31.3637 28.9277 30.8157 29.9706C30.2721 31.0092 29.5297 31.8046 28.5884 32.357C27.6516 32.9094 26.5887 33.1856 25.4 33.1856C24.2112 33.1856 23.1462 32.9094 22.2049 32.357C21.268 31.8002 20.5256 31.0025 19.9776 29.964C19.4341 28.9211 19.1623 27.6705 19.1623 26.2121C19.1623 24.7494 19.4341 23.4987 19.9776 22.4602C20.5256 21.4173 21.268 20.6196 22.2049 20.0672C23.1462 19.5148 24.2112 19.2386 25.4 19.2386C26.5887 19.2386 27.6516 19.5148 28.5884 20.0672C29.5297 20.6196 30.2721 21.4173 30.8157 22.4602C31.3637 23.4987 31.6377 24.7494 31.6377 26.2121ZM29.1651 26.2121C29.1651 25.1824 29.0038 24.3141 28.6812 23.607C28.363 22.8955 27.9211 22.3586 27.3555 21.9962C26.7898 21.6294 26.138 21.446 25.4 21.446C24.662 21.446 24.0101 21.6294 23.4445 21.9962C22.8788 22.3586 22.4347 22.8955 22.1121 23.607C21.7939 24.3141 21.6348 25.1824 21.6348 26.2121C21.6348 27.2418 21.7939 28.1124 22.1121 28.8239C22.4347 29.5309 22.8788 30.0679 23.4445 30.4347C24.0101 30.797 24.662 30.9782 25.4 30.9782C26.138 30.9782 26.7898 30.797 27.3555 30.4347C27.9211 30.0679 28.363 29.5309 28.6812 28.8239C29.0038 28.1124 29.1651 27.2418 29.1651 26.2121Z" fill="white"/>
</g>
<defs>
<filter id="filter0_dd_14042_26691" x="8.86797" y="10.1333" width="33.6" height="33.6" filterUnits="userSpaceOnUse" color-interpolation-filters="sRGB">
<feFlood flood-opacity="0" result="BackgroundImageFix"/>
<feColorMatrix in="SourceAlpha" type="matrix" values="0 0 0 0 0 0 0 0 0 0 0 0 0 0 0 0 0 0 127 0" result="hardAlpha"/>
<feOffset dy="0.933333"/>
<feGaussianBlur stdDeviation="0.933333"/>
<feColorMatrix type="matrix" values="0 0 0 0 0.0627451 0 0 0 0 0.0941176 0 0 0 0 0.156863 0 0 0 0.04 0"/>
<feBlend mode="normal" in2="BackgroundImageFix" result="effect1_dropShadow_14042_26691"/>
<feColorMatrix in="SourceAlpha" type="matrix" values="0 0 0 0 0 0 0 0 0 0 0 0 0 0 0 0 0 0 127 0" result="hardAlpha"/>
<feOffset dy="0.933333"/>
<feGaussianBlur stdDeviation="1.4"/>
<feColorMatrix type="matrix" values="0 0 0 0 0.0627451 0 0 0 0 0.0941176 0 0 0 0 0.156863 0 0 0 0.06 0"/>
<feBlend mode="normal" in2="effect1_dropShadow_14042_26691" result="effect2_dropShadow_14042_26691"/>
<feBlend mode="normal" in="SourceGraphic" in2="effect2_dropShadow_14042_26691" result="shape"/>
</filter>
</defs>
</svg>
