<svg width="40" height="40" viewBox="0 0 40 40" fill="none" xmlns="http://www.w3.org/2000/svg">
<path d="M39.2703 30.882C38.8477 29.3031 37.2055 28.3438 35.5336 28.6945L23.8758 31.1633C24.1052 30.5326 24.1057 29.8413 23.8772 29.2103C23.6488 28.5793 23.2058 28.0486 22.6258 27.711L15.868 23.8094C15.597 23.6398 15.3423 23.4455 15.1071 23.2289C14.5133 22.7156 13.7742 22.0774 12.3969 21.9305C11.0938 21.7969 9.39456 22.0992 7.10237 22.8906V21.7695C7.10237 21.6038 7.03653 21.4448 6.91932 21.3276C6.80211 21.2104 6.64314 21.1445 6.47737 21.1445H1.25003C1.08427 21.1445 0.925299 21.2104 0.808089 21.3276C0.690879 21.4448 0.625031 21.6038 0.625031 21.7695V36.1805C0.625031 36.3462 0.690879 36.5052 0.808089 36.6224C0.925299 36.7396 1.08427 36.8055 1.25003 36.8055H6.47737C6.64314 36.8055 6.80211 36.7396 6.91932 36.6224C7.03653 36.5052 7.10237 36.3462 7.10237 36.1805V34.7656C8.96722 34.5047 11.3336 35.8555 13.6289 37.1664C15.6071 38.2969 17.493 39.375 19.0688 39.375C19.3652 39.3771 19.6602 39.3341 19.9438 39.2477L37.0946 34.6524C37.8825 34.44 38.554 33.9238 38.9619 33.217C39.3698 32.5102 39.4807 31.6705 39.2703 30.882ZM1.87503 35.5555V22.3945H5.85237V35.5555H1.87503ZM36.7703 33.4461L19.6094 38.0469L19.5805 38.0555C18.375 38.4406 16.2782 37.243 14.2516 36.0852C11.8344 34.7047 9.34378 33.2836 7.10472 33.511V24.2141C12.2102 22.382 13.2672 23.2945 14.2922 24.1774C14.586 24.4469 14.9052 24.6874 15.2453 24.8953L22.0032 28.7969C22.3717 29.0107 22.6401 29.3622 22.7495 29.774C22.8589 30.1857 22.8002 30.6241 22.5864 30.9926C22.3725 31.3611 22.0211 31.6296 21.6093 31.7389C21.1975 31.8483 20.7592 31.7896 20.3907 31.5758L14.7492 28.3188C14.6781 28.2751 14.5989 28.2462 14.5164 28.2336C14.4339 28.2211 14.3497 28.2252 14.2688 28.2457C14.1879 28.2663 14.112 28.3028 14.0454 28.3531C13.9788 28.4035 13.923 28.4667 13.8813 28.5389C13.8396 28.6112 13.8127 28.6911 13.8023 28.7739C13.792 28.8567 13.7983 28.9408 13.8209 29.0211C13.8436 29.1015 13.8821 29.1764 13.9342 29.2416C13.9863 29.3069 14.0509 29.361 14.1242 29.4008L19.7657 32.6563C20.1979 32.9066 20.6888 33.0382 21.1883 33.0375C21.637 33.0386 22.0798 32.9348 22.4813 32.7344C22.5107 32.7324 22.5399 32.7285 22.5688 32.7227L35.7922 29.9219C36.8313 29.7016 37.8078 30.2539 38.0633 31.2063C38.1877 31.6744 38.1215 32.1728 37.8791 32.5921C37.6367 33.0115 37.238 33.3178 36.7703 33.4438V33.4461ZM5.20784 25.0711C5.20784 25.3373 5.1289 25.5976 4.98099 25.819C4.83307 26.0403 4.62284 26.2129 4.37688 26.3147C4.13091 26.4166 3.86026 26.4433 3.59914 26.3913C3.33802 26.3394 3.09817 26.2112 2.90992 26.0229C2.72166 25.8347 2.59346 25.5948 2.54152 25.3337C2.48958 25.0726 2.51624 24.8019 2.61812 24.556C2.72 24.31 2.89254 24.0998 3.1139 23.9519C3.33526 23.804 3.59552 23.725 3.86175 23.725C4.21857 23.725 4.56084 23.8664 4.81359 24.1183C5.06633 24.3702 5.20895 24.712 5.21019 25.0688L5.20784 25.0711ZM14.5782 16.4219L17.5782 16.875C17.6508 17.068 17.7344 17.2586 17.8125 17.4469L16.0063 19.8883C15.8406 20.1098 15.7608 20.3838 15.7816 20.6595C15.8025 20.9353 15.9225 21.1942 16.1196 21.3883L18.6235 23.8828C18.8178 24.0786 19.0762 24.1975 19.3513 24.2178C19.6264 24.238 19.8995 24.1582 20.1203 23.993L22.5547 22.1961C22.7438 22.282 22.9367 22.3625 23.1313 22.436L23.5797 25.4297C23.6199 25.7016 23.7567 25.95 23.965 26.1293C24.1733 26.3086 24.4392 26.407 24.7141 26.4063L28.2492 26.4133C28.5255 26.4148 28.7929 26.3162 29.0022 26.1359C29.2114 25.9555 29.3483 25.7055 29.3875 25.432L29.836 22.432C30.0308 22.3586 30.2224 22.2789 30.411 22.193L32.8453 23.9899C33.0661 24.155 33.3391 24.2348 33.614 24.2146C33.8889 24.1943 34.1473 24.0754 34.3414 23.8797L36.8414 21.3852C37.0386 21.1912 37.1588 20.9323 37.1796 20.6564C37.2005 20.3806 37.1205 20.1066 36.9547 19.8852L35.1563 17.443C35.2391 17.2591 35.3172 17.0732 35.3907 16.8852L38.4032 16.4235C38.6751 16.382 38.923 16.2439 39.1015 16.0346C39.2799 15.8253 39.3771 15.5587 39.375 15.2836L39.3688 11.7445C39.3693 11.4696 39.271 11.2037 39.0917 10.9953C38.9124 10.7869 38.6641 10.6499 38.3922 10.6094L35.3828 10.1484C35.3133 9.96564 35.2383 9.78439 35.1578 9.60626L36.9633 7.14611C37.1278 6.92474 37.2066 6.65138 37.1854 6.37643C37.1641 6.10148 37.0442 5.84348 36.8477 5.65001L34.3414 3.15001C34.1474 2.95517 33.8897 2.8366 33.6155 2.81595C33.3413 2.7953 33.0687 2.87393 32.8477 3.03751L30.3907 4.84376C30.2141 4.76408 30.0347 4.6896 29.8524 4.62033L29.3907 1.60782C29.3502 1.33591 29.2132 1.08763 29.0048 0.908337C28.7964 0.729045 28.5304 0.6307 28.2555 0.631262L24.7164 0.625012C24.4412 0.623748 24.1747 0.721807 23.9659 0.901193C23.7571 1.08058 23.62 1.32925 23.5797 1.60157L23.1164 4.62033C22.9321 4.68751 22.7524 4.76564 22.5782 4.84376L20.118 3.03986C19.897 2.87612 19.6245 2.79739 19.3502 2.81804C19.0759 2.8387 18.8182 2.95737 18.6242 3.15236L16.118 5.65236C15.9218 5.846 15.802 6.10395 15.7808 6.37881C15.7596 6.65367 15.8382 6.92696 16.0024 7.14845L17.8125 9.60939C17.7344 9.79142 17.6563 9.97658 17.5828 10.1641L14.5758 10.6133C14.3024 10.6523 14.0523 10.789 13.8718 10.9981C13.6913 11.2072 13.5925 11.4746 13.5938 11.7508L13.6008 15.286C13.5998 15.5612 13.698 15.8276 13.8775 16.0363C14.0571 16.2449 14.3058 16.3818 14.5782 16.4219ZM18.5157 11.2844L18.6367 10.9195C18.7619 10.5418 18.9144 10.1736 19.093 9.81798L19.2641 9.47658L17.061 6.47501L19.4469 4.09767L22.4446 6.29845L22.786 6.12736C23.1369 5.95143 23.5001 5.80104 23.8727 5.67736L24.2352 5.55626L24.8 1.87501L28.168 1.88126L28.7313 5.55314L29.0938 5.67423C29.466 5.79832 29.8289 5.9487 30.1797 6.12423L30.5219 6.29533L33.5196 4.09454L35.9055 6.47189L33.7024 9.47345L33.8742 9.81564C34.0506 10.1671 34.2015 10.5308 34.3258 10.9039L34.4469 11.2664L38.1188 11.8289L38.125 15.1977L34.4532 15.761L34.3321 16.1235C34.2065 16.5023 34.0535 16.8715 33.8742 17.2281L33.7008 17.5719L35.9086 20.5555L33.525 22.9305L30.5469 20.732L30.2032 20.9055C29.8415 21.0891 29.4668 21.2458 29.0821 21.3742L28.7172 21.4953L28.1703 25.1625L24.8016 25.1563L24.2547 21.4953L23.8899 21.3742C23.5045 21.2462 23.1292 21.0895 22.7672 20.9055L22.4235 20.732L19.4453 22.9336L17.0625 20.5594L19.268 17.5781L19.0953 17.2344C18.9136 16.8734 18.7588 16.4994 18.6321 16.1156L18.5157 15.7469L14.8508 15.2L14.8438 11.8336L18.5157 11.2844ZM26.4844 20.3125C27.8287 20.3125 29.1428 19.9139 30.2605 19.167C31.3783 18.4202 32.2495 17.3587 32.7639 16.1167C33.2783 14.8747 33.4129 13.5081 33.1507 12.1896C32.8884 10.8712 32.2411 9.66008 31.2905 8.70952C30.34 7.75896 29.1289 7.11162 27.8104 6.84936C26.4919 6.5871 25.1253 6.7217 23.8834 7.23614C22.6414 7.75058 21.5799 8.62176 20.833 9.7395C20.0862 10.8572 19.6875 12.1713 19.6875 13.5156C19.69 15.3175 20.4069 17.0449 21.681 18.319C22.9552 19.5931 24.6825 20.31 26.4844 20.3125ZM26.4844 7.96876C27.5815 7.96876 28.6539 8.29408 29.5661 8.90358C30.4783 9.51308 31.1892 10.3794 31.6091 11.3929C32.0289 12.4065 32.1387 13.5218 31.9247 14.5978C31.7107 15.6738 31.1824 16.6621 30.4066 17.4379C29.6309 18.2136 28.6425 18.7419 27.5665 18.9559C26.4906 19.17 25.3753 19.0601 24.3617 18.6403C23.3481 18.2205 22.4818 17.5095 21.8723 16.5973C21.2628 15.6851 20.9375 14.6127 20.9375 13.5156C20.9398 12.0452 21.5249 10.6357 22.5647 9.59592C23.6044 8.55617 25.014 7.97104 26.4844 7.96876ZM23.6789 14.1235C23.5667 14.0053 23.505 13.8479 23.5071 13.685C23.5092 13.522 23.5749 13.3663 23.6901 13.251C23.8054 13.1358 23.9611 13.0701 24.124 13.068C24.287 13.0659 24.4444 13.1276 24.5625 13.2399L25.7086 14.3852L28.3774 11.3242C28.4873 11.203 28.6404 11.1296 28.8037 11.12C28.9671 11.1104 29.1277 11.1652 29.2511 11.2727C29.3745 11.3803 29.4508 11.5319 29.4636 11.6951C29.4764 11.8582 29.4247 12.0199 29.3196 12.1453L26.2094 15.711C26.153 15.7754 26.084 15.8277 26.0066 15.8643C25.9292 15.901 25.845 15.9214 25.7594 15.9242H25.7383C25.6562 15.9243 25.5749 15.9082 25.499 15.8768C25.4232 15.8455 25.3542 15.7994 25.2961 15.7414L23.6789 14.1235Z" fill="#B7EC42"/>
</svg>
