<svg version="1.2" xmlns="http://www.w3.org/2000/svg" viewBox="0 0 269 46" width="269" height="46"><defs><clipPath clipPathUnits="userSpaceOnUse" id="cp1"><path d="m0 0.5h268.49v45h-268.49z"/></clipPath></defs><style>.a{fill:#0c1f25}</style><g clip-path="url(#cp1)"><path fill-rule="evenodd" class="a" d="m71.8 0.6l-22.9 44.7h-21.5l9.6-18.5h-0.5c-7.9 10.2-19.6 17-36.4 18.5v-18.3c0 0 10.7-0.6 17-7.2h-17v-19.2h19.1v15.8h0.5l7.8-15.8h14.5v15.7h0.4l8.2-15.7z"/><path class="a" d="m196.5 40.4h6.2v-35.4h-6.2z"/><path fill-rule="evenodd" class="a" d="m159 37.7q-0.2-0.3-0.5-0.6v3.3h-6.1v-35.4h6.2v13.5q0.1-0.2 0.2-0.3 1.3-1.6 3.4-2.4 2-0.9 4.2-0.9 3.5 0 6.2 1.7 2.8 1.6 4.3 4.5 1.6 3 1.6 6.8 0 3.7-1.5 6.7-1.5 2.9-4.2 4.6-2.8 1.7-6.2 1.7-2.1 0-4.1-0.9-2-0.8-3.5-2.3zm12.2-6q0.8-1.7 0.8-3.9 0-2.1-0.8-3.8-0.8-1.7-2.4-2.6-1.5-0.9-3.4-0.9-2 0-3.6 0.9-1.6 0.9-2.5 2.6-1 1.7-0.9 3.8 0 2.2 0.9 3.8 0.9 1.7 2.5 2.7 1.7 0.9 3.6 0.9 1.9 0 3.4-0.9 1.6-0.9 2.4-2.6z"/><path class="a" d="m80.7 7.1h7.1l6.3 23.1 6.7-23.1h5.9l7.3 22.6 6-22.6h6.5l-9.5 33.3h-6.1l-7.4-22.1-6.8 22.1h-6.2z"/><path fill-rule="evenodd" class="a" d="m136.9 41q-3.7 0-6.6-1.6-3-1.7-4.7-4.7-1.6-2.9-1.6-6.7 0-3.7 1.7-6.7 1.7-3 4.6-4.7 3-1.6 6.6-1.7 4.1 0 7.1 1.9 3.1 1.8 4.6 5.1 1.6 3.3 1.1 7.6h-19.3q0 1.7 0.8 3.1 0.9 1.5 2.4 2.4 1.5 0.8 3.4 0.8 1.5 0 2.7-0.5 1.3-0.5 2.1-1.3 0.9-0.8 1.3-1.9h6.4q-0.5 2.6-2.3 4.6-1.8 2-4.4 3.2-2.7 1.1-5.9 1.1zm-5.7-17.8q-0.5 1-0.7 2.1h12.8q-0.1-1.4-0.8-2.5-0.9-1.4-2.3-2.1-1.4-0.7-3.1-0.7-1.9 0-3.4 0.8-1.6 0.9-2.5 2.4z"/><path class="a" d="m183 15.5q0-3.1 1.4-5.4 1.4-2.4 3.8-3.7 2.6-1.3 5.9-1.4v5.5q-1.6 0-2.7 0.7-1 0.6-1.6 1.8-0.6 1-0.6 2.5h4.8v5.2h-4.8v19.7h-6.2v-19.7h-4v-5.2h4z"/><path fill-rule="evenodd" class="a" d="m218.4 40.9q-3.8 0-6.7-1.6-3-1.7-4.7-4.6-1.7-3-1.7-6.7 0-3.8 1.7-6.8 1.7-3 4.7-4.6 2.9-1.7 6.7-1.7 3.8 0 6.8 1.7 3 1.6 4.7 4.6 1.7 3 1.7 6.8 0 3.7-1.7 6.7-1.7 2.9-4.7 4.6-3 1.6-6.8 1.6zm0-5.6q2 0 3.5-0.9 1.6-1 2.4-2.6 0.9-1.7 0.9-3.8 0-2.2-0.9-3.9-0.8-1.7-2.4-2.6-1.5-0.9-3.5-0.9-2 0-3.5 0.9-1.5 0.9-2.3 2.6-0.9 1.7-0.9 3.9 0 2.1 0.9 3.8 0.8 1.6 2.3 2.6 1.5 0.9 3.5 0.9z"/><path class="a" d="m238.3 15.5h-6.9l7.4 24.9h6l4.9-15.9 5.3 15.9h5.9l7.5-24.9h-6.2l-4.3 15.5-4.6-15.5h-6l-4.7 15.8z"/></g></svg>