<svg width="52" height="52" viewBox="0 0 52 52" fill="none" xmlns="http://www.w3.org/2000/svg">
<path d="M0 26C0 11.6406 11.6406 0 26 0C40.3594 0 52 11.6406 52 26C52 40.3594 40.3594 52 26 52C11.6406 52 0 40.3594 0 26Z" fill="#101828"/>
<path d="M29.5 34.7369C29.0555 34.9154 28.5961 35.065 28.121 35.1744L27.9285 37.6821C27.904 38.0024 27.6363 38.25 27.3151 38.25H24.684C24.3629 38.25 24.096 38.0024 24.0715 37.683L23.879 35.1753C22.8483 34.9381 21.8849 34.5312 21.0142 33.9861L19.1024 35.625C18.8582 35.8341 18.4951 35.8201 18.2676 35.5926L16.4074 33.7324C16.1799 33.5049 16.1667 33.1418 16.375 32.8976L18.0139 30.9858C17.4696 30.1151 17.0627 29.1517 16.8247 28.121L14.317 27.9285C13.9976 27.904 13.75 27.6363 13.75 27.3151V24.684C13.75 24.3629 13.9976 24.096 14.317 24.0715L16.8247 23.879C17.0619 22.8483 17.4688 21.8849 18.0139 21.0142L16.3759 19.1024C16.1667 18.8591 16.1808 18.4951 16.4074 18.2685L18.2676 16.4083C18.4943 16.1816 18.8582 16.1676 19.1024 16.3759L21.0142 18.0148C21.8849 17.4705 22.8483 17.0636 23.879 16.8256L24.0715 14.3179C24.096 13.9976 24.3637 13.75 24.6849 13.75H27.316C27.6371 13.75 27.904 13.9976 27.9285 14.317L27.9399 14.4631C27.2609 15.5052 26.875 16.7337 26.875 18.0331C26.875 19.0849 27.1235 20.0929 27.5776 20.9924C27.0797 20.8349 26.5495 20.75 26 20.75C23.1003 20.75 20.75 23.1003 20.75 26C20.75 28.8997 23.1003 31.25 26 31.25C27.3466 31.25 28.5708 30.739 29.5 29.9051V34.7369Z" fill="#FA6422"/>
<path d="M35.625 22.3154V36.0625C35.625 37.2709 34.6459 38.25 33.4375 38.25C32.2291 38.25 31.25 37.2709 31.25 36.0625V22.3154C29.6925 21.5183 28.625 19.9021 28.625 18.0323C28.625 16.2254 29.6225 14.6539 31.096 13.8314C31.1634 13.7946 31.25 13.8471 31.25 13.9241V19L33.4375 19.875L35.625 19V13.9241C35.625 13.8471 35.7116 13.7946 35.779 13.8323C37.2525 14.6548 38.25 16.2254 38.25 18.0331C38.25 19.9021 37.1825 21.5191 35.625 22.3154Z" fill="#FA6422"/>
</svg>
